<svg xmlns="http://www.w3.org/2000/svg" width="720" height="380" viewBox="0 0 720 380"><rect width="100%" height="100%" fill="#f4f4f5"/><svg x="0" y="0" width="708" height="380" viewBox="0 0 708 380"><defs><clipPath id="xy-panel-0-clip1"><rect x="71.67" y="45" width="622" height="246"/></clipPath></defs><rect x="71.67" y="45" width="622" height="246" fill="#f4f4f5"/><g><line data-xy-grid="minor" x1="71.67" y1="45" x2="71.67" y2="291" stroke="transparent" stroke-width="1.11" stroke-opacity="0.4"/><line data-xy-grid="minor" x1="88.64" y1="45" x2="88.64" y2="291" stroke="transparent" stroke-width="1.11" stroke-opacity="0.4"/><line data-xy-grid="minor" x1="102.98" y1="45" x2="102.98" y2="291" stroke="transparent" stroke-width="1.11" stroke-opacity="0.4"/><line data-xy-grid="minor" x1="115.41" y1="45" x2="115.41" y2="291" stroke="transparent" stroke-width="1.11" stroke-opacity="0.4"/><line data-xy-grid="minor" x1="126.37" y1="45" x2="126.37" y2="291" stroke="transparent" stroke-width="1.11" stroke-opacity="0.4"/><line data-xy-grid="minor" x1="238.4" y1="45" x2="238.4" y2="291" stroke="transparent" stroke-width="1.11" stroke-opacity="0.4"/><line data-xy-grid="minor" x1="265.16" y1="45" x2="265.16" y2="291" stroke="transparent" stroke-width="1.11" stroke-opacity="0.4"/><line data-xy-grid="minor" x1="285.93" y1="45" x2="285.93" y2="291" stroke="transparent" stroke-width="1.11" stroke-opacity="0.4"/><line data-xy-grid="minor" x1="302.89" y1="45" x2="302.89" y2="291" stroke="transparent" stroke-width="1.11" stroke-opacity="0.4"/><line data-xy-grid="minor" x1="317.24" y1="45" x2="317.24" y2="291" stroke="transparent" stroke-width="1.11" stroke-opacity="0.4"/><line data-xy-grid="minor" x1="329.66" y1="45" x2="329.66" y2="291" stroke="transparent" stroke-width="1.11" stroke-opacity="0.4"/><line data-xy-grid="minor" x1="340.62" y1="45" x2="340.62" y2="291" stroke="transparent" stroke-width="1.11" stroke-opacity="0.4"/><line data-xy-grid="minor" x1="414.92" y1="45" x2="414.92" y2="291" stroke="transparent" stroke-width="1.11" stroke-opacity="0.4"/><line data-xy-grid="minor" x1="452.65" y1="45" x2="452.65" y2="291" stroke="transparent" stroke-width="1.11" stroke-opacity="0.4"/><line data-xy-grid="minor" x1="479.42" y1="45" x2="479.42" y2="291" stroke="transparent" stroke-width="1.11" stroke-opacity="0.4"/><line data-xy-grid="minor" x1="517.15" y1="45" x2="517.15" y2="291" stroke="transparent" stroke-width="1.11" stroke-opacity="0.4"/><line data-xy-grid="minor" x1="531.49" y1="45" x2="531.49" y2="291" stroke="transparent" stroke-width="1.11" stroke-opacity="0.4"/><line data-xy-grid="minor" x1="543.92" y1="45" x2="543.92" y2="291" stroke="transparent" stroke-width="1.11" stroke-opacity="0.4"/><line data-xy-grid="minor" x1="554.88" y1="45" x2="554.88" y2="291" stroke="transparent" stroke-width="1.11" stroke-opacity="0.4"/><line data-xy-grid="minor" x1="629.18" y1="45" x2="629.18" y2="291" stroke="transparent" stroke-width="1.11" stroke-opacity="0.4"/><line data-xy-grid="minor" x1="666.9" y1="45" x2="666.9" y2="291" stroke="transparent" stroke-width="1.11" stroke-opacity="0.4"/><line data-xy-grid="minor" x1="693.67" y1="45" x2="693.67" y2="291" stroke="transparent" stroke-width="1.11" stroke-opacity="0.4"/><line x1="200.67" y1="45" x2="200.67" y2="291" stroke="#d4d4d8" stroke-width="1.11" stroke-opacity="0.4"/><line x1="350.43" y1="45" x2="350.43" y2="291" stroke="#d4d4d8" stroke-width="1.11" stroke-opacity="0.4"/><line x1="500.18" y1="45" x2="500.18" y2="291" stroke="#d4d4d8" stroke-width="1.11" stroke-opacity="0.4"/><line x1="564.68" y1="45" x2="564.68" y2="291" stroke="#d4d4d8" stroke-width="1.11" stroke-opacity="0.4"/><line x1="71.67" y1="291" x2="693.67" y2="291" stroke="#d4d4d8" stroke-width="1.11" stroke-opacity="0.4"/><line x1="71.67" y1="236.33" x2="693.67" y2="236.33" stroke="#d4d4d8" stroke-width="1.11" stroke-opacity="0.4"/><line x1="71.67" y1="181.67" x2="693.67" y2="181.67" stroke="#d4d4d8" stroke-width="1.11" stroke-opacity="0.4"/><line x1="71.67" y1="127" x2="693.67" y2="127" stroke="#d4d4d8" stroke-width="1.11" stroke-opacity="0.4"/><line x1="71.67" y1="72.33" x2="693.67" y2="72.33" stroke="#d4d4d8" stroke-width="1.11" stroke-opacity="0.4"/></g><g clip-path="url(#xy-panel-0-clip1)"><path d="M 86.43 130.54 L 113.2 118.4 L 133.96 109.62 L 150.93 103.01 L 165.27 97.91 L 177.7 93.89 L 188.66 90.68 L 198.46 88.08 L 207.33 85.96 L 215.43 84.21 L 222.87 82.75 L 229.77 81.53 L 236.19 80.49 L 242.19 79.61 L 247.84 78.85 L 253.15 78.2 L 258.19 77.63 L 262.96 77.13 L 267.5 76.7 L 271.83 76.31 L 275.96 75.97 L 279.92 75.67 L 283.72 75.4 L 287.37 75.16 L 290.88 74.94 L 294.27 74.75 L 297.53 74.57 L 300.69 74.41 L 303.74 74.26 L 306.69 74.13 L 309.55 74 L 312.33 73.89 L 315.03 73.79 L 317.65 73.69 L 320.2 73.6 L 322.68 73.52 L 325.1 73.44 L 327.45 73.37 L 329.75 73.31 L 331.99 73.25 L 334.18 73.19 L 336.32 73.14 L 338.41 73.09 L 340.46 73.04 L 342.46 73 L 344.42 72.95 L 346.34 72.92 L 348.22 72.88 L 350.06 72.84 L 351.87 72.81 L 353.64 72.78 L 355.38 72.75 L 357.09 72.72 L 358.76 72.7 L 360.41 72.67 L 362.03 72.65 L 363.62 72.63 L 365.18 72.61 L 366.72 72.59 L 368.23 72.57 L 369.72 72.55 L 371.19 72.53 L 372.63 72.51 L 374.05 72.5 L 375.45 72.48 L 376.83 72.47 L 378.19 72.45 L 379.53 72.44 L 380.85 72.43 L 382.15 72.42 L 383.43 72.4 L 384.7 72.39 L 385.95 72.38 L 387.18 72.37 L 388.4 72.36 L 389.6 72.35 L 390.78 72.34 L 391.95 72.33 L 393.11 72.32 L 394.25 72.32 L 395.38 72.31 L 396.49 72.3 L 397.59 72.29 L 398.68 72.28 L 399.76 72.28 L 400.82 72.27 L 401.87 72.26 L 402.91 72.26 L 403.94 72.25 L 404.96 72.25 L 405.96 72.24 L 406.96 72.23 L 407.94 72.23 L 408.92 72.22 L 409.88 72.22 L 410.84 72.21 L 411.78 72.21 L 412.72 72.2 L 413.64 72.2 L 414.56 72.2 L 415.47 72.19 L 416.36 72.19 L 417.26 72.18 L 418.14 72.18 L 419.01 72.18 L 419.88 72.17 L 420.73 72.17 L 421.58 72.16 L 422.43 72.16 L 423.26 72.16 L 424.09 72.15 L 424.91 72.15 L 425.72 72.15 L 426.53 72.15 L 427.32 72.14 L 428.12 72.14 L 428.9 72.14 L 429.68 72.13 L 430.45 72.13 L 431.22 72.13 L 431.98 72.13 L 432.73 72.12 L 433.48 72.12 L 434.22 72.12 L 434.96 72.12 L 435.69 72.12 L 436.41 72.11 L 437.13 72.11 L 437.84 72.11 L 438.55 72.11 L 439.25 72.1 L 439.95 72.1 L 440.64 72.1 L 441.33 72.1 L 442.01 72.1 L 442.69 72.1 L 443.36 72.09 L 444.02 72.09 L 444.69 72.09 L 445.34 72.09 L 446 72.09 L 446.65 72.09 L 447.29 72.08 L 447.93 72.08 L 448.56 72.08 L 449.19 72.08 L 449.82 72.08 L 450.44 72.08 L 451.06 72.08 L 451.68 72.07 L 452.29 72.07 L 452.89 72.07 L 453.49 72.07 L 454.09 72.07 L 454.69 72.07 L 455.28 72.07 L 455.87 72.07 L 456.45 72.06 L 457.03 72.06 L 457.6 72.06 L 458.18 72.06 L 458.75 72.06 L 459.31 72.06 L 459.87 72.06 L 460.43 72.06 L 460.99 72.06 L 461.54 72.06 L 462.09 72.05 L 462.64 72.05 L 463.18 72.05 L 463.72 72.05 L 464.25 72.05 L 464.79 72.05 L 465.32 72.05 L 465.84 72.05 L 466.37 72.05 L 466.89 72.05 L 467.41 72.05 L 467.92 72.05 L 468.44 72.04 L 468.95 72.04 L 469.45 72.04 L 469.96 72.04 L 470.46 72.04 L 470.96 72.04 L 471.45 72.04 L 471.95 72.04 L 472.44 72.04 L 472.93 72.04 L 473.41 72.04 L 473.9 72.04 L 474.38 72.04 L 474.86 72.04 L 475.33 72.03 L 475.81 72.03 L 476.28 72.03 L 476.75 72.03 L 477.21 72.03 L 477.68 72.03 L 478.14 72.03 L 478.6 72.03 L 479.05 72.03 L 479.51 72.03 L 479.96 72.03 L 480.41 72.03 L 480.86 72.03 L 481.31 72.03 L 481.75 72.03 L 482.19 72.03 L 482.63 72.03 L 483.07 72.03 L 483.51 72.03 L 483.94 72.02 L 484.37 72.02 L 484.8 72.02 L 485.23 72.02 L 485.66 72.02 L 486.08 72.02 L 486.5 72.02 L 486.92 72.02 L 487.34 72.02 L 487.76 72.02 L 488.17 72.02 L 488.58 72.02 L 489 72.02 L 489.4 72.02 L 489.81 72.02 L 490.22 72.02 L 490.62 72.02 L 491.02 72.02 L 491.42 72.02 L 491.82 72.02 L 492.22 72.02 L 492.61 72.02 L 493.01 72.02 L 493.4 72.02 L 493.79 72.02 L 494.18 72.01 L 494.56 72.01 L 494.95 72.01 L 495.33 72.01 L 495.72 72.01 L 496.1 72.01 L 496.47 72.01 L 496.85 72.01 L 497.23 72.01 L 497.6 72.01 L 497.98 72.01 L 498.35 72.01 L 498.72 72.01 L 499.09 72.01 L 499.45 72.01 L 499.82 72.01 L 500.18 72.01 L 500.55 72.01 L 500.91 72.01 L 501.27 72.01 L 501.63 72.01 L 501.98 72.01 L 502.34 72.01 L 502.69 72.01 L 503.05 72.01 L 503.4 72.01 L 503.75 72.01 L 504.1 72.01 L 504.45 72.01 L 504.79 72.01 L 505.14 72.01 L 505.48 72.01 L 505.82 72.01 L 506.17 72.01 L 506.51 72.01 L 506.84 72.01 L 507.18 72.01 L 507.52 72 L 507.85 72 L 508.19 72 L 508.52 72 L 508.85 72 L 509.18 72 L 509.51 72 L 509.84 72 L 510.17 72 L 510.49 72 L 510.82 72 L 511.14 72 L 511.46 72 L 511.79 72 L 512.11 72 L 512.43 72 L 512.74 72 L 513.06 72 L 513.38 72 L 513.69 72 L 514.01 72 L 514.32 72 L 514.63 72 L 514.94 72 L 515.25 72 L 515.56 72 L 515.87 72 L 516.17 72 L 516.48 72 L 516.78 72 L 517.09 72 L 517.39 72 L 517.69 72 L 517.99 72 L 518.29 72 L 518.59 72 L 518.89 72 L 519.18 72 L 519.48 72 L 519.78 72 L 520.07 72 L 520.36 72 L 520.65 72 L 520.95 72 L 521.24 72 L 521.53 72 L 521.81 72 L 522.1 72 L 522.39 72 L 522.67 72 L 522.96 72 L 523.24 72 L 523.53 72 L 523.81 72 L 524.09 72 L 524.37 72 L 524.65 72 L 524.93 72 L 525.21 72 L 525.49 72 L 525.76 72 L 526.04 72 L 526.31 71.99 L 526.59 71.99 L 526.86 71.99 L 527.13 71.99 L 527.4 71.99 L 527.68 71.99 L 527.95 71.99 L 528.21 71.99 L 528.48 71.99 L 528.75 71.99 L 529.02 71.99 L 529.28 71.99 L 529.55 71.99 L 529.81 71.99 L 530.08 71.99 L 530.34 71.99 L 530.6 71.99 L 530.87 71.99 L 531.13 71.99 L 531.39 71.99 L 531.65 71.99 L 531.91 71.99 L 532.16 71.99 L 532.42 71.99 L 532.68 71.99 L 532.93 71.99 L 533.19 71.99 L 533.44 71.99 L 533.7 71.99 L 533.95 71.99 L 534.2 71.99 L 534.46 71.99 L 534.71 71.99 L 534.96 71.99 L 535.21 71.99 L 535.46 71.99 L 535.7 71.99 L 535.95 71.99 L 536.2 71.99 L 536.45 71.99 L 536.69 71.99 L 536.94 71.99 L 537.18 71.99 L 537.42 71.99 L 537.67 71.99 L 537.91 71.99 L 538.15 71.99 L 538.39 71.99 L 538.64 71.99 L 538.88 71.99 L 539.11 71.99 L 539.35 71.99 L 539.59 71.99 L 539.83 71.99 L 540.07 71.99 L 540.3 71.99 L 540.54 71.99 L 540.77 71.99 L 541.01 71.99 L 541.24 71.99 L 541.48 71.99 L 541.71 71.99 L 541.94 71.99 L 542.17 71.99 L 542.4 71.99 L 542.64 71.99 L 542.87 71.99 L 543.09 71.99 L 543.32 71.99 L 543.55 71.99 L 543.78 71.99 L 544.01 71.99 L 544.23 71.99 L 544.46 71.99 L 544.69 71.99 L 544.91 71.99 L 545.13 71.99 L 545.36 71.99 L 545.58 71.99 L 545.81 71.99 L 546.03 71.99 L 546.25 71.99 L 546.47 71.99 L 546.69 71.99 L 546.91 71.99 L 547.13 71.99 L 547.35 71.99 L 547.57 71.99 L 547.79 71.99 L 548 71.99 L 548.22 71.99 L 548.44 71.99 L 548.65 71.99 L 548.87 71.99 L 549.09 71.99 L 549.3 71.99 L 549.51 71.99 L 549.73 71.99 L 549.94 71.99 L 550.15 71.99 L 550.37 71.99 L 550.58 71.99 L 550.79 71.99 L 551 71.99 L 551.21 71.99 L 551.42 71.99 L 551.63 71.99 L 551.84 71.99 L 552.05 71.99 L 552.25 71.99 L 552.46 71.99 L 552.67 71.99 L 552.88 71.99 L 553.08 71.99 L 553.29 71.99 L 553.49 71.99 L 553.7 71.99 L 553.9 71.99 L 554.11 71.99 L 554.31 71.99 L 554.51 71.99 L 554.71 71.99 L 554.92 71.99 L 555.12 71.99 L 555.32 71.99 L 555.52 71.99 L 555.72 71.99 L 555.92 71.99 L 556.12 71.99 L 556.32 71.99 L 556.52 71.99 L 556.72 71.99 L 556.91 71.99 L 557.11 71.99 L 557.31 71.99 L 557.5 71.99 L 557.7 71.99 L 557.9 71.99 L 558.09 71.99 L 558.29 71.99 L 558.48 71.98 L 558.67 71.98 L 558.87 71.98 L 559.06 71.98 L 559.25 71.98 L 559.45 71.98 L 559.64 71.98 L 559.83 71.98 L 560.02 71.98 L 560.21 71.98 L 560.4 71.98 L 560.59 71.98 L 560.78 71.98 L 560.97 71.98 L 561.16 71.98 L 561.35 71.98 L 561.54 71.98 L 561.73 71.98 L 561.91 71.98 L 562.1 71.98 L 562.29 71.98 L 562.47 71.98 L 562.66 71.98 L 562.84 71.98 L 563.03 71.98 L 563.21 71.98 L 563.4 71.98 L 563.58 71.98 L 563.77 71.98 L 563.95 71.98 L 564.13 71.98 L 564.32 71.98 L 564.5 71.98 L 564.68 71.98 L 564.86 71.98 L 565.04 71.98 L 565.22 71.98 L 565.4 71.98 L 565.58 71.98 L 565.76 71.98 L 565.94 71.98 L 566.12 71.98 L 566.3 71.98 L 566.48 71.98 L 566.66 71.98 L 566.84 71.98 L 567.01 71.98 L 567.19 71.98 L 567.37 71.98 L 567.54 71.98 L 567.72 71.98 L 567.89 71.98 L 568.07 71.98 L 568.25 71.98 L 568.42 71.98 L 568.59 71.98 L 568.77 71.98 L 568.94 71.98 L 569.12 71.98 L 569.29 71.98 L 569.46 71.98 L 569.63 71.98 L 569.81 71.98 L 569.98 71.98 L 570.15 71.98 L 570.32 71.98 L 570.49 71.98 L 570.66 71.98 L 570.83 71.98 L 571 71.98 L 571.17 71.98 L 571.34 71.98 L 571.51 71.98 L 571.68 71.98 L 571.85 71.98 L 572.02 71.98 L 572.18 71.98 L 572.35 71.98 L 572.52 71.98 L 572.69 71.98 L 572.85 71.98 L 573.02 71.98 L 573.18 71.98 L 573.35 71.98 L 573.52 71.98 L 573.68 71.98 L 573.85 71.98 L 574.01 71.98 L 574.17 71.98 L 574.34 71.98 L 574.5 71.98 L 574.66 71.98 L 574.83 71.98 L 574.99 71.98 L 575.15 71.98 L 575.32 71.98 L 575.48 71.98 L 575.64 71.98 L 575.8 71.98 L 575.96 71.98 L 576.12 71.98 L 576.28 71.98 L 576.44 71.98 L 576.6 71.98 L 576.76 71.98 L 576.92 71.98 L 577.08 71.98 L 577.24 71.98 L 577.4 71.98 L 577.56 71.98 L 577.72 71.98 L 577.87 71.98 L 578.03 71.98 L 578.19 71.98 L 578.35 71.98 L 578.5 71.98 L 578.66 71.98 L 578.82 71.98 L 578.97 71.98 L 579.13 71.98 L 579.28 71.98 L 579.44 71.98 L 579.59 71.98 L 579.75 71.98 L 579.9 71.98 L 580.06 71.98 L 580.21 71.98 L 580.36 71.98 L 580.52 71.98 L 580.67 71.98 L 580.82 71.98 L 580.98 71.98 L 581.13 71.98 L 581.28 71.98 L 581.43 71.98 L 581.58 71.98 L 581.74 71.98 L 581.89 71.98 L 582.04 71.98 L 582.19 71.98 L 582.34 71.98 L 582.49 71.98 L 582.64 71.98 L 582.79 71.98 L 582.94 71.98 L 583.09 71.98 L 583.24 71.98 L 583.38 71.98 L 583.53 71.98 L 583.68 71.98 L 583.83 71.98 L 583.98 71.98 L 584.13 71.98 L 584.27 71.98 L 584.42 71.98 L 584.57 71.98 L 584.71 71.98 L 584.86 71.98 L 585.01 71.98 L 585.15 71.98 L 585.3 71.98 L 585.44 71.98 L 585.59 71.98 L 585.73 71.98 L 585.88 71.98 L 586.02 71.98 L 586.17 71.98 L 586.31 71.98 L 586.46 71.98 L 586.6 71.98 L 586.74 71.98 L 586.89 71.98 L 587.03 71.98 L 587.17 71.98 L 587.31 71.98 L 587.46 71.98 L 587.6 71.98 L 587.74 71.98 L 587.88 71.98 L 588.02 71.98 L 588.17 71.98 L 588.31 71.98 L 588.45 71.98 L 588.59 71.98 L 588.73 71.98 L 588.87 71.98 L 589.01 71.98 L 589.15 71.98 L 589.29 71.98 L 589.43 71.98 L 589.57 71.98 L 589.71 71.98 L 589.84 71.98 L 589.98 71.98 L 590.12 71.98 L 590.26 71.98 L 590.4 71.98 L 590.54 71.98 L 590.67 71.98 L 590.81 71.98 L 590.95 71.98 L 591.08 71.98 L 591.22 71.98 L 591.36 71.98 L 591.49 71.98 L 591.63 71.98 L 591.77 71.98 L 591.9 71.98 L 592.04 71.98 L 592.17 71.98 L 592.31 71.98 L 592.44 71.98 L 592.58 71.98 L 592.71 71.98 L 592.85 71.98 L 592.98 71.98 L 593.11 71.98 L 593.25 71.98 L 593.38 71.98 L 593.52 71.98 L 593.65 71.98 L 593.78 71.98 L 593.91 71.98 L 594.05 71.98 L 594.18 71.98 L 594.31 71.98 L 594.44 71.98 L 594.58 71.98 L 594.71 71.98 L 594.84 71.98 L 594.97 71.98 L 595.1 71.98 L 595.23 71.98 L 595.36 71.98 L 595.49 71.98 L 595.62 71.98 L 595.75 71.98 L 595.88 71.98 L 596.01 71.98 L 596.14 71.98 L 596.27 71.98 L 596.4 71.98 L 596.53 71.98 L 596.66 71.98 L 596.79 71.98 L 596.92 71.98 L 597.05 71.98 L 597.17 71.98 L 597.3 71.98 L 597.43 71.98 L 597.56 71.98 L 597.69 71.98 L 597.81 71.98 L 597.94 71.98 L 598.07 71.98 L 598.19 71.98 L 598.32 71.98 L 598.45 71.98 L 598.57 71.98 L 598.7 71.98 L 598.83 71.98 L 598.95 71.98 L 599.08 71.98 L 599.2 71.98 L 599.33 71.98 L 599.45 71.98 L 599.58 71.98 L 599.7 71.98 L 599.83 71.98 L 599.95 71.98 L 600.08 71.98 L 600.2 71.98 L 600.33 71.98 L 600.45 71.98 L 600.57 71.98 L 600.7 71.98 L 600.82 71.98 L 600.94 71.98 L 601.07 71.98 L 601.19 71.98 L 601.31 71.98 L 601.43 71.98 L 601.56 71.98 L 601.68 71.98 L 601.8 71.98 L 601.92 71.98 L 602.04 71.98 L 602.17 71.98 L 602.29 71.98 L 602.41 71.98 L 602.53 71.98 L 602.65 71.98 L 602.77 71.98 L 602.89 71.98 L 603.01 71.98 L 603.13 71.98 L 603.25 71.98 L 603.37 71.98 L 603.49 71.98 L 603.61 71.98 L 603.73 71.98 L 603.85 71.98 L 603.97 71.98 L 604.09 71.98 L 604.21 71.98 L 604.33 71.98 L 604.45 71.98 L 604.56 71.98 L 604.68 71.98 L 604.8 71.98 L 604.92 71.98 L 605.04 71.98 L 605.15 71.98 L 605.27 71.98 L 605.39 71.98 L 605.51 71.98 L 605.62 71.98 L 605.74 71.98 L 605.86 71.98 L 605.97 71.98 L 606.09 71.98 L 606.21 71.98 L 606.32 71.98 L 606.44 71.98 L 606.55 71.98 L 606.67 71.98 L 606.79 71.98 L 606.9 71.98 L 607.02 71.98 L 607.13 71.98 L 607.25 71.98 L 607.36 71.98 L 607.48 71.98 L 607.59 71.98 L 607.71 71.98 L 607.82 71.98 L 607.93 71.98 L 608.05 71.98 L 608.16 71.98 L 608.28 71.98 L 608.39 71.98 L 608.5 71.98 L 608.62 71.98 L 608.73 71.98 L 608.84 71.98 L 608.96 71.98 L 609.07 71.98 L 609.18 71.98 L 609.29 71.98 L 609.41 71.98 L 609.52 71.98 L 609.63 71.98 L 609.74 71.98 L 609.86 71.98 L 609.97 71.98 L 610.08 71.98 L 610.19 71.98 L 610.3 71.98 L 610.41 71.98 L 610.52 71.98 L 610.64 71.98 L 610.75 71.98 L 610.86 71.98 L 610.97 71.98 L 611.08 71.98 L 611.19 71.98 L 611.3 71.98 L 611.41 71.98 L 611.52 71.98 L 611.63 71.98 L 611.74 71.98 L 611.85 71.98 L 611.96 71.98 L 612.07 71.98 L 612.18 71.98 L 612.28 71.98 L 612.39 71.98 L 612.5 71.98 L 612.61 71.98 L 612.72 71.98 L 612.83 71.98 L 612.94 71.98 L 613.04 71.98 L 613.15 71.98 L 613.26 71.98 L 613.37 71.98 L 613.48 71.98 L 613.58 71.98 L 613.69 71.98 L 613.8 71.98 L 613.9 71.98 L 614.01 71.98 L 614.12 71.98 L 614.23 71.98 L 614.33 71.98 L 614.44 71.98 L 614.54 71.98 L 614.65 71.98 L 614.76 71.98 L 614.86 71.98 L 614.97 71.98 L 615.07 71.98 L 615.18 71.98 L 615.29 71.98 L 615.39 71.98 L 615.5 71.98 L 615.6 71.98 L 615.71 71.98 L 615.81 71.98 L 615.92 71.98 L 616.02 71.98 L 616.13 71.98 L 616.23 71.98 L 616.34 71.98 L 616.44 71.98 L 616.54 71.98 L 616.65 71.98 L 616.75 71.98 L 616.86 71.98 L 616.96 71.98 L 617.06 71.98 L 617.17 71.98 L 617.27 71.98 L 617.37 71.98 L 617.48 71.98 L 617.58 71.98 L 617.68 71.98 L 617.78 71.98 L 617.89 71.98 L 617.99 71.98 L 618.09 71.98 L 618.19 71.98 L 618.3 71.98 L 618.4 71.98 L 618.5 71.98 L 618.6 71.98 L 618.7 71.98 L 618.81 71.98 L 618.91 71.98 L 619.01 71.98 L 619.11 71.98 L 619.21 71.98 L 619.31 71.98 L 619.41 71.98 L 619.51 71.98 L 619.61 71.98 L 619.72 71.98 L 619.82 71.98 L 619.92 71.98 L 620.02 71.98 L 620.12 71.98 L 620.22 71.98 L 620.32 71.98 L 620.42 71.98 L 620.52 71.98 L 620.62 71.98 L 620.72 71.98 L 620.82 71.98 L 620.91 71.98 L 621.01 71.98 L 621.11 71.98 L 621.21 71.98 L 621.31 71.98 L 621.41 71.98 L 621.51 71.98 L 621.61 71.98 L 621.71 71.98 L 621.8 71.98 L 621.9 71.98 L 622 71.98 L 622.1 71.98 L 622.2 71.98 L 622.29 71.98 L 622.39 71.98 L 622.49 71.98 L 622.59 71.98 L 622.69 71.98 L 622.78 71.98 L 622.88 71.98 L 622.98 71.98 L 623.07 71.98 L 623.17 71.98 L 623.27 71.98 L 623.36 71.98 L 623.46 71.98 L 623.56 71.98 L 623.65 71.98 L 623.75 71.98 L 623.85 71.98 L 623.94 71.98 L 624.04 71.98 L 624.14 71.98 L 624.23 71.98 L 624.33 71.98 L 624.42 71.98 L 624.52 71.98 L 624.61 71.98 L 624.71 71.98 L 624.8 71.98 L 624.9 71.98 L 624.99 71.98 L 625.09 71.98 L 625.18 71.98 L 625.28 71.98 L 625.37 71.98 L 625.47 71.98 L 625.56 71.98 L 625.66 71.98 L 625.75 71.98 L 625.85 71.98 L 625.94 71.98 L 626.03 71.98 L 626.13 71.98 L 626.22 71.98 L 626.32 71.98 L 626.41 71.98 L 626.5 71.98 L 626.6 71.98 L 626.69 71.98 L 626.78 71.98 L 626.88 71.98 L 626.97 71.98 L 627.06 71.98 L 627.16 71.98 L 627.25 71.98 L 627.34 71.98 L 627.43 71.98 L 627.53 71.98 L 627.62 71.98 L 627.71 71.98 L 627.8 71.98 L 627.9 71.98 L 627.99 71.98 L 628.08 71.98 L 628.17 71.98 L 628.26 71.98 L 628.36 71.98 L 628.45 71.98 L 628.54 71.98 L 628.63 71.98 L 628.72 71.98 L 628.81 71.98 L 628.9 71.98 L 628.99 71.98 L 629.09 71.98 L 629.18 71.98 L 629.27 71.98 L 629.36 71.98 L 629.45 71.98 L 629.54 71.98 L 629.63 71.98 L 629.72 71.98 L 629.81 71.98 L 629.9 71.98 L 629.99 71.98 L 630.08 71.98 L 630.17 71.98 L 630.26 71.98 L 630.35 71.98 L 630.44 71.98 L 630.53 71.98 L 630.62 71.98 L 630.71 71.98 L 630.8 71.98 L 630.89 71.98 L 630.98 71.98 L 631.07 71.98 L 631.15 71.98 L 631.24 71.98 L 631.33 71.98 L 631.42 71.98 L 631.51 71.98 L 631.6 71.98 L 631.69 71.98 L 631.78 71.98 L 631.86 71.98 L 631.95 71.98 L 632.04 71.98 L 632.13 71.98 L 632.22 71.98 L 632.3 71.98 L 632.39 71.98 L 632.48 71.98 L 632.57 71.98 L 632.65 71.98 L 632.74 71.98 L 632.83 71.98 L 632.92 71.98 L 633 71.98 L 633.09 71.98 L 633.18 71.98 L 633.27 71.98 L 633.35 71.98 L 633.44 71.98 L 633.53 71.98 L 633.61 71.98 L 633.7 71.98 L 633.79 71.98 L 633.87 71.98 L 633.96 71.98 L 634.04 71.98 L 634.13 71.98 L 634.22 71.98 L 634.3 71.98 L 634.39 71.98 L 634.47 71.98 L 634.56 71.98 L 634.65 71.98 L 634.73 71.98 L 634.82 71.98 L 634.9 71.98 L 634.99 71.98 L 635.07 71.98 L 635.16 71.98 L 635.24 71.98 L 635.33 71.98 L 635.41 71.98 L 635.5 71.98 L 635.58 71.98 L 635.67 71.98 L 635.75 71.98 L 635.84 71.98 L 635.92 71.98 L 636.01 71.98 L 636.09 71.98 L 636.18 71.98 L 636.26 71.98 L 636.34 71.98 L 636.43 71.98 L 636.51 71.98 L 636.6 71.98 L 636.68 71.98 L 636.76 71.98 L 636.85 71.98 L 636.93 71.98 L 637.02 71.98 L 637.1 71.98 L 637.18 71.98 L 637.27 71.98 L 637.35 71.98 L 637.43 71.98 L 637.51 71.98 L 637.6 71.98 L 637.68 71.98 L 637.76 71.98 L 637.85 71.98 L 637.93 71.98 L 638.01 71.98 L 638.09 71.98 L 638.18 71.98 L 638.26 71.98 L 638.34 71.98 L 638.42 71.98 L 638.51 71.98 L 638.59 71.98 L 638.67 71.98 L 638.75 71.98 L 638.83 71.98 L 638.92 71.98 L 639 71.98 L 639.08 71.98 L 639.16 71.98 L 639.24 71.98 L 639.32 71.98 L 639.41 71.98 L 639.49 71.98 L 639.57 71.98 L 639.65 71.98 L 639.73 71.98 L 639.81 71.98 L 639.89 71.98 L 639.97 71.98 L 640.06 71.98 L 640.14 71.98 L 640.22 71.98 L 640.3 71.98 L 640.38 71.98 L 640.46 71.98 L 640.54 71.98 L 640.62 71.98 L 640.7 71.98 L 640.78 71.98 L 640.86 71.98 L 640.94 71.98 L 641.02 71.98 L 641.1 71.98 L 641.18 71.98 L 641.26 71.98 L 641.34 71.98 L 641.42 71.98 L 641.5 71.98 L 641.58 71.98 L 641.66 71.98 L 641.74 71.98 L 641.82 71.98 L 641.9 71.98 L 641.98 71.98 L 642.05 71.98 L 642.13 71.98 L 642.21 71.98 L 642.29 71.98 L 642.37 71.98 L 642.45 71.98 L 642.53 71.98 L 642.61 71.98 L 642.69 71.98 L 642.76 71.98 L 642.84 71.98 L 642.92 71.98 L 643 71.98 L 643.08 71.98 L 643.16 71.98 L 643.23 71.98 L 643.31 71.98 L 643.39 71.98 L 643.47 71.98 L 643.55 71.98 L 643.62 71.98 L 643.7 71.98 L 643.78 71.98 L 643.86 71.98 L 643.93 71.98 L 644.01 71.98 L 644.09 71.98 L 644.17 71.98 L 644.24 71.98 L 644.32 71.98 L 644.4 71.98 L 644.48 71.98 L 644.55 71.98 L 644.63 71.98 L 644.71 71.98 L 644.78 71.98 L 644.86 71.98 L 644.94 71.98 L 645.01 71.98 L 645.09 71.98 L 645.17 71.98 L 645.24 71.98 L 645.32 71.98 L 645.4 71.98 L 645.47 71.98 L 645.55 71.98 L 645.63 71.98 L 645.7 71.98 L 645.78 71.98 L 645.85 71.98 L 645.93 71.98 L 646.01 71.98 L 646.08 71.98 L 646.16 71.98 L 646.23 71.98 L 646.31 71.98 L 646.38 71.98 L 646.46 71.98 L 646.53 71.98 L 646.61 71.98 L 646.69 71.98 L 646.76 71.98 L 646.84 71.98 L 646.91 71.98 L 646.99 71.98 L 647.06 71.98 L 647.14 71.98 L 647.21 71.98 L 647.29 71.98 L 647.36 71.98 L 647.43 71.98 L 647.51 71.98 L 647.58 71.98 L 647.66 71.98 L 647.73 71.98 L 647.81 71.98 L 647.88 71.98 L 647.96 71.98 L 648.03 71.98 L 648.1 71.98 L 648.18 71.98 L 648.25 71.98 L 648.33 71.98 L 648.4 71.98 L 648.47 71.98 L 648.55 71.98 L 648.62 71.98 L 648.7 71.98 L 648.77 71.98 L 648.84 71.98 L 648.92 71.98 L 648.99 71.98 L 649.06 71.98 L 649.14 71.98 L 649.21 71.98 L 649.28 71.98 L 649.36 71.98 L 649.43 71.98 L 649.5 71.98 L 649.58 71.98 L 649.65 71.98 L 649.72 71.98 L 649.79 71.98 L 649.87 71.98 L 649.94 71.98 L 650.01 71.98 L 650.09 71.98 L 650.16 71.98 L 650.23 71.98 L 650.3 71.98 L 650.38 71.98 L 650.45 71.98 L 650.52 71.98 L 650.59 71.98 L 650.66 71.98 L 650.74 71.98 L 650.81 71.98 L 650.88 71.98 L 650.95 71.98 L 651.02 71.98 L 651.1 71.98 L 651.17 71.98 L 651.24 71.98 L 651.31 71.98 L 651.38 71.98 L 651.45 71.98 L 651.53 71.98 L 651.6 71.98 L 651.67 71.98 L 651.74 71.98 L 651.81 71.98 L 651.88 71.98 L 651.95 71.98 L 652.02 71.98 L 652.1 71.98 L 652.17 71.98 L 652.24 71.98 L 652.31 71.98 L 652.38 71.98 L 652.45 71.98 L 652.52 71.98 L 652.59 71.98 L 652.66 71.98 L 652.73 71.98 L 652.8 71.98 L 652.87 71.98 L 652.94 71.98 L 653.01 71.98 L 653.08 71.98 L 653.16 71.98 L 653.23 71.98 L 653.3 71.98 L 653.37 71.98 L 653.44 71.98 L 653.51 71.98 L 653.58 71.98 L 653.65 71.98 L 653.72 71.98 L 653.78 71.98 L 653.85 71.98 L 653.92 71.98 L 653.99 71.98 L 654.06 71.98 L 654.13 71.98 L 654.2 71.98 L 654.27 71.98 L 654.34 71.98 L 654.41 71.98 L 654.48 71.98 L 654.55 71.98 L 654.62 71.98 L 654.69 71.98 L 654.76 71.98 L 654.83 71.98 L 654.89 71.98 L 654.96 71.98 L 655.03 71.98 L 655.1 71.98 L 655.17 71.98 L 655.24 71.98 L 655.31 71.98 L 655.38 71.98 L 655.44 71.98 L 655.51 71.98 L 655.58 71.98 L 655.65 71.98 L 655.72 71.98 L 655.79 71.98 L 655.85 71.98 L 655.92 71.98 L 655.99 71.98 L 656.06 71.98 L 656.13 71.98 L 656.19 71.98 L 656.26 71.98 L 656.33 71.98 L 656.4 71.98 L 656.47 71.98 L 656.53 71.98 L 656.6 71.98 L 656.67 71.98 L 656.74 71.98 L 656.8 71.98 L 656.87 71.98 L 656.94 71.98 L 657.01 71.98 L 657.07 71.98 L 657.14 71.98 L 657.21 71.98 L 657.28 71.98 L 657.34 71.98 L 657.41 71.98 L 657.48 71.98 L 657.54 71.98 L 657.61 71.98 L 657.68 71.98 L 657.75 71.98 L 657.81 71.98 L 657.88 71.98 L 657.95 71.98 L 658.01 71.98 L 658.08 71.98 L 658.15 71.98 L 658.21 71.98 L 658.28 71.98 L 658.34 71.98 L 658.41 71.98 L 658.48 71.98 L 658.54 71.98 L 658.61 71.98 L 658.68 71.98 L 658.74 71.98 L 658.81 71.98 L 658.87 71.98 L 658.94 71.98 L 659.01 71.98 L 659.07 71.98 L 659.14 71.98 L 659.2 71.98 L 659.27 71.98 L 659.34 71.98 L 659.4 71.98 L 659.47 71.98 L 659.53 71.98 L 659.6 71.98 L 659.66 71.98 L 659.73 71.98 L 659.79 71.98 L 659.86 71.98 L 659.93 71.98 L 659.99 71.98 L 660.06 71.98 L 660.12 71.98 L 660.19 71.98 L 660.25 71.98 L 660.32 71.98 L 660.38 71.98 L 660.45 71.98 L 660.51 71.98 L 660.58 71.98 L 660.64 71.98 L 660.71 71.98 L 660.77 71.98 L 660.84 71.98 L 660.9 71.98 L 660.96 71.98 L 661.03 71.98 L 661.09 71.98 L 661.16 71.98 L 661.22 71.98 L 661.29 71.98 L 661.35 71.98 L 661.42 71.98 L 661.48 71.98 L 661.54 71.98 L 661.61 71.98 L 661.67 71.98 L 661.74 71.98 L 661.8 71.98 L 661.86 71.98 L 661.93 71.98 L 661.99 71.98 L 662.06 71.98 L 662.12 71.98 L 662.18 71.98 L 662.25 71.98 L 662.31 71.98 L 662.37 71.98 L 662.44 71.98 L 662.5 71.98 L 662.56 71.98 L 662.63 71.98 L 662.69 71.98 L 662.75 71.98 L 662.82 71.98 L 662.88 71.98 L 662.94 71.98 L 663.01 71.98 L 663.07 71.98 L 663.13 71.98 L 663.2 71.98 L 663.26 71.98 L 663.32 71.98 L 663.39 71.98 L 663.45 71.98 L 663.51 71.98 L 663.57 71.98 L 663.64 71.98 L 663.7 71.98 L 663.76 71.98 L 663.83 71.98 L 663.89 71.98 L 663.95 71.98 L 664.01 71.98 L 664.08 71.98 L 664.14 71.98 L 664.2 71.98 L 664.26 71.98 L 664.33 71.98 L 664.39 71.98 L 664.45 71.98 L 664.51 71.98 L 664.57 71.98 L 664.64 71.98 L 664.7 71.98 L 664.76 71.98 L 664.82 71.98 L 664.88 71.98 L 664.95 71.98 L 665.01 71.98 L 665.07 71.98 L 665.13 71.98 L 665.19 71.98 L 665.25 71.98 L 665.32 71.98 L 665.38 71.98 L 665.44 71.98 L 665.5 71.98 L 665.56 71.98 L 665.62 71.98 L 665.69 71.98 L 665.75 71.98 L 665.81 71.98 L 665.87 71.98 L 665.93 71.98 L 665.99 71.98 L 666.05 71.98 L 666.11 71.98 L 666.18 71.98 L 666.24 71.98 L 666.3 71.98 L 666.36 71.98 L 666.42 71.98 L 666.48 71.98 L 666.54 71.98 L 666.6 71.98 L 666.66 71.98 L 666.72 71.98 L 666.78 71.98 L 666.84 71.98 L 666.9 71.98 L 666.97 71.98 L 667.03 71.98 L 667.09 71.98 L 667.15 71.98 L 667.21 71.98 L 667.27 71.98 L 667.33 71.98 L 667.39 71.98 L 667.45 71.98 L 667.51 71.98 L 667.57 71.98 L 667.63 71.98 L 667.69 71.98 L 667.75 71.98 L 667.81 71.98 L 667.87 71.98 L 667.93 71.98 L 667.99 71.98 L 668.05 71.98 L 668.11 71.98 L 668.17 71.98 L 668.23 71.98 L 668.29 71.98 L 668.35 71.98 L 668.41 71.98 L 668.47 71.98 L 668.53 71.98 L 668.59 71.98 L 668.65 71.98 L 668.7 71.98 L 668.76 71.98 L 668.82 71.98 L 668.88 71.98 L 668.94 71.98 L 669 71.98 L 669.06 71.98 L 669.12 71.98 L 669.18 71.98 L 669.24 71.98 L 669.3 71.98 L 669.36 71.98 L 669.42 71.98 L 669.47 71.98 L 669.53 71.98 L 669.59 71.98 L 669.65 71.98 L 669.71 71.98 L 669.77 71.98 L 669.83 71.98 L 669.89 71.98 L 669.94 71.98 L 670 71.98 L 670.06 71.98 L 670.12 71.98 L 670.18 71.98 L 670.24 71.98 L 670.3 71.98 L 670.35 71.98 L 670.41 71.98 L 670.47 71.98 L 670.53 71.98 L 670.59 71.98 L 670.65 71.98 L 670.7 71.98 L 670.76 71.98 L 670.82 71.98 L 670.88 71.98 L 670.94 71.98 L 670.99 71.98 L 671.05 71.98 L 671.11 71.98 L 671.17 71.98 L 671.23 71.98 L 671.28 71.98 L 671.34 71.98 L 671.4 71.98 L 671.46 71.98 L 671.51 71.98 L 671.57 71.98 L 671.63 71.98 L 671.69 71.98 L 671.74 71.98 L 671.8 71.98 L 671.86 71.98 L 671.92 71.98 L 671.97 71.98 L 672.03 71.98 L 672.09 71.98 L 672.15 71.98 L 672.2 71.98 L 672.26 71.98 L 672.32 71.98 L 672.37 71.98 L 672.43 71.98 L 672.49 71.98 L 672.55 71.98 L 672.6 71.98 L 672.66 71.98 L 672.72 71.98 L 672.77 71.98 L 672.83 71.98 L 672.89 71.98 L 672.94 71.98 L 673 71.98 L 673.06 71.98 L 673.11 71.98 L 673.17 71.98 L 673.23 71.98 L 673.28 71.98 L 673.34 71.98 L 673.4 71.98 L 673.45 71.98 L 673.51 71.98 L 673.57 71.98 L 673.62 71.98 L 673.68 71.98 L 673.74 71.98 L 673.79 71.98 L 673.85 71.98 L 673.9 71.98 L 673.96 71.98 L 674.02 71.98 L 674.07 71.98 L 674.13 71.98 L 674.18 71.98 L 674.24 71.98 L 674.3 71.98 L 674.35 71.98 L 674.41 71.98 L 674.46 71.98 L 674.52 71.98 L 674.58 71.98 L 674.63 71.98 L 674.69 71.98 L 674.74 71.98 L 674.8 71.98 L 674.85 71.98 L 674.91 71.98 L 674.97 71.98 L 675.02 71.98 L 675.08 71.98 L 675.13 71.98 L 675.19 71.98 L 675.24 71.98 L 675.3 71.98 L 675.35 71.98 L 675.41 71.98 L 675.46 71.98 L 675.52 71.98 L 675.58 71.98 L 675.63 71.98 L 675.69 71.98 L 675.74 71.98 L 675.8 71.98 L 675.85 71.98 L 675.91 71.98 L 675.96 71.98 L 676.02 71.98 L 676.07 71.98 L 676.13 71.98 L 676.18 71.98 L 676.23 71.98 L 676.29 71.98 L 676.34 71.98 L 676.4 71.98 L 676.45 71.98 L 676.51 71.98 L 676.56 71.98 L 676.62 71.98 L 676.67 71.98 L 676.73 71.98 L 676.78 71.98 L 676.84 71.98 L 676.89 71.98 L 676.94 71.98 L 677 71.98 L 677.05 71.98 L 677.11 71.98 L 677.16 71.98 L 677.22 71.98 L 677.27 71.98 L 677.32 71.98 L 677.38 71.98 L 677.43 71.98 L 677.49 71.98 L 677.54 71.98 L 677.59 71.98 L 677.65 71.98 L 677.7 71.98 L 677.76 71.98 L 677.81 71.98 L 677.86 71.98 L 677.92 71.98 L 677.97 71.98 L 678.03 71.98 L 678.08 71.98 L 678.13 71.98 L 678.19 71.98 L 678.24 71.98 L 678.29 71.98 L 678.35 71.98 L 678.4 71.98 L 678.46 71.98 L 678.51 71.98 L 678.56 71.98 L 678.62 71.98 L 678.67 71.98 L 678.72 71.98 L 678.78 71.98 L 678.83 71.98 L 678.88 71.98 L 678.94 71.98 L 678.99 71.98 L 679.04 71.98 L 679.09 71.98 L 679.15 71.98 L 679.2 71.98 L 679.25 71.98 L 679.31 71.98 L 679.36 71.98 L 679.41 71.98 L 679.47 71.98 L 679.52 71.98 L 679.57 71.98 L 679.62 71.98 L 679.68 71.98 L 679.73 71.98 L 679.78 71.98 L 679.84 71.98 L 679.89 71.98 L 679.94 71.98 L 679.99 71.98 L 680.05 71.98 L 680.1 71.98 L 680.15 71.98 L 680.2 71.98 L 680.26 71.98 L 680.31 71.98 L 680.36 71.98 L 680.41 71.98 L 680.47 71.98 L 680.52 71.98 L 680.57 71.98 L 680.62 71.98 L 680.68 71.98 L 680.73 71.98 L 680.78 71.98 L 680.83 71.98 L 680.88 71.98 L 680.94 71.98 L 680.99 71.98 L 681.04 71.98 L 681.09 71.98 L 681.14 71.98 L 681.2 71.98 L 681.25 71.98 L 681.3 71.98 L 681.35 71.98 L 681.4 71.98 L 681.46 71.98 L 681.51 71.98 L 681.56 71.98 L 681.61 71.98 L 681.66 71.98 L 681.71 71.98 L 681.77 71.98 L 681.82 71.98 L 681.87 71.98 L 681.92 71.98 L 681.97 71.98 L 682.02 71.98 L 682.08 71.98 L 682.13 71.98 L 682.18 71.98 L 682.23 71.98 L 682.28 71.98 L 682.33 71.98 L 682.38 71.98 L 682.44 71.98 L 682.49 71.98 L 682.54 71.98 L 682.59 71.98 L 682.64 71.98 L 682.69 71.98 L 682.74 71.98 L 682.79 71.98 L 682.84 71.98 L 682.9 71.98 L 682.95 71.98 L 683 71.98 L 683.05 71.98 L 683.1 71.98 L 683.15 71.98 L 683.2 71.98 L 683.25 71.98 L 683.3 71.98 L 683.35 71.98 L 683.4 71.98 L 683.45 71.98 L 683.51 71.98 L 683.56 71.98 L 683.61 71.98 L 683.66 71.98 L 683.71 71.98 L 683.76 71.98 L 683.81 71.98 L 683.86 71.98 L 683.91 71.98 L 683.96 71.98 L 684.01 71.98 L 684.06 71.98 L 684.11 71.98 L 684.16 71.98 L 684.21 71.98 L 684.26 71.98 L 684.31 71.98 L 684.36 71.98 L 684.41 71.98 L 684.46 71.98 L 684.51 71.98 L 684.56 71.98 L 684.61 71.98 L 684.66 71.98 L 684.71 71.98 L 684.76 71.98 L 684.81 71.98 L 684.86 71.98 L 684.91 71.98 L 684.96 71.98 L 685.01 71.98 L 685.06 71.98 L 685.11 71.98 L 685.16 71.98 L 685.21 71.98 L 685.26 71.98 L 685.31 71.98 L 685.36 71.98 L 685.41 71.98 L 685.46 71.98 L 685.51 71.98 L 685.56 71.98 L 685.61 71.98 L 685.66 71.98 L 685.71 71.98 L 685.76 71.98 L 685.81 71.98 L 685.86 71.98 L 685.91 71.98 L 685.96 71.98 L 686.01 71.98 L 686.06 71.98 L 686.1 71.98 L 686.15 71.98 L 686.2 71.98 L 686.25 71.98 L 686.3 71.98 L 686.35 71.98 L 686.4 71.98 L 686.45 71.98 L 686.5 71.98 L 686.55 71.98 L 686.6 71.98 L 686.64 71.98 L 686.69 71.98 L 686.74 71.98 L 686.79 71.98 L 686.84 71.98 L 686.89 71.98 L 686.94 71.98 L 686.99 71.98 L 687.04 71.98 L 687.08 71.98 L 687.13 71.98 L 687.18 71.98 L 687.23 71.98 L 687.28 71.98 L 687.33 71.98 L 687.38 71.98 L 687.43 71.98 L 687.47 71.98 L 687.52 71.98 L 687.57 71.98 L 687.62 71.98 L 687.67 71.98 L 687.72 71.98 L 687.77 71.98 L 687.81 71.98 L 687.86 71.98 L 687.91 71.98 L 687.96 71.98 L 688.01 71.98 L 688.06 71.98 L 688.1 71.98 L 688.15 71.98 L 688.2 71.98 L 688.25 71.98 L 688.3 71.98 L 688.34 71.98 L 688.39 71.98 L 688.44 71.98 L 688.49 71.98 L 688.54 71.98 L 688.58 71.98 L 688.63 71.98 L 688.68 71.98 L 688.73 71.98 L 688.78 71.98 L 688.82 71.98 L 688.87 71.98 L 688.92 71.98 L 688.97 71.98 L 689.02 71.98 L 689.06 71.98 L 689.11 71.98 L 689.16 71.98 L 689.21 71.98 L 689.25 71.98 L 689.3 71.98 L 689.35 71.98 L 689.4 71.98 L 689.44 71.98 L 689.49 71.98 L 689.54 71.98 L 689.59 71.98 L 689.63 71.98 L 689.68 71.98 L 689.73 71.98 L 689.78 71.98 L 689.82 71.98 L 689.87 71.98 L 689.92 71.98 L 689.97 71.98 L 690.01 71.98 L 690.06 71.98 L 690.11 71.98 L 690.15 71.98 L 690.2 71.98 L 690.25 71.98 L 690.3 71.98 L 690.34 71.98 L 690.39 71.98 L 690.44 71.98 L 690.48 71.98 L 690.53 71.98 L 690.58 71.98 L 690.63 71.98 L 690.67 71.98 L 690.72 71.98 L 690.77 71.98 L 690.81 71.98 L 690.86 71.98 L 690.91 71.98 L 690.95 71.98 L 691 71.98 L 691.05 71.98 L 691.09 71.98 L 691.14 71.98 L 691.19 71.98 L 691.23 71.98 L 691.28 71.98 L 691.33 71.98 L 691.37 71.98 L 691.42 71.98 L 691.47 71.98 L 691.51 71.98 L 691.56 71.98 L 691.61 71.98 L 691.65 71.98 L 691.7 71.98 L 691.75 71.98 L 691.79 71.98 L 691.84 71.98 L 691.88 71.98 L 691.93 71.98 L 691.98 71.98 L 692.02 71.98 L 692.07 71.98 L 692.12 71.98 L 692.16 71.98 L 692.21 71.98 L 692.25 71.98 L 692.3 71.98 L 692.35 71.98 L 692.39 71.98 L 692.44 71.98 L 692.48 71.98 L 692.53 71.98 L 692.58 71.98 L 692.62 71.98 L 692.67 71.98 L 692.71 71.98 L 692.76 71.98 L 692.81 71.98 L 692.85 71.98 L 692.9 71.98 L 692.94 71.98 L 692.99 71.98 L 693.04 71.98 L 693.08 71.98 L 693.13 71.98 L 693.17 71.98 L 693.22 71.98 L 693.26 71.98 L 693.31 71.98 L 693.36 71.98 L 693.4 71.98 L 693.45 71.98 L 693.49 71.98 L 693.54 71.98 L 693.58 71.98 L 693.63 71.98" stroke="#ec4899" stroke-width="3.47" fill="none"  stroke-linejoin="round" stroke-linecap="round"/></g><line x1="71.67" y1="45" x2="71.67" y2="291" stroke="#71717a" stroke-width="1.11"/><line x1="693.67" y1="45" x2="693.67" y2="291" stroke="#71717a" stroke-width="1.11"/><line x1="71.67" y1="45" x2="693.67" y2="45" stroke="#71717a" stroke-width="1.11"/><line x1="71.67" y1="291" x2="693.67" y2="291" stroke="#71717a" stroke-width="1.11"/><line data-xy-tick="minor" x1="71.67" y1="291" x2="71.67" y2="293.78" stroke="#71717a" stroke-width="0.83"/><line data-xy-tick="minor" x1="88.64" y1="291" x2="88.64" y2="293.78" stroke="#71717a" stroke-width="0.83"/><line data-xy-tick="minor" x1="102.98" y1="291" x2="102.98" y2="293.78" stroke="#71717a" stroke-width="0.83"/><line data-xy-tick="minor" x1="115.41" y1="291" x2="115.41" y2="293.78" stroke="#71717a" stroke-width="0.83"/><line data-xy-tick="minor" x1="126.37" y1="291" x2="126.37" y2="293.78" stroke="#71717a" stroke-width="0.83"/><line data-xy-tick="minor" x1="238.4" y1="291" x2="238.4" y2="293.78" stroke="#71717a" stroke-width="0.83"/><line data-xy-tick="minor" x1="265.16" y1="291" x2="265.16" y2="293.78" stroke="#71717a" stroke-width="0.83"/><line data-xy-tick="minor" x1="285.93" y1="291" x2="285.93" y2="293.78" stroke="#71717a" stroke-width="0.83"/><line data-xy-tick="minor" x1="302.89" y1="291" x2="302.89" y2="293.78" stroke="#71717a" stroke-width="0.83"/><line data-xy-tick="minor" x1="317.24" y1="291" x2="317.24" y2="293.78" stroke="#71717a" stroke-width="0.83"/><line data-xy-tick="minor" x1="329.66" y1="291" x2="329.66" y2="293.78" stroke="#71717a" stroke-width="0.83"/><line data-xy-tick="minor" x1="340.62" y1="291" x2="340.62" y2="293.78" stroke="#71717a" stroke-width="0.83"/><line data-xy-tick="minor" x1="414.92" y1="291" x2="414.92" y2="293.78" stroke="#71717a" stroke-width="0.83"/><line data-xy-tick="minor" x1="452.65" y1="291" x2="452.65" y2="293.78" stroke="#71717a" stroke-width="0.83"/><line data-xy-tick="minor" x1="479.42" y1="291" x2="479.42" y2="293.78" stroke="#71717a" stroke-width="0.83"/><line data-xy-tick="minor" x1="517.15" y1="291" x2="517.15" y2="293.78" stroke="#71717a" stroke-width="0.83"/><line data-xy-tick="minor" x1="531.49" y1="291" x2="531.49" y2="293.78" stroke="#71717a" stroke-width="0.83"/><line data-xy-tick="minor" x1="543.92" y1="291" x2="543.92" y2="293.78" stroke="#71717a" stroke-width="0.83"/><line data-xy-tick="minor" x1="554.88" y1="291" x2="554.88" y2="293.78" stroke="#71717a" stroke-width="0.83"/><line data-xy-tick="minor" x1="629.18" y1="291" x2="629.18" y2="293.78" stroke="#71717a" stroke-width="0.83"/><line data-xy-tick="minor" x1="666.9" y1="291" x2="666.9" y2="293.78" stroke="#71717a" stroke-width="0.83"/><line data-xy-tick="minor" x1="693.67" y1="291" x2="693.67" y2="293.78" stroke="#71717a" stroke-width="0.83"/><line x1="200.67" y1="291" x2="200.67" y2="295.86" stroke="#3f3f46" stroke-width="1.11"/><line x1="350.43" y1="291" x2="350.43" y2="295.86" stroke="#3f3f46" stroke-width="1.11"/><line x1="500.18" y1="291" x2="500.18" y2="295.86" stroke="#3f3f46" stroke-width="1.11"/><line x1="564.68" y1="291" x2="564.68" y2="295.86" stroke="#3f3f46" stroke-width="1.11"/><line x1="66.81" y1="291" x2="71.67" y2="291" stroke="#3f3f46" stroke-width="1.11"/><line x1="66.81" y1="236.33" x2="71.67" y2="236.33" stroke="#3f3f46" stroke-width="1.11"/><line x1="66.81" y1="181.67" x2="71.67" y2="181.67" stroke="#3f3f46" stroke-width="1.11"/><line x1="66.81" y1="127" x2="71.67" y2="127" stroke="#3f3f46" stroke-width="1.11"/><line x1="66.81" y1="72.33" x2="71.67" y2="72.33" stroke="#3f3f46" stroke-width="1.11"/><g fill="#27272a"><text x="200.67" y="314.06" fill="#3f3f46" font-size="16.67" text-anchor="start" transform="rotate(30 200.67 314.06)">20</text><text x="350.43" y="314.06" fill="#3f3f46" font-size="16.67" text-anchor="start" transform="rotate(30 350.43 314.06)">100</text><text x="500.18" y="314.06" fill="#3f3f46" font-size="16.67" text-anchor="start" transform="rotate(30 500.18 314.06)">500</text><text x="564.68" y="314.06" fill="#3f3f46" font-size="16.67" text-anchor="start" transform="rotate(30 564.68 314.06)">1k</text><text x="61.95" y="296.83" fill="#3f3f46" font-size="16.67" text-anchor="end">-40</text><text x="61.95" y="242.17" fill="#3f3f46" font-size="16.67" text-anchor="end">-30</text><text x="61.95" y="187.5" fill="#3f3f46" font-size="16.67" text-anchor="end">-20</text><text x="61.95" y="132.83" fill="#3f3f46" font-size="16.67" text-anchor="end">-10</text><text x="61.95" y="78.17" fill="#3f3f46" font-size="16.67" text-anchor="end">0</text></g><text x="382.67" y="31.11" text-anchor="middle" font-size="22.22" font-weight="400" fill="#27272a">Direct DC Removal High-Pass Filter (8 kHz)</text><text x="382.67" y="370.94" text-anchor="middle" font-size="19.44" font-weight="400" fill="#27272a">Frequency (Hz)</text><text x="22.23" y="168" text-anchor="middle" font-size="19.44" font-weight="400" fill="#27272a" transform="rotate(-90 22.23 168)">Magnitude (dB)</text></svg></svg>