<svg xmlns="http://www.w3.org/2000/svg" width="720" height="380" viewBox="0 0 720 380"><rect width="100%" height="100%" fill="#f4f4f5"/><svg x="0" y="0" width="708" height="380" viewBox="0 0 708 380"><defs><clipPath id="xy-panel-0-clip1"><rect x="82.09" y="45" width="612" height="286"/></clipPath></defs><rect x="82.09" y="45" width="612" height="286" fill="#f4f4f5"/><g><line data-xy-grid="minor" x1="82.09" y1="45" x2="82.09" y2="331" stroke="transparent" stroke-width="1.11" stroke-opacity="0.4"/><line data-xy-grid="minor" x1="100.16" y1="45" x2="100.16" y2="331" stroke="transparent" stroke-width="1.11" stroke-opacity="0.4"/><line data-xy-grid="minor" x1="115.44" y1="45" x2="115.44" y2="331" stroke="transparent" stroke-width="1.11" stroke-opacity="0.4"/><line data-xy-grid="minor" x1="128.68" y1="45" x2="128.68" y2="331" stroke="transparent" stroke-width="1.11" stroke-opacity="0.4"/><line data-xy-grid="minor" x1="140.36" y1="45" x2="140.36" y2="331" stroke="transparent" stroke-width="1.11" stroke-opacity="0.4"/><line data-xy-grid="minor" x1="219.51" y1="45" x2="219.51" y2="331" stroke="transparent" stroke-width="1.11" stroke-opacity="0.4"/><line data-xy-grid="minor" x1="259.71" y1="45" x2="259.71" y2="331" stroke="transparent" stroke-width="1.11" stroke-opacity="0.4"/><line data-xy-grid="minor" x1="288.22" y1="45" x2="288.22" y2="331" stroke="transparent" stroke-width="1.11" stroke-opacity="0.4"/><line data-xy-grid="minor" x1="310.34" y1="45" x2="310.34" y2="331" stroke="transparent" stroke-width="1.11" stroke-opacity="0.4"/><line data-xy-grid="minor" x1="328.42" y1="45" x2="328.42" y2="331" stroke="transparent" stroke-width="1.11" stroke-opacity="0.4"/><line data-xy-grid="minor" x1="343.7" y1="45" x2="343.7" y2="331" stroke="transparent" stroke-width="1.11" stroke-opacity="0.4"/><line data-xy-grid="minor" x1="356.93" y1="45" x2="356.93" y2="331" stroke="transparent" stroke-width="1.11" stroke-opacity="0.4"/><line data-xy-grid="minor" x1="368.61" y1="45" x2="368.61" y2="331" stroke="transparent" stroke-width="1.11" stroke-opacity="0.4"/><line data-xy-grid="minor" x1="447.76" y1="45" x2="447.76" y2="331" stroke="transparent" stroke-width="1.11" stroke-opacity="0.4"/><line data-xy-grid="minor" x1="487.96" y1="45" x2="487.96" y2="331" stroke="transparent" stroke-width="1.11" stroke-opacity="0.4"/><line data-xy-grid="minor" x1="516.48" y1="45" x2="516.48" y2="331" stroke="transparent" stroke-width="1.11" stroke-opacity="0.4"/><line data-xy-grid="minor" x1="538.6" y1="45" x2="538.6" y2="331" stroke="transparent" stroke-width="1.11" stroke-opacity="0.4"/><line data-xy-grid="minor" x1="556.67" y1="45" x2="556.67" y2="331" stroke="transparent" stroke-width="1.11" stroke-opacity="0.4"/><line data-xy-grid="minor" x1="571.95" y1="45" x2="571.95" y2="331" stroke="transparent" stroke-width="1.11" stroke-opacity="0.4"/><line data-xy-grid="minor" x1="585.19" y1="45" x2="585.19" y2="331" stroke="transparent" stroke-width="1.11" stroke-opacity="0.4"/><line data-xy-grid="minor" x1="596.86" y1="45" x2="596.86" y2="331" stroke="transparent" stroke-width="1.11" stroke-opacity="0.4"/><line data-xy-grid="minor" x1="676.02" y1="45" x2="676.02" y2="331" stroke="transparent" stroke-width="1.11" stroke-opacity="0.4"/><line x1="150.8" y1="45" x2="150.8" y2="331" stroke="#d4d4d8" stroke-width="1.11" stroke-opacity="0.4"/><line x1="379.05" y1="45" x2="379.05" y2="331" stroke="#d4d4d8" stroke-width="1.11" stroke-opacity="0.4"/><line x1="607.31" y1="45" x2="607.31" y2="331" stroke="#d4d4d8" stroke-width="1.11" stroke-opacity="0.4"/><line x1="82.09" y1="331" x2="694.09" y2="331" stroke="#d4d4d8" stroke-width="1.11" stroke-opacity="0.4"/><line x1="82.09" y1="287" x2="694.09" y2="287" stroke="#d4d4d8" stroke-width="1.11" stroke-opacity="0.4"/><line x1="82.09" y1="243" x2="694.09" y2="243" stroke="#d4d4d8" stroke-width="1.11" stroke-opacity="0.4"/><line x1="82.09" y1="199" x2="694.09" y2="199" stroke="#d4d4d8" stroke-width="1.11" stroke-opacity="0.4"/><line x1="82.09" y1="155" x2="694.09" y2="155" stroke="#d4d4d8" stroke-width="1.11" stroke-opacity="0.4"/><line x1="82.09" y1="111" x2="694.09" y2="111" stroke="#d4d4d8" stroke-width="1.11" stroke-opacity="0.4"/><line x1="82.09" y1="67" x2="694.09" y2="67" stroke="#d4d4d8" stroke-width="1.11" stroke-opacity="0.4"/></g><g clip-path="url(#xy-panel-0-clip1)"><path d="M 97.81 67 L 115.89 67 L 131.17 67 L 144.4 67 L 156.08 67 L 166.52 67 L 175.97 67 L 184.6 67.01 L 192.53 67.01 L 199.88 67.01 L 206.72 67.01 L 213.11 67.01 L 219.12 67.01 L 224.79 67.01 L 230.15 67.01 L 235.23 67.02 L 240.07 67.02 L 244.68 67.02 L 249.09 67.02 L 253.31 67.02 L 257.35 67.02 L 261.24 67.03 L 264.98 67.03 L 268.59 67.03 L 272.07 67.03 L 275.43 67.04 L 278.68 67.04 L 281.83 67.04 L 284.88 67.04 L 287.83 67.04 L 290.71 67.05 L 293.5 67.05 L 296.22 67.05 L 298.86 67.05 L 301.44 67.06 L 303.95 67.06 L 306.39 67.06 L 308.78 67.07 L 311.11 67.07 L 313.39 67.07 L 315.62 67.07 L 317.8 67.08 L 319.93 67.08 L 322.02 67.08 L 324.06 67.09 L 326.07 67.09 L 328.03 67.09 L 329.95 67.09 L 331.84 67.1 L 333.69 67.1 L 335.51 67.1 L 337.3 67.11 L 339.05 67.11 L 340.78 67.11 L 342.47 67.12 L 344.14 67.12 L 345.78 67.12 L 347.39 67.12 L 348.97 67.13 L 350.54 67.13 L 352.07 67.13 L 353.59 67.14 L 355.08 67.14 L 356.55 67.14 L 357.99 67.15 L 359.42 67.15 L 360.83 67.15 L 362.21 67.15 L 363.58 67.16 L 364.93 67.16 L 366.26 67.16 L 367.57 67.17 L 368.87 67.17 L 370.15 67.17 L 371.41 67.17 L 372.66 67.18 L 373.89 67.18 L 375.1 67.18 L 376.31 67.18 L 377.49 67.18 L 378.67 67.19 L 379.83 67.19 L 380.97 67.19 L 382.1 67.19 L 383.22 67.2 L 384.33 67.2 L 385.43 67.2 L 386.51 67.2 L 387.58 67.2 L 388.64 67.2 L 389.69 67.21 L 390.73 67.21 L 391.76 67.21 L 392.77 67.21 L 393.78 67.21 L 394.78 67.21 L 395.76 67.21 L 396.74 67.21 L 397.71 67.22 L 398.66 67.22 L 399.61 67.22 L 400.55 67.22 L 401.48 67.22 L 402.41 67.22 L 403.32 67.22 L 404.22 67.22 L 405.12 67.22 L 406.01 67.22 L 406.89 67.22 L 407.76 67.22 L 408.63 67.22 L 409.49 67.22 L 410.34 67.22 L 411.18 67.22 L 412.02 67.22 L 412.85 67.22 L 413.67 67.22 L 414.49 67.22 L 415.3 67.22 L 416.1 67.22 L 416.9 67.21 L 417.69 67.21 L 418.47 67.21 L 419.25 67.21 L 420.02 67.21 L 420.78 67.21 L 421.54 67.21 L 422.3 67.21 L 423.05 67.2 L 423.79 67.2 L 424.52 67.2 L 425.26 67.2 L 425.98 67.2 L 426.7 67.19 L 427.42 67.19 L 428.13 67.19 L 428.84 67.19 L 429.54 67.19 L 430.23 67.18 L 430.92 67.18 L 431.61 67.18 L 432.29 67.18 L 432.97 67.17 L 433.64 67.17 L 434.31 67.17 L 434.97 67.17 L 435.63 67.16 L 436.28 67.16 L 436.93 67.16 L 437.58 67.15 L 438.22 67.15 L 438.86 67.15 L 439.49 67.14 L 440.12 67.14 L 440.75 67.14 L 441.37 67.14 L 441.98 67.13 L 442.6 67.13 L 443.21 67.13 L 443.81 67.12 L 444.42 67.12 L 445.02 67.12 L 445.61 67.11 L 446.2 67.11 L 446.79 67.11 L 447.38 67.1 L 447.96 67.1 L 448.54 67.1 L 449.11 67.09 L 449.68 67.09 L 450.25 67.09 L 450.81 67.08 L 451.38 67.08 L 451.93 67.08 L 452.49 67.07 L 453.04 67.07 L 453.59 67.07 L 454.14 67.06 L 454.68 67.06 L 455.22 67.06 L 455.76 67.06 L 456.29 67.05 L 456.82 67.05 L 457.35 67.05 L 457.88 67.04 L 458.4 67.04 L 458.92 67.04 L 459.44 67.04 L 459.96 67.03 L 460.47 67.03 L 460.98 67.03 L 461.48 67.03 L 461.99 67.03 L 462.49 67.02 L 462.99 67.02 L 463.49 67.02 L 463.98 67.02 L 464.47 67.02 L 464.96 67.01 L 465.45 67.01 L 465.93 67.01 L 466.42 67.01 L 466.9 67.01 L 467.37 67.01 L 467.85 67.01 L 468.32 67 L 468.79 67 L 469.26 67 L 469.73 67 L 470.19 67 L 470.66 67 L 471.12 67 L 471.57 67 L 472.03 67 L 472.48 67 L 472.93 67 L 473.38 67 L 473.83 67 L 474.28 67 L 474.72 67 L 475.16 67 L 475.6 67 L 476.04 67 L 476.48 67 L 476.91 67.01 L 477.34 67.01 L 477.77 67.01 L 478.2 67.01 L 478.63 67.01 L 479.05 67.01 L 479.47 67.01 L 479.89 67.02 L 480.31 67.02 L 480.73 67.02 L 481.15 67.02 L 481.56 67.02 L 481.97 67.03 L 482.38 67.03 L 482.79 67.03 L 483.2 67.03 L 483.6 67.04 L 484.01 67.04 L 484.41 67.04 L 484.81 67.04 L 485.21 67.05 L 485.61 67.05 L 486 67.05 L 486.4 67.06 L 486.79 67.06 L 487.18 67.06 L 487.57 67.07 L 487.96 67.07 L 488.34 67.07 L 488.73 67.08 L 489.11 67.08 L 489.49 67.08 L 489.88 67.09 L 490.25 67.09 L 490.63 67.1 L 491.01 67.1 L 491.38 67.1 L 491.76 67.11 L 492.13 67.11 L 492.5 67.11 L 492.87 67.12 L 493.24 67.12 L 493.6 67.13 L 493.97 67.13 L 494.33 67.13 L 494.69 67.14 L 495.05 67.14 L 495.41 67.14 L 495.77 67.15 L 496.13 67.15 L 496.49 67.15 L 496.84 67.16 L 497.19 67.16 L 497.55 67.16 L 497.9 67.17 L 498.25 67.17 L 498.6 67.17 L 498.94 67.18 L 499.29 67.18 L 499.63 67.18 L 499.98 67.19 L 500.32 67.19 L 500.66 67.19 L 501 67.19 L 501.34 67.2 L 501.68 67.2 L 502.01 67.2 L 502.35 67.2 L 502.68 67.21 L 503.02 67.21 L 503.35 67.21 L 503.68 67.21 L 504.01 67.21 L 504.34 67.21 L 504.67 67.21 L 504.99 67.22 L 505.32 67.22 L 505.64 67.22 L 505.97 67.22 L 506.29 67.22 L 506.61 67.22 L 506.93 67.22 L 507.25 67.22 L 507.57 67.22 L 507.89 67.22 L 508.2 67.22 L 508.52 67.22 L 508.83 67.22 L 509.14 67.22 L 509.46 67.22 L 509.77 67.22 L 510.08 67.21 L 510.39 67.21 L 510.7 67.21 L 511 67.21 L 511.31 67.21 L 511.61 67.21 L 511.92 67.2 L 512.22 67.2 L 512.53 67.2 L 512.83 67.2 L 513.13 67.19 L 513.43 67.19 L 513.73 67.19 L 514.03 67.18 L 514.32 67.18 L 514.62 67.18 L 514.91 67.17 L 515.21 67.17 L 515.5 67.17 L 515.8 67.16 L 516.09 67.16 L 516.38 67.16 L 516.67 67.15 L 516.96 67.15 L 517.25 67.14 L 517.53 67.14 L 517.82 67.13 L 518.11 67.13 L 518.39 67.13 L 518.68 67.12 L 518.96 67.12 L 519.24 67.11 L 519.53 67.11 L 519.81 67.1 L 520.09 67.1 L 520.37 67.09 L 520.65 67.09 L 520.92 67.09 L 521.2 67.08 L 521.48 67.08 L 521.75 67.07 L 522.03 67.07 L 522.3 67.06 L 522.58 67.06 L 522.85 67.06 L 523.12 67.05 L 523.39 67.05 L 523.66 67.04 L 523.93 67.04 L 524.2 67.04 L 524.47 67.03 L 524.74 67.03 L 525 67.03 L 525.27 67.02 L 525.54 67.02 L 525.8 67.02 L 526.06 67.01 L 526.33 67.01 L 526.59 67.01 L 526.85 67.01 L 527.11 67.01 L 527.37 67 L 527.63 67 L 527.89 67 L 528.15 67 L 528.41 67 L 528.67 67 L 528.92 67 L 529.18 67 L 529.43 67 L 529.69 67 L 529.94 67 L 530.19 67 L 530.45 67 L 530.7 67.01 L 530.95 67.01 L 531.2 67.01 L 531.45 67.01 L 531.7 67.01 L 531.95 67.02 L 532.2 67.02 L 532.45 67.02 L 532.69 67.03 L 532.94 67.03 L 533.18 67.03 L 533.43 67.04 L 533.67 67.04 L 533.92 67.04 L 534.16 67.05 L 534.4 67.05 L 534.65 67.06 L 534.89 67.06 L 535.13 67.07 L 535.37 67.07 L 535.61 67.08 L 535.85 67.08 L 536.09 67.09 L 536.32 67.1 L 536.56 67.1 L 536.8 67.11 L 537.03 67.11 L 537.27 67.12 L 537.51 67.12 L 537.74 67.13 L 537.97 67.14 L 538.21 67.14 L 538.44 67.15 L 538.67 67.15 L 538.9 67.16 L 539.14 67.16 L 539.37 67.17 L 539.6 67.17 L 539.83 67.18 L 540.06 67.18 L 540.28 67.19 L 540.51 67.19 L 540.74 67.2 L 540.97 67.2 L 541.19 67.2 L 541.42 67.21 L 541.65 67.21 L 541.87 67.21 L 542.1 67.21 L 542.32 67.22 L 542.54 67.22 L 542.77 67.22 L 542.99 67.22 L 543.21 67.22 L 543.43 67.22 L 543.65 67.22 L 543.87 67.22 L 544.09 67.22 L 544.31 67.22 L 544.53 67.21 L 544.75 67.21 L 544.97 67.21 L 545.19 67.21 L 545.4 67.2 L 545.62 67.2 L 545.84 67.2 L 546.05 67.19 L 546.27 67.19 L 546.48 67.18 L 546.7 67.18 L 546.91 67.17 L 547.12 67.16 L 547.34 67.16 L 547.55 67.15 L 547.76 67.14 L 547.97 67.14 L 548.18 67.13 L 548.39 67.12 L 548.6 67.11 L 548.81 67.11 L 549.02 67.1 L 549.23 67.09 L 549.44 67.08 L 549.65 67.08 L 549.86 67.07 L 550.06 67.06 L 550.27 67.06 L 550.48 67.05 L 550.68 67.04 L 550.89 67.04 L 551.09 67.03 L 551.3 67.03 L 551.5 67.02 L 551.71 67.02 L 551.91 67.01 L 552.11 67.01 L 552.31 67.01 L 552.52 67 L 552.72 67 L 552.92 67 L 553.12 67 L 553.32 67 L 553.52 67 L 553.72 67 L 553.92 67.01 L 554.12 67.01 L 554.32 67.01 L 554.52 67.02 L 554.71 67.02 L 554.91 67.03 L 555.11 67.03 L 555.3 67.04 L 555.5 67.05 L 555.7 67.06 L 555.89 67.07 L 556.09 67.08 L 556.28 67.08 L 556.47 67.09 L 556.67 67.1 L 556.86 67.11 L 557.06 67.12 L 557.25 67.13 L 557.44 67.14 L 557.63 67.15 L 557.82 67.16 L 558.01 67.17 L 558.21 67.18 L 558.4 67.19 L 558.59 67.2 L 558.78 67.2 L 558.97 67.21 L 559.15 67.21 L 559.34 67.22 L 559.53 67.22 L 559.72 67.22 L 559.91 67.22 L 560.09 67.22 L 560.28 67.22 L 560.47 67.21 L 560.65 67.21 L 560.84 67.2 L 561.02 67.19 L 561.21 67.19 L 561.39 67.18 L 561.58 67.16 L 561.76 67.15 L 561.95 67.14 L 562.13 67.13 L 562.31 67.11 L 562.5 67.1 L 562.68 67.09 L 562.86 67.07 L 563.04 67.06 L 563.22 67.05 L 563.4 67.04 L 563.59 67.02 L 563.77 67.02 L 563.95 67.01 L 564.13 67 L 564.3 67 L 564.48 67 L 564.66 67 L 564.84 67.01 L 565.02 67.01 L 565.2 67.02 L 565.37 67.03 L 565.55 67.05 L 565.73 67.06 L 565.91 67.08 L 566.08 67.1 L 566.26 67.12 L 566.43 67.14 L 566.61 67.16 L 566.78 67.17 L 566.96 67.19 L 567.13 67.2 L 567.31 67.21 L 567.48 67.22 L 567.65 67.22 L 567.83 67.22 L 568 67.21 L 568.17 67.19 L 568.34 67.18 L 568.52 67.15 L 568.69 67.13 L 568.86 67.1 L 569.03 67.07 L 569.2 67.04 L 569.37 67.02 L 569.54 67.01 L 569.71 67 L 569.88 67 L 570.05 67.02 L 570.22 67.05 L 570.39 67.08 L 570.56 67.12 L 570.72 67.17 L 570.89 67.2 L 571.06 67.22 L 571.23 67.21 L 571.39 67.17 L 571.56 67.1 L 571.73 67.03 L 571.89 67 L 572.06 67.16 L 572.23 67.68 L 572.39 68.85 L 572.56 70.88 L 572.72 73.81 L 572.89 77.49 L 573.05 81.64 L 573.21 86 L 573.38 90.43 L 573.54 94.82 L 573.7 99.13 L 573.87 103.34 L 574.03 107.45 L 574.19 111.46 L 574.35 115.39 L 574.52 119.23 L 574.68 123 L 574.84 126.71 L 575 130.36 L 575.16 133.97 L 575.32 137.54 L 575.48 141.07 L 575.64 144.57 L 575.8 148.05 L 575.96 151.51 L 576.12 154.97 L 576.28 158.41 L 576.44 161.86 L 576.6 165.31 L 576.75 168.77 L 576.91 172.25 L 577.07 175.75 L 577.23 179.27 L 577.38 182.83 L 577.54 186.43 L 577.7 190.08 L 577.85 193.79 L 578.01 197.56 L 578.17 201.41 L 578.32 205.36 L 578.48 209.41 L 578.63 213.59 L 578.79 217.91 L 578.94 222.42 L 579.1 227.15 L 579.25 232.14 L 579.41 237.47 L 579.56 243.24 L 579.71 249.6 L 579.87 256.82 L 580.02 265.37 L 580.17 276.37 L 580.33 293.45 L 580.48 344.56 L 580.63 296.99 L 580.78 287.81 L 580.93 283.83 L 581.09 282.15 L 581.24 281.87 L 581.39 282.63 L 581.54 284.25 L 581.69 286.73 L 581.84 290.17 L 581.99 294.85 L 582.14 301.41 L 582.29 311.68 L 582.44 334.9 L 582.59 329.99 L 582.74 311.12 L 582.88 302.3 L 583.03 296.7 L 583.18 292.75 L 583.33 289.81 L 583.48 287.56 L 583.63 285.83 L 583.77 284.49 L 583.92 283.49 L 584.07 282.75 L 584.21 282.25 L 584.36 281.95 L 584.51 281.84 L 584.65 281.89 L 584.8 282.11 L 584.94 282.48 L 585.09 282.99 L 585.23 283.65 L 585.38 284.46 L 585.52 285.42 L 585.67 286.54 L 585.81 287.83 L 585.96 289.31 L 586.1 291 L 586.25 292.94 L 586.39 295.16 L 586.53 297.74 L 586.68 300.78 L 586.82 304.44 L 586.96 309 L 587.1 315 L 587.25 323.74 L 587.39 340.09 L 587.53 360.97 L 587.67 330.53 L 587.81 319.5 L 587.95 312.69 L 588.1 307.8 L 588.24 304.01 L 588.38 300.95 L 588.52 298.4 L 588.66 296.23 L 588.8 294.37 L 588.94 292.74 L 589.08 291.32 L 589.22 290.06 L 589.36 288.94 L 589.5 287.95 L 589.63 287.07 L 589.77 286.28 L 589.91 285.58 L 590.05 284.96 L 590.19 284.41 L 590.33 283.92 L 590.46 283.5 L 590.6 283.13 L 590.74 282.81 L 590.88 282.55 L 591.01 282.33 L 591.15 282.15 L 591.29 282.01 L 591.42 281.92 L 591.56 281.86 L 591.7 281.84 L 591.83 281.85 L 591.97 281.9 L 592.1 281.98 L 592.24 282.09 L 592.37 282.24 L 592.51 282.42 L 592.64 282.63 L 592.78 282.87 L 592.91 283.14 L 593.05 283.44 L 593.18 283.77 L 593.31 284.14 L 593.45 284.53 L 593.58 284.96 L 593.71 285.42 L 593.85 285.92 L 593.98 286.45 L 594.11 287.02 L 594.25 287.62 L 594.38 288.27 L 594.51 288.95 L 594.64 289.68 L 594.77 290.46 L 594.91 291.28 L 595.04 292.16 L 595.17 293.1 L 595.3 294.1 L 595.43 295.16 L 595.56 296.31 L 595.69 297.54 L 595.82 298.86 L 595.95 300.29 L 596.08 301.85 L 596.21 303.55 L 596.34 305.42 L 596.47 307.5 L 596.6 309.84 L 596.73 312.5 L 596.86 315.59 L 596.99 319.27 L 597.12 323.81 L 597.25 329.75 L 597.38 338.36 L 597.51 354.33 L 597.63 377.52 L 597.76 345.53 L 597.89 334.24 L 598.02 327.24 L 598.14 322.17 L 598.27 318.21 L 598.4 314.96 L 598.53 312.22 L 598.65 309.85 L 598.78 307.77 L 598.91 305.91 L 599.03 304.25 L 599.16 302.74 L 599.28 301.36 L 599.41 300.1 L 599.54 298.94 L 599.66 297.86 L 599.79 296.86 L 599.91 295.92 L 600.04 295.05 L 600.16 294.23 L 600.29 293.46 L 600.41 292.74 L 600.54 292.06 L 600.66 291.42 L 600.78 290.82 L 600.91 290.25 L 601.03 289.71 L 601.16 289.2 L 601.28 288.71 L 601.4 288.25 L 601.53 287.82 L 601.65 287.41 L 601.77 287.02 L 601.89 286.65 L 602.02 286.29 L 602.14 285.96 L 602.26 285.65 L 602.38 285.35 L 602.51 285.07 L 602.63 284.8 L 602.75 284.55 L 602.87 284.31 L 602.99 284.08 L 603.11 283.87 L 603.24 283.67 L 603.36 283.49 L 603.48 283.31 L 603.6 283.15 L 603.72 283 L 603.84 282.85 L 603.96 282.72 L 604.08 282.6 L 604.2 282.49 L 604.32 282.39 L 604.44 282.3 L 604.56 282.21 L 604.68 282.14 L 604.8 282.07 L 604.92 282.01 L 605.03 281.97 L 605.15 281.92 L 605.27 281.89 L 605.39 281.87 L 605.51 281.85 L 605.63 281.84 L 605.74 281.84 L 605.86 281.84 L 605.98 281.85 L 606.1 281.87 L 606.22 281.9 L 606.33 281.93 L 606.45 281.97 L 606.57 282.02 L 606.68 282.07 L 606.8 282.13 L 606.92 282.2 L 607.03 282.27 L 607.15 282.35 L 607.27 282.44 L 607.38 282.53 L 607.5 282.63 L 607.62 282.74 L 607.73 282.85 L 607.85 282.97 L 607.96 283.09 L 608.08 283.22 L 608.19 283.36 L 608.31 283.5 L 608.42 283.65 L 608.54 283.81 L 608.65 283.97 L 608.77 284.14 L 608.88 284.32 L 609 284.5 L 609.11 284.69 L 609.22 284.89 L 609.34 285.09 L 609.45 285.3 L 609.56 285.52 L 609.68 285.74 L 609.79 285.97 L 609.9 286.21 L 610.02 286.46 L 610.13 286.71 L 610.24 286.97 L 610.36 287.24 L 610.47 287.51 L 610.58 287.8 L 610.69 288.09 L 610.81 288.39 L 610.92 288.69 L 611.03 289.01 L 611.14 289.34 L 611.25 289.67 L 611.37 290.02 L 611.48 290.37 L 611.59 290.73 L 611.7 291.11 L 611.81 291.49 L 611.92 291.89 L 612.03 292.3 L 612.14 292.72 L 612.25 293.15 L 612.36 293.59 L 612.47 294.05 L 612.58 294.52 L 612.69 295 L 612.8 295.5 L 612.91 296.02 L 613.02 296.55 L 613.13 297.1 L 613.24 297.67 L 613.35 298.26 L 613.46 298.87 L 613.57 299.5 L 613.68 300.15 L 613.79 300.83 L 613.9 301.53 L 614.01 302.26 L 614.11 303.03 L 614.22 303.82 L 614.33 304.65 L 614.44 305.52 L 614.55 306.43 L 614.66 307.39 L 614.76 308.4 L 614.87 309.46 L 614.98 310.59 L 615.09 311.79 L 615.19 313.06 L 615.3 314.43 L 615.41 315.9 L 615.51 317.49 L 615.62 319.22 L 615.73 321.12 L 615.83 323.22 L 615.94 325.59 L 616.05 328.28 L 616.15 331.4 L 616.26 335.13 L 616.37 339.75 L 616.47 345.83 L 616.58 354.77 L 616.68 372.05 L 616.79 386.7 L 616.89 359.55 L 617 348.79 L 617.11 341.97 L 617.21 336.97 L 617.32 333.03 L 617.42 329.77 L 617.53 327 L 617.63 324.6 L 617.73 322.47 L 617.84 320.56 L 617.94 318.84 L 618.05 317.26 L 618.15 315.82 L 618.26 314.48 L 618.36 313.23 L 618.46 312.07 L 618.57 310.99 L 618.67 309.96 L 618.78 309 L 618.88 308.08 L 618.98 307.21 L 619.09 306.39 L 619.19 305.61 L 619.29 304.86 L 619.39 304.14 L 619.5 303.46 L 619.6 302.8 L 619.7 302.17 L 619.8 301.57 L 619.91 300.98 L 620.01 300.42 L 620.11 299.88 L 620.21 299.36 L 620.32 298.86 L 620.42 298.37 L 620.52 297.9 L 620.62 297.44 L 620.72 297 L 620.82 296.58 L 620.92 296.16 L 621.03 295.76 L 621.13 295.37 L 621.23 294.99 L 621.33 294.62 L 621.43 294.27 L 621.53 293.92 L 621.63 293.58 L 621.73 293.25 L 621.83 292.93 L 621.93 292.62 L 622.03 292.32 L 622.13 292.02 L 622.23 291.74 L 622.33 291.46 L 622.43 291.18 L 622.53 290.92 L 622.63 290.66 L 622.73 290.4 L 622.83 290.16 L 622.93 289.92 L 623.03 289.68 L 623.13 289.45 L 623.23 289.23 L 623.33 289.01 L 623.42 288.8 L 623.52 288.59 L 623.62 288.39 L 623.72 288.19 L 623.82 287.99 L 623.92 287.81 L 624.01 287.62 L 624.11 287.44 L 624.21 287.26 L 624.31 287.09 L 624.41 286.93 L 624.5 286.76 L 624.6 286.6 L 624.7 286.44 L 624.8 286.29 L 624.89 286.14 L 624.99 286 L 625.09 285.86 L 625.19 285.72 L 625.28 285.58 L 625.38 285.45 L 625.48 285.32 L 625.57 285.2 L 625.67 285.07 L 625.77 284.95 L 625.86 284.84 L 625.96 284.72 L 626.05 284.61 L 626.15 284.5 L 626.25 284.4 L 626.34 284.29 L 626.44 284.19 L 626.53 284.1 L 626.63 284 L 626.73 283.91 L 626.82 283.82 L 626.92 283.73 L 627.01 283.65 L 627.11 283.56 L 627.2 283.48 L 627.3 283.4 L 627.39 283.33 L 627.49 283.25 L 627.58 283.18 L 627.68 283.11 L 627.77 283.05 L 627.86 282.98 L 627.96 282.92 L 628.05 282.86 L 628.15 282.8 L 628.24 282.74 L 628.34 282.68 L 628.43 282.63 L 628.52 282.58 L 628.62 282.53 L 628.71 282.48 L 628.8 282.44 L 628.9 282.39 L 628.99 282.35 L 629.08 282.31 L 629.18 282.27 L 629.27 282.24 L 629.36 282.2 L 629.46 282.17 L 629.55 282.14 L 629.64 282.11 L 629.74 282.08 L 629.83 282.05 L 629.92 282.03 L 630.01 282 L 630.11 281.98 L 630.2 281.96 L 630.29 281.94 L 630.38 281.92 L 630.47 281.91 L 630.57 281.9 L 630.66 281.88 L 630.75 281.87 L 630.84 281.86 L 630.93 281.85 L 631.02 281.85 L 631.12 281.84 L 631.21 281.84 L 631.3 281.84 L 631.39 281.84 L 631.48 281.84 L 631.57 281.84 L 631.66 281.84 L 631.75 281.85 L 631.84 281.85 L 631.93 281.86 L 632.02 281.87 L 632.12 281.88 L 632.21 281.89 L 632.3 281.9 L 632.39 281.92 L 632.48 281.93 L 632.57 281.95 L 632.66 281.97 L 632.75 281.99 L 632.84 282.01 L 632.93 282.03 L 633.02 282.05 L 633.11 282.08 L 633.19 282.1 L 633.28 282.13 L 633.37 282.16 L 633.46 282.19 L 633.55 282.22 L 633.64 282.25 L 633.73 282.29 L 633.82 282.32 L 633.91 282.36 L 634 282.39 L 634.09 282.43 L 634.17 282.47 L 634.26 282.51 L 634.35 282.56 L 634.44 282.6 L 634.53 282.64 L 634.62 282.69 L 634.7 282.74 L 634.79 282.78 L 634.88 282.83 L 634.97 282.89 L 635.06 282.94 L 635.14 282.99 L 635.23 283.04 L 635.32 283.1 L 635.41 283.16 L 635.49 283.22 L 635.58 283.27 L 635.67 283.33 L 635.76 283.4 L 635.84 283.46 L 635.93 283.52 L 636.02 283.59 L 636.1 283.66 L 636.19 283.72 L 636.28 283.79 L 636.36 283.86 L 636.45 283.93 L 636.54 284.01 L 636.62 284.08 L 636.71 284.16 L 636.8 284.23 L 636.88 284.31 L 636.97 284.39 L 637.06 284.47 L 637.14 284.55 L 637.23 284.63 L 637.31 284.72 L 637.4 284.8 L 637.48 284.89 L 637.57 284.98 L 637.66 285.07 L 637.74 285.16 L 637.83 285.25 L 637.91 285.34 L 638 285.44 L 638.08 285.53 L 638.17 285.63 L 638.25 285.73 L 638.34 285.83 L 638.42 285.93 L 638.51 286.03 L 638.59 286.14 L 638.68 286.24 L 638.76 286.35 L 638.85 286.46 L 638.93 286.57 L 639.01 286.68 L 639.1 286.79 L 639.18 286.9 L 639.27 287.02 L 639.35 287.14 L 639.44 287.25 L 639.52 287.37 L 639.6 287.5 L 639.69 287.62 L 639.77 287.74 L 639.85 287.87 L 639.94 288 L 640.02 288.12 L 640.11 288.26 L 640.19 288.39 L 640.27 288.52 L 640.36 288.66 L 640.44 288.79 L 640.52 288.93 L 640.6 289.07 L 640.69 289.22 L 640.77 289.36 L 640.85 289.5 L 640.94 289.65 L 641.02 289.8 L 641.1 289.95 L 641.18 290.11 L 641.27 290.26 L 641.35 290.42 L 641.43 290.58 L 641.51 290.74 L 641.6 290.9 L 641.68 291.06 L 641.76 291.23 L 641.84 291.4 L 641.92 291.57 L 642.01 291.74 L 642.09 291.92 L 642.17 292.09 L 642.25 292.27 L 642.33 292.46 L 642.41 292.64 L 642.5 292.83 L 642.58 293.01 L 642.66 293.21 L 642.74 293.4 L 642.82 293.59 L 642.9 293.79 L 642.98 293.99 L 643.06 294.2 L 643.15 294.4 L 643.23 294.61 L 643.31 294.83 L 643.39 295.04 L 643.47 295.26 L 643.55 295.48 L 643.63 295.7 L 643.71 295.93 L 643.79 296.16 L 643.87 296.39 L 643.95 296.63 L 644.03 296.87 L 644.11 297.11 L 644.19 297.36 L 644.27 297.61 L 644.35 297.87 L 644.43 298.12 L 644.51 298.39 L 644.59 298.65 L 644.67 298.92 L 644.75 299.2 L 644.83 299.48 L 644.91 299.76 L 644.99 300.05 L 645.07 300.34 L 645.15 300.64 L 645.23 300.94 L 645.31 301.25 L 645.39 301.56 L 645.47 301.88 L 645.54 302.2 L 645.62 302.53 L 645.7 302.87 L 645.78 303.21 L 645.86 303.56 L 645.94 303.91 L 646.02 304.28 L 646.1 304.65 L 646.17 305.02 L 646.25 305.41 L 646.33 305.8 L 646.41 306.2 L 646.49 306.61 L 646.57 307.03 L 646.64 307.46 L 646.72 307.9 L 646.8 308.34 L 646.88 308.8 L 646.96 309.27 L 647.03 309.76 L 647.11 310.25 L 647.19 310.76 L 647.27 311.28 L 647.34 311.82 L 647.42 312.37 L 647.5 312.94 L 647.58 313.52 L 647.65 314.13 L 647.73 314.75 L 647.81 315.39 L 647.89 316.06 L 647.96 316.75 L 648.04 317.46 L 648.12 318.21 L 648.19 318.98 L 648.27 319.78 L 648.35 320.62 L 648.42 321.5 L 648.5 322.42 L 648.58 323.38 L 648.65 324.39 L 648.73 325.47 L 648.81 326.6 L 648.88 327.8 L 648.96 329.09 L 649.04 330.46 L 649.11 331.94 L 649.19 333.54 L 649.26 335.29 L 649.34 337.21 L 649.42 339.34 L 649.49 341.74 L 649.57 344.48 L 649.64 347.68 L 649.72 351.51 L 649.8 356.31 L 649.87 362.71 L 649.95 372.41 L 650.02 393.01 L 650.1 394.25 L 650.17 372.85 L 650.25 363.02 L 650.32 356.57 L 650.4 351.77 L 650.47 347.93 L 650.55 344.75 L 650.62 342.02 L 650.7 339.64 L 650.77 337.52 L 650.85 335.62 L 650.92 333.9 L 651 332.32 L 651.07 330.86 L 651.15 329.51 L 651.22 328.25 L 651.3 327.07 L 651.37 325.96 L 651.45 324.91 L 651.52 323.92 L 651.6 322.98 L 651.67 322.09 L 651.74 321.24 L 651.82 320.42 L 651.89 319.64 L 651.97 318.9 L 652.04 318.18 L 652.11 317.49 L 652.19 316.82 L 652.26 316.18 L 652.34 315.56 L 652.41 314.97 L 652.48 314.39 L 652.56 313.83 L 652.63 313.28 L 652.7 312.76 L 652.78 312.25 L 652.85 311.75 L 652.92 311.27 L 653 310.8 L 653.07 310.34 L 653.14 309.89 L 653.22 309.46 L 653.29 309.03 L 653.36 308.62 L 653.44 308.22 L 653.51 307.82 L 653.58 307.44 L 653.65 307.06 L 653.73 306.69 L 653.8 306.33 L 653.87 305.98 L 653.95 305.63 L 654.02 305.29 L 654.09 304.96 L 654.16 304.64 L 654.24 304.32 L 654.31 304.01 L 654.38 303.7 L 654.45 303.4 L 654.52 303.1 L 654.6 302.81 L 654.67 302.53 L 654.74 302.25 L 654.81 301.97 L 654.88 301.7 L 654.96 301.44 L 655.03 301.18 L 655.1 300.92 L 655.17 300.67 L 655.24 300.42 L 655.31 300.18 L 655.39 299.94 L 655.46 299.7 L 655.53 299.47 L 655.6 299.24 L 655.67 299.01 L 655.74 298.79 L 655.81 298.57 L 655.89 298.35 L 655.96 298.14 L 656.03 297.93 L 656.1 297.73 L 656.17 297.52 L 656.24 297.32 L 656.31 297.12 L 656.38 296.93 L 656.45 296.74 L 656.52 296.55 L 656.59 296.36 L 656.67 296.17 L 656.74 295.99 L 656.81 295.81 L 656.88 295.63 L 656.95 295.46 L 657.02 295.29 L 657.09 295.12 L 657.16 294.95 L 657.23 294.78 L 657.3 294.62 L 657.37 294.46 L 657.44 294.3 L 657.51 294.14 L 657.58 293.98 L 657.65 293.83 L 657.72 293.68 L 657.79 293.53 L 657.86 293.38 L 657.93 293.23 L 658 293.08 L 658.07 292.94 L 658.14 292.8 L 658.21 292.66 L 658.28 292.52 L 658.35 292.39 L 658.41 292.25 L 658.48 292.12 L 658.55 291.98 L 658.62 291.85 L 658.69 291.73 L 658.76 291.6 L 658.83 291.47 L 658.9 291.35 L 658.97 291.22 L 659.04 291.1 L 659.11 290.98 L 659.18 290.86 L 659.24 290.74 L 659.31 290.63 L 659.38 290.51 L 659.45 290.4 L 659.52 290.29 L 659.59 290.18 L 659.66 290.06 L 659.72 289.96 L 659.79 289.85 L 659.86 289.74 L 659.93 289.64 L 660 289.53 L 660.07 289.43 L 660.13 289.33 L 660.2 289.23 L 660.27 289.13 L 660.34 289.03 L 660.41 288.93 L 660.47 288.83 L 660.54 288.74 L 660.61 288.64 L 660.68 288.55 L 660.75 288.46 L 660.81 288.36 L 660.88 288.27 L 660.95 288.18 L 661.02 288.09 L 661.08 288.01 L 661.15 287.92 L 661.22 287.83 L 661.29 287.75 L 661.35 287.66 L 661.42 287.58 L 661.49 287.5 L 661.56 287.42 L 661.62 287.34 L 661.69 287.26 L 661.76 287.18 L 661.82 287.1 L 661.89 287.02 L 661.96 286.94 L 662.02 286.87 L 662.09 286.79 L 662.16 286.72 L 662.23 286.65 L 662.29 286.57 L 662.36 286.5 L 662.43 286.43 L 662.49 286.36 L 662.56 286.29 L 662.63 286.22 L 662.69 286.15 L 662.76 286.09 L 662.82 286.02 L 662.89 285.95 L 662.96 285.89 L 663.02 285.82 L 663.09 285.76 L 663.16 285.7 L 663.22 285.63 L 663.29 285.57 L 663.35 285.51 L 663.42 285.45 L 663.49 285.39 L 663.55 285.33 L 663.62 285.27 L 663.68 285.21 L 663.75 285.16 L 663.81 285.1 L 663.88 285.04 L 663.95 284.99 L 664.01 284.93 L 664.08 284.88 L 664.14 284.83 L 664.21 284.77 L 664.27 284.72 L 664.34 284.67 L 664.4 284.62 L 664.47 284.57 L 664.53 284.52 L 664.6 284.47 L 664.67 284.42 L 664.73 284.37 L 664.8 284.32 L 664.86 284.28 L 664.93 284.23 L 664.99 284.18 L 665.06 284.14 L 665.12 284.09 L 665.18 284.05 L 665.25 284 L 665.31 283.96 L 665.38 283.92 L 665.44 283.87 L 665.51 283.83 L 665.57 283.79 L 665.64 283.75 L 665.7 283.71 L 665.77 283.67 L 665.83 283.63 L 665.89 283.59 L 665.96 283.55 L 666.02 283.52 L 666.09 283.48 L 666.15 283.44 L 666.22 283.41 L 666.28 283.37 L 666.34 283.33 L 666.41 283.3 L 666.47 283.26 L 666.54 283.23 L 666.6 283.2 L 666.66 283.16 L 666.73 283.13 L 666.79 283.1 L 666.86 283.07 L 666.92 283.04 L 666.98 283.01 L 667.05 282.98 L 667.11 282.95 L 667.17 282.92 L 667.24 282.89 L 667.3 282.86 L 667.36 282.83 L 667.43 282.8 L 667.49 282.78 L 667.55 282.75 L 667.62 282.72 L 667.68 282.7 L 667.74 282.67 L 667.81 282.65 L 667.87 282.62 L 667.93 282.6 L 668 282.57 L 668.06 282.55 L 668.12 282.53 L 668.18 282.5 L 668.25 282.48 L 668.31 282.46 L 668.37 282.44 L 668.44 282.42 L 668.5 282.4 L 668.56 282.38 L 668.62 282.36 L 668.69 282.34 L 668.75 282.32 L 668.81 282.3 L 668.87 282.28 L 668.94 282.26 L 669 282.25 L 669.06 282.23 L 669.12 282.21 L 669.18 282.19 L 669.25 282.18 L 669.31 282.16 L 669.37 282.15 L 669.43 282.13 L 669.5 282.12 L 669.56 282.1 L 669.62 282.09 L 669.68 282.08 L 669.74 282.06 L 669.81 282.05 L 669.87 282.04 L 669.93 282.03 L 669.99 282.02 L 670.05 282.01 L 670.11 281.99 L 670.18 281.98 L 670.24 281.97 L 670.3 281.96 L 670.36 281.96 L 670.42 281.95 L 670.48 281.94 L 670.54 281.93 L 670.61 281.92 L 670.67 281.91 L 670.73 281.91 L 670.79 281.9 L 670.85 281.89 L 670.91 281.89 L 670.97 281.88 L 671.03 281.88 L 671.1 281.87 L 671.16 281.87 L 671.22 281.86 L 671.28 281.86 L 671.34 281.85 L 671.4 281.85 L 671.46 281.85 L 671.52 281.84 L 671.58 281.84 L 671.64 281.84 L 671.7 281.84 L 671.76 281.84 L 671.83 281.84 L 671.89 281.84 L 671.95 281.84 L 672.01 281.84 L 672.07 281.84 L 672.13 281.84 L 672.19 281.84 L 672.25 281.84 L 672.31 281.84 L 672.37 281.84 L 672.43 281.84 L 672.49 281.85 L 672.55 281.85 L 672.61 281.85 L 672.67 281.86 L 672.73 281.86 L 672.79 281.87 L 672.85 281.87 L 672.91 281.88 L 672.97 281.88 L 673.03 281.89 L 673.09 281.89 L 673.15 281.9 L 673.21 281.9 L 673.27 281.91 L 673.33 281.92 L 673.39 281.93 L 673.45 281.93 L 673.51 281.94 L 673.57 281.95 L 673.63 281.96 L 673.69 281.97 L 673.75 281.98 L 673.8 281.99 L 673.86 282 L 673.92 282.01 L 673.98 282.02 L 674.04 282.03 L 674.1 282.04 L 674.16 282.05 L 674.22 282.07 L 674.28 282.08 L 674.34 282.09 L 674.4 282.1 L 674.46 282.12 L 674.51 282.13 L 674.57 282.14 L 674.63 282.16 L 674.69 282.17 L 674.75 282.19 L 674.81 282.2 L 674.87 282.22 L 674.93 282.23 L 674.99 282.25 L 675.04 282.27 L 675.1 282.28 L 675.16 282.3 L 675.22 282.32 L 675.28 282.34 L 675.34 282.35 L 675.4 282.37 L 675.45 282.39 L 675.51 282.41 L 675.57 282.43 L 675.63 282.45 L 675.69 282.47 L 675.75 282.49 L 675.8 282.51 L 675.86 282.53 L 675.92 282.55 L 675.98 282.57 L 676.04 282.6 L 676.09 282.62 L 676.15 282.64 L 676.21 282.66 L 676.27 282.69 L 676.33 282.71 L 676.38 282.73 L 676.44 282.76 L 676.5 282.78 L 676.56 282.81 L 676.62 282.83 L 676.67 282.86 L 676.73 282.88 L 676.79 282.91 L 676.85 282.94 L 676.9 282.96 L 676.96 282.99 L 677.02 283.02 L 677.08 283.05 L 677.13 283.07 L 677.19 283.1 L 677.25 283.13 L 677.31 283.16 L 677.36 283.19 L 677.42 283.22 L 677.48 283.25 L 677.53 283.28 L 677.59 283.31 L 677.65 283.34 L 677.71 283.37 L 677.76 283.41 L 677.82 283.44 L 677.88 283.47 L 677.93 283.5 L 677.99 283.54 L 678.05 283.57 L 678.11 283.6 L 678.16 283.64 L 678.22 283.67 L 678.28 283.71 L 678.33 283.74 L 678.39 283.78 L 678.45 283.81 L 678.5 283.85 L 678.56 283.89 L 678.62 283.92 L 678.67 283.96 L 678.73 284 L 678.79 284.04 L 678.84 284.07 L 678.9 284.11 L 678.95 284.15 L 679.01 284.19 L 679.07 284.23 L 679.12 284.27 L 679.18 284.31 L 679.24 284.35 L 679.29 284.39 L 679.35 284.43 L 679.4 284.48 L 679.46 284.52 L 679.52 284.56 L 679.57 284.6 L 679.63 284.65 L 679.68 284.69 L 679.74 284.74 L 679.8 284.78 L 679.85 284.82 L 679.91 284.87 L 679.96 284.92 L 680.02 284.96 L 680.08 285.01 L 680.13 285.05 L 680.19 285.1 L 680.24 285.15 L 680.3 285.2 L 680.35 285.25 L 680.41 285.29 L 680.47 285.34 L 680.52 285.39 L 680.58 285.44 L 680.63 285.49 L 680.69 285.54 L 680.74 285.59 L 680.8 285.65 L 680.85 285.7 L 680.91 285.75 L 680.96 285.8 L 681.02 285.86 L 681.07 285.91 L 681.13 285.96 L 681.18 286.02 L 681.24 286.07 L 681.3 286.13 L 681.35 286.18 L 681.41 286.24 L 681.46 286.3 L 681.52 286.35 L 681.57 286.41 L 681.62 286.47 L 681.68 286.53 L 681.73 286.58 L 681.79 286.64 L 681.84 286.7 L 681.9 286.76 L 681.95 286.82 L 682.01 286.88 L 682.06 286.95 L 682.12 287.01 L 682.17 287.07 L 682.23 287.13 L 682.28 287.19 L 682.34 287.26 L 682.39 287.32 L 682.44 287.39 L 682.5 287.45 L 682.55 287.52 L 682.61 287.58 L 682.66 287.65 L 682.72 287.72 L 682.77 287.78 L 682.83 287.85 L 682.88 287.92 L 682.93 287.99 L 682.99 288.06 L 683.04 288.13 L 683.1 288.2 L 683.15 288.27 L 683.2 288.34 L 683.26 288.41 L 683.31 288.49 L 683.37 288.56 L 683.42 288.63 L 683.47 288.71 L 683.53 288.78 L 683.58 288.86 L 683.64 288.93 L 683.69 289.01 L 683.74 289.09 L 683.8 289.16 L 683.85 289.24 L 683.9 289.32 L 683.96 289.4 L 684.01 289.48 L 684.06 289.56 L 684.12 289.64 L 684.17 289.72 L 684.23 289.8 L 684.28 289.89 L 684.33 289.97 L 684.39 290.05 L 684.44 290.14 L 684.49 290.22 L 684.55 290.31 L 684.6 290.4 L 684.65 290.48 L 684.71 290.57 L 684.76 290.66 L 684.81 290.75 L 684.86 290.84 L 684.92 290.93 L 684.97 291.02 L 685.02 291.11 L 685.08 291.2 L 685.13 291.3 L 685.18 291.39 L 685.24 291.49 L 685.29 291.58 L 685.34 291.68 L 685.39 291.77 L 685.45 291.87 L 685.5 291.97 L 685.55 292.07 L 685.61 292.17 L 685.66 292.27 L 685.71 292.37 L 685.76 292.47 L 685.82 292.57 L 685.87 292.68 L 685.92 292.78 L 685.97 292.89 L 686.03 292.99 L 686.08 293.1 L 686.13 293.21 L 686.18 293.32 L 686.24 293.43 L 686.29 293.54 L 686.34 293.65 L 686.39 293.76 L 686.45 293.87 L 686.5 293.99 L 686.55 294.1 L 686.6 294.22 L 686.65 294.34 L 686.71 294.45 L 686.76 294.57 L 686.81 294.69 L 686.86 294.81 L 686.92 294.93 L 686.97 295.06 L 687.02 295.18 L 687.07 295.31 L 687.12 295.43 L 687.18 295.56 L 687.23 295.69 L 687.28 295.82 L 687.33 295.95 L 687.38 296.08 L 687.43 296.21 L 687.49 296.34 L 687.54 296.48 L 687.59 296.61 L 687.64 296.75 L 687.69 296.89 L 687.74 297.03 L 687.8 297.17 L 687.85 297.31 L 687.9 297.46 L 687.95 297.6 L 688 297.75 L 688.05 297.9 L 688.1 298.05 L 688.16 298.2 L 688.21 298.35 L 688.26 298.5 L 688.31 298.66 L 688.36 298.81 L 688.41 298.97 L 688.46 299.13 L 688.52 299.29 L 688.57 299.45 L 688.62 299.62 L 688.67 299.78 L 688.72 299.95 L 688.77 300.12 L 688.82 300.29 L 688.87 300.46 L 688.92 300.64 L 688.98 300.82 L 689.03 300.99 L 689.08 301.17 L 689.13 301.36 L 689.18 301.54 L 689.23 301.73 L 689.28 301.92 L 689.33 302.11 L 689.38 302.3 L 689.43 302.49 L 689.48 302.69 L 689.53 302.89 L 689.58 303.09 L 689.64 303.3 L 689.69 303.5 L 689.74 303.71 L 689.79 303.92 L 689.84 304.14 L 689.89 304.35 L 689.94 304.57 L 689.99 304.8 L 690.04 305.02 L 690.09 305.25 L 690.14 305.48 L 690.19 305.71 L 690.24 305.95 L 690.29 306.19 L 690.34 306.44 L 690.39 306.68 L 690.44 306.93 L 690.49 307.19 L 690.54 307.45 L 690.59 307.71 L 690.64 307.97 L 690.69 308.24 L 690.74 308.52 L 690.79 308.8 L 690.84 309.08 L 690.89 309.36 L 690.94 309.66 L 690.99 309.95 L 691.04 310.25 L 691.09 310.56 L 691.14 310.87 L 691.19 311.19 L 691.24 311.51 L 691.29 311.84 L 691.34 312.17 L 691.39 312.51 L 691.44 312.86 L 691.49 313.21 L 691.54 313.57 L 691.59 313.94 L 691.64 314.31 L 691.69 314.69 L 691.74 315.08 L 691.79 315.48 L 691.84 315.89 L 691.89 316.31 L 691.94 316.73 L 691.99 317.17 L 692.04 317.61 L 692.09 318.07 L 692.14 318.54 L 692.18 319.02 L 692.23 319.52 L 692.28 320.02 L 692.33 320.54 L 692.38 321.08 L 692.43 321.63 L 692.48 322.2 L 692.53 322.78 L 692.58 323.39 L 692.63 324.01 L 692.68 324.66 L 692.73 325.33 L 692.77 326.02 L 692.82 326.74 L 692.87 327.48 L 692.92 328.26 L 692.97 329.07 L 693.02 329.92 L 693.07 330.81 L 693.12 331.74 L 693.17 332.72 L 693.22 333.75 L 693.26 334.84 L 693.31 336 L 693.36 337.23 L 693.41 338.55 L 693.46 339.96 L 693.51 341.49 L 693.56 343.15 L 693.61 344.97 L 693.65 346.99 L 693.7 349.24 L 693.75 351.79 L 693.8 354.73 L 693.85 358.22 L 693.9 362.48 L 693.94 367.98 L 693.99 375.73 L 694.04 388.97" stroke="#7c3aed" stroke-width="3.47" fill="none"  stroke-linejoin="round" stroke-linecap="round"/></g><line x1="82.09" y1="45" x2="82.09" y2="331" stroke="#71717a" stroke-width="1.11"/><line x1="694.09" y1="45" x2="694.09" y2="331" stroke="#71717a" stroke-width="1.11"/><line x1="82.09" y1="45" x2="694.09" y2="45" stroke="#71717a" stroke-width="1.11"/><line x1="82.09" y1="331" x2="694.09" y2="331" stroke="#71717a" stroke-width="1.11"/><line data-xy-tick="minor" x1="82.09" y1="331" x2="82.09" y2="333.78" stroke="#71717a" stroke-width="0.83"/><line data-xy-tick="minor" x1="100.16" y1="331" x2="100.16" y2="333.78" stroke="#71717a" stroke-width="0.83"/><line data-xy-tick="minor" x1="115.44" y1="331" x2="115.44" y2="333.78" stroke="#71717a" stroke-width="0.83"/><line data-xy-tick="minor" x1="128.68" y1="331" x2="128.68" y2="333.78" stroke="#71717a" stroke-width="0.83"/><line data-xy-tick="minor" x1="140.36" y1="331" x2="140.36" y2="333.78" stroke="#71717a" stroke-width="0.83"/><line data-xy-tick="minor" x1="219.51" y1="331" x2="219.51" y2="333.78" stroke="#71717a" stroke-width="0.83"/><line data-xy-tick="minor" x1="259.71" y1="331" x2="259.71" y2="333.78" stroke="#71717a" stroke-width="0.83"/><line data-xy-tick="minor" x1="288.22" y1="331" x2="288.22" y2="333.78" stroke="#71717a" stroke-width="0.83"/><line data-xy-tick="minor" x1="310.34" y1="331" x2="310.34" y2="333.78" stroke="#71717a" stroke-width="0.83"/><line data-xy-tick="minor" x1="328.42" y1="331" x2="328.42" y2="333.78" stroke="#71717a" stroke-width="0.83"/><line data-xy-tick="minor" x1="343.7" y1="331" x2="343.7" y2="333.78" stroke="#71717a" stroke-width="0.83"/><line data-xy-tick="minor" x1="356.93" y1="331" x2="356.93" y2="333.78" stroke="#71717a" stroke-width="0.83"/><line data-xy-tick="minor" x1="368.61" y1="331" x2="368.61" y2="333.78" stroke="#71717a" stroke-width="0.83"/><line data-xy-tick="minor" x1="447.76" y1="331" x2="447.76" y2="333.78" stroke="#71717a" stroke-width="0.83"/><line data-xy-tick="minor" x1="487.96" y1="331" x2="487.96" y2="333.78" stroke="#71717a" stroke-width="0.83"/><line data-xy-tick="minor" x1="516.48" y1="331" x2="516.48" y2="333.78" stroke="#71717a" stroke-width="0.83"/><line data-xy-tick="minor" x1="538.6" y1="331" x2="538.6" y2="333.78" stroke="#71717a" stroke-width="0.83"/><line data-xy-tick="minor" x1="556.67" y1="331" x2="556.67" y2="333.78" stroke="#71717a" stroke-width="0.83"/><line data-xy-tick="minor" x1="571.95" y1="331" x2="571.95" y2="333.78" stroke="#71717a" stroke-width="0.83"/><line data-xy-tick="minor" x1="585.19" y1="331" x2="585.19" y2="333.78" stroke="#71717a" stroke-width="0.83"/><line data-xy-tick="minor" x1="596.86" y1="331" x2="596.86" y2="333.78" stroke="#71717a" stroke-width="0.83"/><line data-xy-tick="minor" x1="676.02" y1="331" x2="676.02" y2="333.78" stroke="#71717a" stroke-width="0.83"/><line x1="150.8" y1="331" x2="150.8" y2="335.86" stroke="#3f3f46" stroke-width="1.11"/><line x1="379.05" y1="331" x2="379.05" y2="335.86" stroke="#3f3f46" stroke-width="1.11"/><line x1="607.31" y1="331" x2="607.31" y2="335.86" stroke="#3f3f46" stroke-width="1.11"/><line x1="77.23" y1="331" x2="82.09" y2="331" stroke="#3f3f46" stroke-width="1.11"/><line x1="77.23" y1="287" x2="82.09" y2="287" stroke="#3f3f46" stroke-width="1.11"/><line x1="77.23" y1="243" x2="82.09" y2="243" stroke="#3f3f46" stroke-width="1.11"/><line x1="77.23" y1="199" x2="82.09" y2="199" stroke="#3f3f46" stroke-width="1.11"/><line x1="77.23" y1="155" x2="82.09" y2="155" stroke="#3f3f46" stroke-width="1.11"/><line x1="77.23" y1="111" x2="82.09" y2="111" stroke="#3f3f46" stroke-width="1.11"/><line x1="77.23" y1="67" x2="82.09" y2="67" stroke="#3f3f46" stroke-width="1.11"/><g fill="#27272a"><text x="150.8" y="354.06" fill="#3f3f46" font-size="16.67" text-anchor="middle">10²</text><text x="379.05" y="354.06" fill="#3f3f46" font-size="16.67" text-anchor="middle">10³</text><text x="607.31" y="354.06" fill="#3f3f46" font-size="16.67" text-anchor="middle">10⁴</text><text x="72.37" y="336.83" fill="#3f3f46" font-size="16.67" text-anchor="end">-120</text><text x="72.37" y="292.83" fill="#3f3f46" font-size="16.67" text-anchor="end">-100</text><text x="72.37" y="248.83" fill="#3f3f46" font-size="16.67" text-anchor="end">-80</text><text x="72.37" y="204.83" fill="#3f3f46" font-size="16.67" text-anchor="end">-60</text><text x="72.37" y="160.83" fill="#3f3f46" font-size="16.67" text-anchor="end">-40</text><text x="72.37" y="116.83" fill="#3f3f46" font-size="16.67" text-anchor="end">-20</text><text x="72.37" y="72.83" fill="#3f3f46" font-size="16.67" text-anchor="end">0</text></g><text x="388.09" y="31.11" text-anchor="middle" font-size="22.22" font-weight="400" fill="#27272a">IIR Cascade 3:1 Low-Pass Filter (48 kHz)</text><text x="388.09" y="370.94" text-anchor="middle" font-size="19.44" font-weight="400" fill="#27272a">Frequency (Hz)</text><text x="22.23" y="188" text-anchor="middle" font-size="19.44" font-weight="400" fill="#27272a" transform="rotate(-90 22.23 188)">Magnitude (dB)</text></svg></svg>