<svg xmlns="http://www.w3.org/2000/svg" width="720" height="380" viewBox="0 0 720 380"><rect width="100%" height="100%" fill="#f4f4f5"/><svg x="0" y="0" width="715" height="380" viewBox="0 0 715 380"><defs><clipPath id="xy-panel-0-clip1"><rect x="82.09" y="45" width="612" height="246"/></clipPath></defs><rect x="82.09" y="45" width="612" height="246" fill="#f4f4f5"/><g><line data-xy-grid="minor" x1="82.09" y1="45" x2="82.09" y2="291" stroke="transparent" stroke-width="1.11" stroke-opacity="0.4"/><line data-xy-grid="minor" x1="100.16" y1="45" x2="100.16" y2="291" stroke="transparent" stroke-width="1.11" stroke-opacity="0.4"/><line data-xy-grid="minor" x1="115.44" y1="45" x2="115.44" y2="291" stroke="transparent" stroke-width="1.11" stroke-opacity="0.4"/><line data-xy-grid="minor" x1="128.68" y1="45" x2="128.68" y2="291" stroke="transparent" stroke-width="1.11" stroke-opacity="0.4"/><line data-xy-grid="minor" x1="140.36" y1="45" x2="140.36" y2="291" stroke="transparent" stroke-width="1.11" stroke-opacity="0.4"/><line data-xy-grid="minor" x1="219.51" y1="45" x2="219.51" y2="291" stroke="transparent" stroke-width="1.11" stroke-opacity="0.4"/><line data-xy-grid="minor" x1="259.71" y1="45" x2="259.71" y2="291" stroke="transparent" stroke-width="1.11" stroke-opacity="0.4"/><line data-xy-grid="minor" x1="288.22" y1="45" x2="288.22" y2="291" stroke="transparent" stroke-width="1.11" stroke-opacity="0.4"/><line data-xy-grid="minor" x1="328.42" y1="45" x2="328.42" y2="291" stroke="transparent" stroke-width="1.11" stroke-opacity="0.4"/><line data-xy-grid="minor" x1="343.7" y1="45" x2="343.7" y2="291" stroke="transparent" stroke-width="1.11" stroke-opacity="0.4"/><line data-xy-grid="minor" x1="356.93" y1="45" x2="356.93" y2="291" stroke="transparent" stroke-width="1.11" stroke-opacity="0.4"/><line data-xy-grid="minor" x1="368.61" y1="45" x2="368.61" y2="291" stroke="transparent" stroke-width="1.11" stroke-opacity="0.4"/><line data-xy-grid="minor" x1="447.76" y1="45" x2="447.76" y2="291" stroke="transparent" stroke-width="1.11" stroke-opacity="0.4"/><line data-xy-grid="minor" x1="487.96" y1="45" x2="487.96" y2="291" stroke="transparent" stroke-width="1.11" stroke-opacity="0.4"/><line data-xy-grid="minor" x1="538.6" y1="45" x2="538.6" y2="291" stroke="transparent" stroke-width="1.11" stroke-opacity="0.4"/><line data-xy-grid="minor" x1="556.67" y1="45" x2="556.67" y2="291" stroke="transparent" stroke-width="1.11" stroke-opacity="0.4"/><line data-xy-grid="minor" x1="571.95" y1="45" x2="571.95" y2="291" stroke="transparent" stroke-width="1.11" stroke-opacity="0.4"/><line data-xy-grid="minor" x1="596.86" y1="45" x2="596.86" y2="291" stroke="transparent" stroke-width="1.11" stroke-opacity="0.4"/><line x1="150.8" y1="45" x2="150.8" y2="291" stroke="#d4d4d8" stroke-width="1.11" stroke-opacity="0.4"/><line x1="310.34" y1="45" x2="310.34" y2="291" stroke="#d4d4d8" stroke-width="1.11" stroke-opacity="0.4"/><line x1="379.05" y1="45" x2="379.05" y2="291" stroke="#d4d4d8" stroke-width="1.11" stroke-opacity="0.4"/><line x1="516.48" y1="45" x2="516.48" y2="291" stroke="#d4d4d8" stroke-width="1.11" stroke-opacity="0.4"/><line x1="585.19" y1="45" x2="585.19" y2="291" stroke="#d4d4d8" stroke-width="1.11" stroke-opacity="0.4"/><line x1="653.9" y1="45" x2="653.9" y2="291" stroke="#d4d4d8" stroke-width="1.11" stroke-opacity="0.4"/><line x1="676.02" y1="45" x2="676.02" y2="291" stroke="#d4d4d8" stroke-width="1.11" stroke-opacity="0.4"/><line x1="82.09" y1="291" x2="694.09" y2="291" stroke="#d4d4d8" stroke-width="1.11" stroke-opacity="0.4"/><line x1="82.09" y1="253.15" x2="694.09" y2="253.15" stroke="#d4d4d8" stroke-width="1.11" stroke-opacity="0.4"/><line x1="82.09" y1="215.31" x2="694.09" y2="215.31" stroke="#d4d4d8" stroke-width="1.11" stroke-opacity="0.4"/><line x1="82.09" y1="177.46" x2="694.09" y2="177.46" stroke="#d4d4d8" stroke-width="1.11" stroke-opacity="0.4"/><line x1="82.09" y1="139.62" x2="694.09" y2="139.62" stroke="#d4d4d8" stroke-width="1.11" stroke-opacity="0.4"/><line x1="82.09" y1="101.77" x2="694.09" y2="101.77" stroke="#d4d4d8" stroke-width="1.11" stroke-opacity="0.4"/><line x1="82.09" y1="63.92" x2="694.09" y2="63.92" stroke="#d4d4d8" stroke-width="1.11" stroke-opacity="0.4"/></g><g clip-path="url(#xy-panel-0-clip1)"><path d="M 83.63 63.92 L 90.97 63.92 L 97.81 63.92 L 104.21 63.92 L 110.22 63.92 L 115.89 63.92 L 121.25 63.92 L 126.33 63.92 L 131.17 63.92 L 135.78 63.92 L 140.18 63.92 L 144.4 63.92 L 148.45 63.92 L 152.34 63.92 L 156.08 63.92 L 159.68 63.92 L 163.16 63.92 L 166.52 63.92 L 169.77 63.92 L 172.92 63.92 L 175.97 63.92 L 178.93 63.92 L 181.8 63.92 L 184.6 63.92 L 187.31 63.92 L 189.96 63.92 L 192.53 63.92 L 195.04 63.92 L 197.49 63.92 L 199.88 63.92 L 202.21 63.92 L 204.49 63.92 L 206.72 63.92 L 208.9 63.92 L 211.03 63.92 L 213.11 63.92 L 215.16 63.92 L 217.16 63.92 L 219.12 63.92 L 221.05 63.92 L 222.94 63.92 L 224.79 63.92 L 226.61 63.92 L 228.4 63.92 L 230.15 63.92 L 231.87 63.92 L 233.57 63.92 L 235.23 63.92 L 236.87 63.92 L 238.48 63.92 L 240.07 63.92 L 241.63 63.92 L 243.17 63.92 L 244.68 63.92 L 246.17 63.92 L 247.64 63.92 L 249.09 63.92 L 250.52 63.92 L 251.92 63.92 L 253.31 63.92 L 254.67 63.92 L 256.02 63.92 L 257.35 63.92 L 258.67 63.92 L 259.96 63.92 L 261.24 63.92 L 262.5 63.92 L 263.75 63.92 L 264.98 63.92 L 266.2 63.92 L 267.4 63.92 L 268.59 63.92 L 269.76 63.92 L 270.92 63.92 L 272.07 63.92 L 273.2 63.92 L 274.32 63.92 L 275.43 63.92 L 276.52 63.92 L 277.61 63.92 L 278.68 63.92 L 279.74 63.92 L 280.79 63.92 L 281.83 63.92 L 282.85 63.92 L 283.87 63.92 L 284.88 63.92 L 285.87 63.92 L 286.86 63.92 L 287.83 63.92 L 288.8 63.92 L 289.76 63.92 L 290.71 63.92 L 291.65 63.92 L 292.58 63.92 L 293.5 63.92 L 294.41 63.92 L 295.32 63.92 L 296.22 63.92 L 297.11 63.92 L 297.99 63.92 L 298.86 63.92 L 299.73 63.92 L 300.58 63.92 L 301.44 63.92 L 302.28 63.92 L 303.12 63.92 L 303.95 63.92 L 304.77 63.92 L 305.58 63.92 L 306.39 63.92 L 307.2 63.92 L 307.99 63.92 L 308.78 63.92 L 309.57 63.92 L 310.34 63.92 L 311.11 63.92 L 311.88 63.92 L 312.64 63.92 L 313.39 63.92 L 314.14 63.92 L 314.88 63.92 L 315.62 63.92 L 316.35 63.92 L 317.08 63.92 L 317.8 63.92 L 318.52 63.92 L 319.23 63.92 L 319.93 63.92 L 320.63 63.92 L 321.33 63.92 L 322.02 63.92 L 322.7 63.92 L 323.39 63.92 L 324.06 63.92 L 324.73 63.92 L 325.4 63.92 L 326.07 63.92 L 326.72 63.92 L 327.38 63.92 L 328.03 63.92 L 328.67 63.92 L 329.32 63.92 L 329.95 63.92 L 330.59 63.92 L 331.22 63.92 L 331.84 63.92 L 332.46 63.92 L 333.08 63.92 L 333.69 63.92 L 334.3 63.92 L 334.91 63.92 L 335.51 63.92 L 336.11 63.92 L 336.71 63.92 L 337.3 63.92 L 337.89 63.92 L 338.47 63.92 L 339.05 63.92 L 339.63 63.92 L 340.21 63.92 L 340.78 63.92 L 341.35 63.92 L 341.91 63.92 L 342.47 63.92 L 343.03 63.92 L 343.59 63.92 L 344.14 63.92 L 344.69 63.92 L 345.23 63.92 L 345.78 63.92 L 346.32 63.92 L 346.85 63.92 L 347.39 63.92 L 347.92 63.92 L 348.45 63.92 L 348.97 63.92 L 349.5 63.92 L 350.02 63.92 L 350.54 63.92 L 351.05 63.92 L 351.56 63.92 L 352.07 63.92 L 352.58 63.92 L 353.08 63.92 L 353.59 63.92 L 354.09 63.92 L 354.58 63.92 L 355.08 63.92 L 355.57 63.92 L 356.06 63.92 L 356.55 63.92 L 357.03 63.92 L 357.51 63.92 L 357.99 63.92 L 358.47 63.92 L 358.95 63.92 L 359.42 63.92 L 359.89 63.92 L 360.36 63.92 L 360.83 63.92 L 361.29 63.92 L 361.75 63.92 L 362.21 63.92 L 362.67 63.92 L 363.13 63.92 L 363.58 63.92 L 364.03 63.92 L 364.48 63.92 L 364.93 63.92 L 365.37 63.92 L 365.82 63.92 L 366.26 63.92 L 366.7 63.92 L 367.14 63.92 L 367.57 63.92 L 368.01 63.92 L 368.44 63.92 L 368.87 63.92 L 369.3 63.92 L 369.72 63.92 L 370.15 63.92 L 370.57 63.92 L 370.99 63.92 L 371.41 63.92 L 371.83 63.92 L 372.24 63.92 L 372.66 63.92 L 373.07 63.92 L 373.48 63.92 L 373.89 63.92 L 374.29 63.92 L 374.7 63.92 L 375.1 63.92 L 375.51 63.92 L 375.91 63.92 L 376.31 63.92 L 376.7 63.92 L 377.1 63.92 L 377.49 63.92 L 377.89 63.92 L 378.28 63.92 L 378.67 63.92 L 379.05 63.92 L 379.44 63.92 L 379.83 63.92 L 380.21 63.92 L 380.59 63.92 L 380.97 63.92 L 381.35 63.92 L 381.73 63.92 L 382.1 63.92 L 382.48 63.92 L 382.85 63.92 L 383.22 63.92 L 383.59 63.92 L 383.96 63.92 L 384.33 63.92 L 384.7 63.92 L 385.06 63.92 L 385.43 63.92 L 385.79 63.92 L 386.15 63.92 L 386.51 63.92 L 386.87 63.92 L 387.23 63.92 L 387.58 63.92 L 387.94 63.92 L 388.29 63.92 L 388.64 63.92 L 388.99 63.92 L 389.34 63.92 L 389.69 63.92 L 390.04 63.92 L 390.38 63.92 L 390.73 63.92 L 391.07 63.92 L 391.42 63.92 L 391.76 63.92 L 392.1 63.92 L 392.44 63.92 L 392.77 63.92 L 393.11 63.92 L 393.45 63.92 L 393.78 63.92 L 394.11 63.92 L 394.44 63.92 L 394.78 63.92 L 395.11 63.92 L 395.43 63.92 L 395.76 63.92 L 396.09 63.92 L 396.41 63.92 L 396.74 63.92 L 397.06 63.92 L 397.38 63.92 L 397.71 63.92 L 398.03 63.92 L 398.35 63.92 L 398.66 63.92 L 398.98 63.92 L 399.3 63.92 L 399.61 63.92 L 399.93 63.92 L 400.24 63.92 L 400.55 63.92 L 400.86 63.92 L 401.17 63.92 L 401.48 63.92 L 401.79 63.92 L 402.1 63.92 L 402.41 63.92 L 402.71 63.92 L 403.02 63.92 L 403.32 63.92 L 403.62 63.92 L 403.92 63.92 L 404.22 63.92 L 404.52 63.92 L 404.82 63.92 L 405.12 63.92 L 405.42 63.92 L 405.71 63.92 L 406.01 63.92 L 406.3 63.92 L 406.6 63.92 L 406.89 63.92 L 407.18 63.92 L 407.47 63.92 L 407.76 63.92 L 408.05 63.92 L 408.34 63.92 L 408.63 63.92 L 408.92 63.92 L 409.2 63.92 L 409.49 63.92 L 409.77 63.92 L 410.06 63.92 L 410.34 63.92 L 410.62 63.92 L 410.9 63.92 L 411.18 63.92 L 411.46 63.92 L 411.74 63.92 L 412.02 63.92 L 412.3 63.92 L 412.57 63.92 L 412.85 63.92 L 413.12 63.92 L 413.4 63.92 L 413.67 63.92 L 413.94 63.92 L 414.22 63.92 L 414.49 63.92 L 414.76 63.92 L 415.03 63.92 L 415.3 63.92 L 415.57 63.92 L 415.83 63.92 L 416.1 63.92 L 416.37 63.92 L 416.63 63.92 L 416.9 63.92 L 417.16 63.92 L 417.42 63.92 L 417.69 63.92 L 417.95 63.92 L 418.21 63.92 L 418.47 63.92 L 418.73 63.92 L 418.99 63.92 L 419.25 63.92 L 419.5 63.92 L 419.76 63.92 L 420.02 63.92 L 420.27 63.92 L 420.53 63.92 L 420.78 63.92 L 421.04 63.92 L 421.29 63.92 L 421.54 63.92 L 421.8 63.92 L 422.05 63.92 L 422.3 63.92 L 422.55 63.92 L 422.8 63.92 L 423.05 63.92 L 423.29 63.92 L 423.54 63.92 L 423.79 63.92 L 424.03 63.92 L 424.28 63.92 L 424.52 63.92 L 424.77 63.92 L 425.01 63.92 L 425.26 63.92 L 425.5 63.92 L 425.74 63.92 L 425.98 63.92 L 426.22 63.92 L 426.46 63.92 L 426.7 63.92 L 426.94 63.92 L 427.18 63.92 L 427.42 63.92 L 427.66 63.92 L 427.89 63.92 L 428.13 63.92 L 428.37 63.92 L 428.6 63.92 L 428.84 63.92 L 429.07 63.92 L 429.3 63.92 L 429.54 63.92 L 429.77 63.92 L 430 63.92 L 430.23 63.92 L 430.46 63.92 L 430.69 63.92 L 430.92 63.92 L 431.15 63.92 L 431.38 63.92 L 431.61 63.92 L 431.84 63.92 L 432.06 63.92 L 432.29 63.92 L 432.52 63.92 L 432.74 63.92 L 432.97 63.92 L 433.19 63.92 L 433.42 63.92 L 433.64 63.92 L 433.86 63.92 L 434.08 63.92 L 434.31 63.92 L 434.53 63.92 L 434.75 63.92 L 434.97 63.92 L 435.19 63.92 L 435.41 63.92 L 435.63 63.92 L 435.85 63.92 L 436.06 63.92 L 436.28 63.92 L 436.5 63.92 L 436.72 63.92 L 436.93 63.92 L 437.15 63.92 L 437.36 63.92 L 437.58 63.92 L 437.79 63.92 L 438.01 63.92 L 438.22 63.92 L 438.43 63.92 L 438.65 63.92 L 438.86 63.92 L 439.07 63.92 L 439.28 63.92 L 439.49 63.92 L 439.7 63.92 L 439.91 63.92 L 440.12 63.91 L 440.33 63.91 L 440.54 63.91 L 440.75 63.91 L 440.95 63.91 L 441.16 63.91 L 441.37 63.91 L 441.57 63.91 L 441.78 63.91 L 441.98 63.91 L 442.19 63.91 L 442.39 63.91 L 442.6 63.91 L 442.8 63.91 L 443.01 63.91 L 443.21 63.91 L 443.41 63.91 L 443.61 63.91 L 443.81 63.91 L 444.02 63.91 L 444.22 63.91 L 444.42 63.91 L 444.62 63.91 L 444.82 63.91 L 445.02 63.9 L 445.22 63.9 L 445.41 63.9 L 445.61 63.9 L 445.81 63.9 L 446.01 63.9 L 446.2 63.9 L 446.4 63.9 L 446.6 63.9 L 446.79 63.9 L 446.99 63.9 L 447.18 63.9 L 447.38 63.9 L 447.57 63.89 L 447.76 63.89 L 447.96 63.89 L 448.15 63.89 L 448.34 63.89 L 448.54 63.89 L 448.73 63.89 L 448.92 63.89 L 449.11 63.89 L 449.3 63.88 L 449.49 63.88 L 449.68 63.88 L 449.87 63.88 L 450.06 63.88 L 450.25 63.88 L 450.44 63.88 L 450.63 63.87 L 450.81 63.87 L 451 63.87 L 451.19 63.87 L 451.38 63.87 L 451.56 63.87 L 451.75 63.86 L 451.93 63.86 L 452.12 63.86 L 452.31 63.86 L 452.49 63.86 L 452.67 63.85 L 452.86 63.85 L 453.04 63.85 L 453.23 63.85 L 453.41 63.84 L 453.59 63.84 L 453.77 63.84 L 453.96 63.84 L 454.14 63.83 L 454.32 63.83 L 454.5 63.83 L 454.68 63.83 L 454.86 63.82 L 455.04 63.82 L 455.22 63.82 L 455.4 63.82 L 455.58 63.81 L 455.76 63.81 L 455.94 63.81 L 456.12 63.81 L 456.29 63.8 L 456.47 63.8 L 456.65 63.8 L 456.82 63.8 L 457 63.79 L 457.18 63.79 L 457.35 63.79 L 457.53 63.79 L 457.7 63.79 L 457.88 63.79 L 458.05 63.78 L 458.23 63.78 L 458.4 63.78 L 458.58 63.78 L 458.75 63.79 L 458.92 63.79 L 459.1 63.79 L 459.27 63.79 L 459.44 63.8 L 459.61 63.8 L 459.78 63.81 L 459.96 63.81 L 460.13 63.82 L 460.3 63.83 L 460.47 63.84 L 460.64 63.86 L 460.81 63.87 L 460.98 63.89 L 461.15 63.91 L 461.32 63.93 L 461.48 63.96 L 461.65 63.99 L 461.82 64.02 L 461.99 64.06 L 462.16 64.1 L 462.32 64.15 L 462.49 64.21 L 462.66 64.27 L 462.82 64.34 L 462.99 64.42 L 463.16 64.5 L 463.32 64.6 L 463.49 64.71 L 463.65 64.83 L 463.82 64.96 L 463.98 65.12 L 464.15 65.28 L 464.31 65.47 L 464.47 65.68 L 464.64 65.92 L 464.8 66.18 L 464.96 66.47 L 465.13 66.8 L 465.29 67.16 L 465.45 67.56 L 465.61 68 L 465.77 68.49 L 465.93 69.03 L 466.1 69.63 L 466.26 70.28 L 466.42 70.99 L 466.58 71.77 L 466.74 72.61 L 466.9 73.51 L 467.06 74.49 L 467.22 75.53 L 467.37 76.64 L 467.53 77.81 L 467.69 79.06 L 467.85 80.36 L 468.01 81.72 L 468.17 83.14 L 468.32 84.62 L 468.48 86.15 L 468.64 87.73 L 468.79 89.35 L 468.95 91.02 L 469.11 92.73 L 469.26 94.47 L 469.42 96.26 L 469.57 98.08 L 469.73 99.94 L 469.88 101.83 L 470.04 103.75 L 470.19 105.7 L 470.35 107.69 L 470.5 109.7 L 470.66 111.75 L 470.81 113.83 L 470.96 115.95 L 471.12 118.09 L 471.27 120.27 L 471.42 122.48 L 471.57 124.73 L 471.73 127.02 L 471.88 129.35 L 472.03 131.72 L 472.18 134.13 L 472.33 136.59 L 472.48 139.1 L 472.63 141.66 L 472.78 144.28 L 472.93 146.96 L 473.08 149.7 L 473.23 152.52 L 473.38 155.41 L 473.53 158.39 L 473.68 161.46 L 473.83 164.64 L 473.98 167.94 L 474.13 171.36 L 474.28 174.94 L 474.43 178.68 L 474.57 182.63 L 474.72 186.82 L 474.87 191.28 L 475.02 196.11 L 475.16 201.38 L 475.31 207.26 L 475.46 214 L 475.6 222.07 L 475.75 232.62 L 475.89 249.81 L 476.04 271.88 L 476.19 248.98 L 476.33 243.49 L 476.48 242.13 L 476.62 243.13 L 476.76 246.18 L 476.91 251.9 L 477.05 263.18 L 477.2 306.61 L 477.34 260.66 L 477.48 249.95 L 477.63 243.83 L 477.77 239.74 L 477.91 236.82 L 478.06 234.7 L 478.2 233.17 L 478.34 232.11 L 478.48 231.43 L 478.63 231.07 L 478.77 231.02 L 478.91 231.24 L 479.05 231.72 L 479.19 232.47 L 479.33 233.48 L 479.47 234.78 L 479.61 236.39 L 479.75 238.37 L 479.89 240.8 L 480.03 243.8 L 480.17 247.61 L 480.31 252.65 L 480.45 260 L 480.59 273.39 L 480.73 297.42 L 480.87 267.59 L 481.01 257.91 L 481.15 252.14 L 481.28 248.12 L 481.42 245.12 L 481.56 242.8 L 481.7 240.96 L 481.84 239.5 L 481.97 238.34 L 482.11 237.43 L 482.25 236.74 L 482.38 236.24 L 482.52 235.92 L 482.66 235.75 L 482.79 235.73 L 482.93 235.86 L 483.06 236.13 L 483.2 236.54 L 483.33 237.09 L 483.47 237.8 L 483.6 238.66 L 483.74 239.7 L 483.87 240.93 L 484.01 242.38 L 484.14 244.08 L 484.28 246.1 L 484.41 248.51 L 484.54 251.45 L 484.68 255.15 L 484.81 260.03 L 484.94 267.12 L 485.08 279.98 L 485.21 307.58 L 485.34 274.85 L 485.47 264.7 L 485.61 258.56 L 485.74 254.18 L 485.87 250.82 L 486 248.11 L 486.13 245.87 L 486.27 243.97 L 486.4 242.36 L 486.53 240.97 L 486.66 239.76 L 486.79 238.72 L 486.92 237.81 L 487.05 237.02 L 487.18 236.34 L 487.31 235.77 L 487.44 235.28 L 487.57 234.88 L 487.7 234.55 L 487.83 234.3 L 487.96 234.12 L 488.09 234 L 488.22 233.96 L 488.34 233.97 L 488.47 234.05 L 488.6 234.19 L 488.73 234.39 L 488.86 234.66 L 488.98 234.98 L 489.11 235.38 L 489.24 235.83 L 489.37 236.36 L 489.49 236.96 L 489.62 237.64 L 489.75 238.4 L 489.88 239.25 L 490 240.19 L 490.13 241.24 L 490.25 242.42 L 490.38 243.73 L 490.51 245.21 L 490.63 246.88 L 490.76 248.77 L 490.88 250.97 L 491.01 253.53 L 491.13 256.62 L 491.26 260.46 L 491.38 265.5 L 491.51 272.83 L 491.63 286.39 L 491.76 307.5 L 491.88 279.23 L 492 269.45 L 492.13 263.42 L 492.25 259.08 L 492.38 255.7 L 492.5 252.95 L 492.62 250.64 L 492.75 248.67 L 492.87 246.95 L 492.99 245.44 L 493.11 244.11 L 493.24 242.92 L 493.36 241.86 L 493.48 240.9 L 493.6 240.04 L 493.72 239.26 L 493.85 238.56 L 493.97 237.93 L 494.09 237.36 L 494.21 236.85 L 494.33 236.39 L 494.45 235.99 L 494.57 235.63 L 494.69 235.32 L 494.81 235.05 L 494.93 234.82 L 495.05 234.63 L 495.17 234.48 L 495.29 234.37 L 495.41 234.29 L 495.53 234.25 L 495.65 234.24 L 495.77 234.27 L 495.89 234.32 L 496.01 234.42 L 496.13 234.54 L 496.25 234.7 L 496.37 234.89 L 496.49 235.12 L 496.6 235.38 L 496.72 235.67 L 496.84 236 L 496.96 236.37 L 497.08 236.77 L 497.19 237.22 L 497.31 237.71 L 497.43 238.24 L 497.55 238.81 L 497.66 239.44 L 497.78 240.11 L 497.9 240.85 L 498.01 241.64 L 498.13 242.5 L 498.25 243.44 L 498.36 244.46 L 498.48 245.57 L 498.6 246.78 L 498.71 248.12 L 498.83 249.59 L 498.94 251.24 L 499.06 253.09 L 499.17 255.2 L 499.29 257.64 L 499.4 260.53 L 499.52 264.05 L 499.63 268.55 L 499.75 274.77 L 499.86 284.9 L 499.98 316.12 L 500.09 290.82 L 500.21 277.79 L 500.32 270.66 L 500.43 265.73 L 500.55 261.98 L 500.66 258.96 L 500.77 256.43 L 500.89 254.28 L 501 252.39 L 501.11 250.73 L 501.23 249.25 L 501.34 247.92 L 501.45 246.71 L 501.56 245.61 L 501.68 244.6 L 501.79 243.68 L 501.9 242.83 L 502.01 242.04 L 502.13 241.32 L 502.24 240.65 L 502.35 240.02 L 502.46 239.45 L 502.57 238.91 L 502.68 238.41 L 502.79 237.96 L 502.91 237.53 L 503.02 237.14 L 503.13 236.77 L 503.24 236.44 L 503.35 236.13 L 503.46 235.85 L 503.57 235.6 L 503.68 235.37 L 503.79 235.16 L 503.9 234.98 L 504.01 234.82 L 504.12 234.67 L 504.23 234.55 L 504.34 234.45 L 504.45 234.37 L 504.56 234.31 L 504.67 234.27 L 504.78 234.25 L 504.88 234.24 L 504.99 234.25 L 505.1 234.29 L 505.21 234.34 L 505.32 234.4 L 505.43 234.49 L 505.54 234.59 L 505.64 234.72 L 505.75 234.86 L 505.86 235.02 L 505.97 235.19 L 506.07 235.39 L 506.18 235.6 L 506.29 235.84 L 506.4 236.09 L 506.5 236.37 L 506.61 236.67 L 506.72 236.98 L 506.82 237.32 L 506.93 237.68 L 507.04 238.07 L 507.14 238.48 L 507.25 238.92 L 507.36 239.38 L 507.46 239.87 L 507.57 240.39 L 507.67 240.95 L 507.78 241.54 L 507.89 242.16 L 507.99 242.82 L 508.1 243.53 L 508.2 244.28 L 508.31 245.08 L 508.41 245.93 L 508.52 246.84 L 508.62 247.82 L 508.73 248.88 L 508.83 250.02 L 508.94 251.26 L 509.04 252.61 L 509.14 254.09 L 509.25 255.74 L 509.35 257.57 L 509.46 259.65 L 509.56 262.04 L 509.66 264.84 L 509.77 268.22 L 509.87 272.5 L 509.97 278.29 L 510.08 287.31 L 510.18 308.84 L 510.28 300.13 L 510.39 284.53 L 510.49 276.7 L 510.59 271.44 L 510.7 267.48 L 510.8 264.31 L 510.9 261.67 L 511 259.42 L 511.1 257.45 L 511.21 255.71 L 511.31 254.15 L 511.41 252.74 L 511.51 251.46 L 511.61 250.29 L 511.72 249.21 L 511.82 248.21 L 511.92 247.28 L 512.02 246.42 L 512.12 245.61 L 512.22 244.85 L 512.32 244.14 L 512.42 243.48 L 512.53 242.85 L 512.63 242.26 L 512.73 241.7 L 512.83 241.18 L 512.93 240.68 L 513.03 240.21 L 513.13 239.77 L 513.23 239.35 L 513.33 238.95 L 513.43 238.58 L 513.53 238.22 L 513.63 237.89 L 513.73 237.57 L 513.83 237.27 L 513.93 236.99 L 514.03 236.73 L 514.12 236.48 L 514.22 236.24 L 514.32 236.03 L 514.42 235.82 L 514.52 235.63 L 514.62 235.46 L 514.72 235.29 L 514.82 235.14 L 514.91 235 L 515.01 234.88 L 515.11 234.76 L 515.21 234.66 L 515.31 234.57 L 515.4 234.49 L 515.5 234.42 L 515.6 234.36 L 515.7 234.31 L 515.8 234.28 L 515.89 234.25 L 515.99 234.23 L 516.09 234.23 L 516.18 234.23 L 516.28 234.25 L 516.38 234.27 L 516.48 234.31 L 516.57 234.35 L 516.67 234.41 L 516.77 234.47 L 516.86 234.55 L 516.96 234.63 L 517.05 234.73 L 517.15 234.83 L 517.25 234.95 L 517.34 235.07 L 517.44 235.21 L 517.53 235.35 L 517.63 235.51 L 517.73 235.68 L 517.82 235.86 L 517.92 236.05 L 518.01 236.25 L 518.11 236.46 L 518.2 236.68 L 518.3 236.92 L 518.39 237.17 L 518.49 237.43 L 518.58 237.7 L 518.68 237.99 L 518.77 238.29 L 518.87 238.6 L 518.96 238.93 L 519.06 239.28 L 519.15 239.64 L 519.24 240.01 L 519.34 240.41 L 519.43 240.82 L 519.53 241.25 L 519.62 241.7 L 519.71 242.17 L 519.81 242.66 L 519.9 243.17 L 519.99 243.71 L 520.09 244.28 L 520.18 244.87 L 520.27 245.49 L 520.37 246.14 L 520.46 246.83 L 520.55 247.56 L 520.65 248.32 L 520.74 249.13 L 520.83 249.99 L 520.92 250.9 L 521.02 251.88 L 521.11 252.92 L 521.2 254.04 L 521.29 255.24 L 521.39 256.55 L 521.48 257.97 L 521.57 259.54 L 521.66 261.28 L 521.75 263.23 L 521.85 265.44 L 521.94 268 L 522.03 271.04 L 522.12 274.78 L 522.21 279.62 L 522.3 286.51 L 522.39 298.57 L 522.48 339.84 L 522.58 296.12 L 522.67 285.34 L 522.76 278.89 L 522.85 274.29 L 522.94 270.71 L 523.03 267.79 L 523.12 265.31 L 523.21 263.17 L 523.3 261.29 L 523.39 259.61 L 523.48 258.1 L 523.57 256.72 L 523.66 255.46 L 523.75 254.3 L 523.84 253.23 L 523.93 252.22 L 524.02 251.29 L 524.11 250.41 L 524.2 249.59 L 524.29 248.81 L 524.38 248.08 L 524.47 247.38 L 524.56 246.72 L 524.65 246.1 L 524.74 245.51 L 524.83 244.94 L 524.91 244.4 L 525 243.89 L 525.09 243.4 L 525.18 242.93 L 525.27 242.48 L 525.36 242.05 L 525.45 241.64 L 525.54 241.24 L 525.62 240.86 L 525.71 240.5 L 525.8 240.16 L 525.89 239.82 L 525.98 239.5 L 526.06 239.2 L 526.15 238.9 L 526.24 238.62 L 526.33 238.35 L 526.41 238.1 L 526.5 237.85 L 526.59 237.61 L 526.68 237.38 L 526.76 237.17 L 526.85 236.96 L 526.94 236.76 L 527.03 236.57 L 527.11 236.39 L 527.2 236.22 L 527.29 236.05 L 527.37 235.9 L 527.46 235.75 L 527.55 235.61 L 527.63 235.48 L 527.72 235.35 L 527.81 235.23 L 527.89 235.12 L 527.98 235.02 L 528.06 234.92 L 528.15 234.83 L 528.24 234.75 L 528.32 234.67 L 528.41 234.6 L 528.49 234.54 L 528.58 234.48 L 528.67 234.43 L 528.75 234.38 L 528.84 234.34 L 528.92 234.31 L 529.01 234.28 L 529.09 234.26 L 529.18 234.24 L 529.26 234.24 L 529.35 234.23 L 529.43 234.23 L 529.52 234.24 L 529.6 234.25 L 529.69 234.27 L 529.77 234.3 L 529.86 234.33 L 529.94 234.36 L 530.03 234.4 L 530.11 234.45 L 530.19 234.51 L 530.28 234.56 L 530.36 234.63 L 530.45 234.7 L 530.53 234.77 L 530.62 234.86 L 530.7 234.94 L 530.78 235.04 L 530.87 235.13 L 530.95 235.24 L 531.03 235.35 L 531.12 235.47 L 531.2 235.59 L 531.28 235.72 L 531.37 235.85 L 531.45 236 L 531.53 236.14 L 531.62 236.3 L 531.7 236.46 L 531.78 236.63 L 531.87 236.8 L 531.95 236.98 L 532.03 237.17 L 532.11 237.37 L 532.2 237.57 L 532.28 237.78 L 532.36 238 L 532.45 238.22 L 532.53 238.46 L 532.61 238.7 L 532.69 238.95 L 532.77 239.21 L 532.86 239.48 L 532.94 239.75 L 533.02 240.04 L 533.1 240.33 L 533.18 240.64 L 533.27 240.96 L 533.35 241.28 L 533.43 241.62 L 533.51 241.97 L 533.59 242.33 L 533.67 242.71 L 533.75 243.1 L 533.84 243.5 L 533.92 243.92 L 534 244.35 L 534.08 244.79 L 534.16 245.26 L 534.24 245.74 L 534.32 246.24 L 534.4 246.76 L 534.48 247.3 L 534.56 247.87 L 534.65 248.46 L 534.73 249.07 L 534.81 249.71 L 534.89 250.38 L 534.97 251.09 L 535.05 251.83 L 535.13 252.61 L 535.21 253.43 L 535.29 254.3 L 535.37 255.22 L 535.45 256.19 L 535.53 257.24 L 535.61 258.35 L 535.69 259.55 L 535.77 260.85 L 535.85 262.27 L 535.93 263.82 L 536.01 265.53 L 536.09 267.44 L 536.16 269.62 L 536.24 272.12 L 536.32 275.07 L 536.4 278.67 L 536.48 283.29 L 536.56 289.74 L 536.64 300.48 L 536.72 342.23 L 536.8 303.33 L 536.88 291.19 L 536.96 284.3 L 537.03 279.47 L 537.11 275.75 L 537.19 272.72 L 537.27 270.17 L 537.35 267.97 L 537.43 266.04 L 537.51 264.32 L 537.58 262.77 L 537.66 261.35 L 537.74 260.06 L 537.82 258.86 L 537.9 257.75 L 537.97 256.72 L 538.05 255.75 L 538.13 254.84 L 538.21 253.99 L 538.29 253.18 L 538.36 252.41 L 538.44 251.69 L 538.52 251 L 538.6 250.34 L 538.67 249.71 L 538.75 249.11 L 538.83 248.54 L 538.9 247.99 L 538.98 247.46 L 539.06 246.95 L 539.14 246.46 L 539.21 245.99 L 539.29 245.54 L 539.37 245.11 L 539.44 244.69 L 539.52 244.29 L 539.6 243.9 L 539.67 243.52 L 539.75 243.16 L 539.83 242.8 L 539.9 242.46 L 539.98 242.14 L 540.06 241.82 L 540.13 241.51 L 540.21 241.21 L 540.28 240.92 L 540.36 240.64 L 540.44 240.37 L 540.51 240.11 L 540.59 239.86 L 540.66 239.61 L 540.74 239.37 L 540.82 239.14 L 540.89 238.92 L 540.97 238.7 L 541.04 238.5 L 541.12 238.29 L 541.19 238.1 L 541.27 237.91 L 541.34 237.72 L 541.42 237.54 L 541.5 237.37 L 541.57 237.21 L 541.65 237.04 L 541.72 236.89 L 541.8 236.74 L 541.87 236.59 L 541.95 236.45 L 542.02 236.32 L 542.1 236.19 L 542.17 236.06 L 542.24 235.94 L 542.32 235.83 L 542.39 235.72 L 542.47 235.61 L 542.54 235.51 L 542.62 235.41 L 542.69 235.32 L 542.77 235.23 L 542.84 235.14 L 542.91 235.06 L 542.99 234.98 L 543.06 234.91 L 543.14 234.84 L 543.21 234.78 L 543.28 234.72 L 543.36 234.66 L 543.43 234.6 L 543.51 234.55 L 543.58 234.51 L 543.65 234.47 L 543.73 234.43 L 543.8 234.39 L 543.87 234.36 L 543.95 234.33 L 544.02 234.31 L 544.09 234.29 L 544.17 234.27 L 544.24 234.25 L 544.31 234.24 L 544.39 234.24 L 544.46 234.23 L 544.53 234.23 L 544.6 234.23 L 544.68 234.24 L 544.75 234.25 L 544.82 234.26 L 544.9 234.28 L 544.97 234.3 L 545.04 234.32 L 545.11 234.35 L 545.19 234.38 L 545.26 234.41 L 545.33 234.45 L 545.4 234.49 L 545.48 234.53 L 545.55 234.58 L 545.62 234.63 L 545.69 234.68 L 545.76 234.74 L 545.84 234.8 L 545.91 234.86 L 545.98 234.93 L 546.05 235 L 546.12 235.08 L 546.2 235.15 L 546.27 235.24 L 546.34 235.32 L 546.41 235.41 L 546.48 235.5 L 546.55 235.6 L 546.63 235.7 L 546.7 235.8 L 546.77 235.91 L 546.84 236.02 L 546.91 236.13 L 546.98 236.25 L 547.05 236.37 L 547.12 236.5 L 547.19 236.63 L 547.27 236.76 L 547.34 236.9 L 547.41 237.04 L 547.48 237.19 L 547.55 237.34 L 547.62 237.5 L 547.69 237.66 L 547.76 237.82 L 547.83 237.99 L 547.9 238.16 L 547.97 238.34 L 548.04 238.53 L 548.11 238.72 L 548.18 238.91 L 548.25 239.11 L 548.32 239.31 L 548.39 239.52 L 548.46 239.74 L 548.53 239.96 L 548.6 240.18 L 548.67 240.42 L 548.74 240.66 L 548.81 240.9 L 548.88 241.15 L 548.95 241.41 L 549.02 241.68 L 549.09 241.95 L 549.16 242.23 L 549.23 242.52 L 549.3 242.81 L 549.37 243.11 L 549.44 243.43 L 549.51 243.75 L 549.58 244.08 L 549.65 244.41 L 549.72 244.76 L 549.79 245.12 L 549.86 245.49 L 549.93 245.87 L 550 246.26 L 550.06 246.67 L 550.13 247.09 L 550.2 247.52 L 550.27 247.96 L 550.34 248.42 L 550.41 248.9 L 550.48 249.39 L 550.55 249.9 L 550.61 250.42 L 550.68 250.97 L 550.75 251.54 L 550.82 252.14 L 550.89 252.75 L 550.96 253.4 L 551.03 254.07 L 551.09 254.77 L 551.16 255.51 L 551.23 256.28 L 551.3 257.09 L 551.37 257.95 L 551.43 258.86 L 551.5 259.82 L 551.57 260.85 L 551.64 261.94 L 551.71 263.12 L 551.77 264.38 L 551.84 265.76 L 551.91 267.26 L 551.98 268.91 L 552.04 270.75 L 552.11 272.83 L 552.18 275.2 L 552.25 277.98 L 552.31 281.33 L 552.38 285.53 L 552.45 291.19 L 552.52 299.89 L 552.58 319.52 L 552.65 315.21 L 552.72 298.48 L 552.79 290.37 L 552.85 284.97 L 552.92 280.91 L 552.99 277.67 L 553.05 274.97 L 553.12 272.65 L 553.19 270.62 L 553.25 268.82 L 553.32 267.21 L 553.39 265.74 L 553.45 264.39 L 553.52 263.15 L 553.59 262 L 553.65 260.93 L 553.72 259.93 L 553.79 258.99 L 553.85 258.1 L 553.92 257.26 L 553.99 256.47 L 554.05 255.71 L 554.12 254.99 L 554.19 254.31 L 554.25 253.65 L 554.32 253.03 L 554.38 252.43 L 554.45 251.85 L 554.52 251.29 L 554.58 250.76 L 554.65 250.25 L 554.71 249.75 L 554.78 249.27 L 554.84 248.81 L 554.91 248.37 L 554.98 247.94 L 555.04 247.52 L 555.11 247.11 L 555.17 246.72 L 555.24 246.34 L 555.3 245.97 L 555.37 245.62 L 555.43 245.27 L 555.5 244.93 L 555.57 244.6 L 555.63 244.28 L 555.7 243.97 L 555.76 243.67 L 555.83 243.38 L 555.89 243.09 L 555.96 242.82 L 556.02 242.55 L 556.09 242.28 L 556.15 242.02 L 556.22 241.77 L 556.28 241.53 L 556.35 241.29 L 556.41 241.06 L 556.47 240.83 L 556.54 240.61 L 556.6 240.4 L 556.67 240.19 L 556.73 239.99 L 556.8 239.79 L 556.86 239.59 L 556.93 239.4 L 556.99 239.22 L 557.06 239.04 L 557.12 238.86 L 557.18 238.69 L 557.25 238.52 L 557.31 238.36 L 557.38 238.2 L 557.44 238.05 L 557.5 237.9 L 557.57 237.75 L 557.63 237.61 L 557.7 237.47 L 557.76 237.33 L 557.82 237.2 L 557.89 237.07 L 557.95 236.95 L 558.01 236.82 L 558.08 236.7 L 558.14 236.59 L 558.21 236.48 L 558.27 236.37 L 558.33 236.26 L 558.4 236.16 L 558.46 236.06 L 558.52 235.96 L 558.59 235.87 L 558.65 235.78 L 558.71 235.69 L 558.78 235.61 L 558.84 235.53 L 558.9 235.45 L 558.97 235.37 L 559.03 235.3 L 559.09 235.22 L 559.15 235.16 L 559.22 235.09 L 559.28 235.03 L 559.34 234.97 L 559.41 234.91 L 559.47 234.85 L 559.53 234.8 L 559.59 234.75 L 559.66 234.7 L 559.72 234.65 L 559.78 234.61 L 559.84 234.57 L 559.91 234.53 L 559.97 234.5 L 560.03 234.46 L 560.09 234.43 L 560.16 234.4 L 560.22 234.37 L 560.28 234.35 L 560.34 234.33 L 560.4 234.31 L 560.47 234.29 L 560.53 234.28 L 560.59 234.26 L 560.65 234.25 L 560.72 234.24 L 560.78 234.24 L 560.84 234.23 L 560.9 234.23 L 560.96 234.23 L 561.02 234.23 L 561.09 234.24 L 561.15 234.25 L 561.21 234.26 L 561.27 234.27 L 561.33 234.28 L 561.39 234.3 L 561.46 234.31 L 561.52 234.33 L 561.58 234.36 L 561.64 234.38 L 561.7 234.41 L 561.76 234.44 L 561.82 234.47 L 561.89 234.5 L 561.95 234.54 L 562.01 234.58 L 562.07 234.62 L 562.13 234.66 L 562.19 234.7 L 562.25 234.75 L 562.31 234.8 L 562.37 234.85 L 562.43 234.91 L 562.5 234.96 L 562.56 235.02 L 562.62 235.08 L 562.68 235.15 L 562.74 235.21 L 562.8 235.28 L 562.86 235.35 L 562.92 235.42 L 562.98 235.5 L 563.04 235.58 L 563.1 235.66 L 563.16 235.74 L 563.22 235.82 L 563.28 235.91 L 563.34 236 L 563.4 236.09 L 563.46 236.19 L 563.52 236.29 L 563.59 236.39 L 563.65 236.49 L 563.71 236.6 L 563.77 236.71 L 563.83 236.82 L 563.89 236.93 L 563.95 237.05 L 564.01 237.17 L 564.07 237.29 L 564.13 237.42 L 564.19 237.55 L 564.25 237.68 L 564.3 237.81 L 564.36 237.95 L 564.42 238.09 L 564.48 238.24 L 564.54 238.39 L 564.6 238.54 L 564.66 238.69 L 564.72 238.85 L 564.78 239.01 L 564.84 239.18 L 564.9 239.35 L 564.96 239.52 L 565.02 239.69 L 565.08 239.88 L 565.14 240.06 L 565.2 240.25 L 565.26 240.44 L 565.32 240.64 L 565.37 240.84 L 565.43 241.04 L 565.49 241.25 L 565.55 241.47 L 565.61 241.69 L 565.67 241.91 L 565.73 242.14 L 565.79 242.38 L 565.85 242.62 L 565.91 242.86 L 565.96 243.11 L 566.02 243.37 L 566.08 243.63 L 566.14 243.9 L 566.2 244.18 L 566.26 244.46 L 566.32 244.75 L 566.37 245.05 L 566.43 245.35 L 566.49 245.66 L 566.55 245.98 L 566.61 246.31 L 566.67 246.64 L 566.72 246.99 L 566.78 247.34 L 566.84 247.7 L 566.9 248.08 L 566.96 248.46 L 567.02 248.85 L 567.07 249.26 L 567.13 249.68 L 567.19 250.11 L 567.25 250.56 L 567.31 251.01 L 567.36 251.49 L 567.42 251.98 L 567.48 252.48 L 567.54 253.01 L 567.6 253.55 L 567.65 254.12 L 567.71 254.7 L 567.77 255.31 L 567.83 255.94 L 567.88 256.6 L 567.94 257.3 L 568 258.02 L 568.06 258.78 L 568.11 259.57 L 568.17 260.41 L 568.23 261.29 L 568.29 262.23 L 568.34 263.22 L 568.4 264.29 L 568.46 265.42 L 568.52 266.64 L 568.57 267.96 L 568.63 269.4 L 568.69 270.97 L 568.75 272.72 L 568.8 274.67 L 568.86 276.89 L 568.92 279.46 L 568.97 282.5 L 569.03 286.24 L 569.09 291.09 L 569.14 298 L 569.2 310.14 L 569.26 349.19 L 569.31 307.35 L 569.37 296.62 L 569.43 290.18 L 569.49 285.57 L 569.54 281.98 L 569.6 279.04 L 569.65 276.54 L 569.71 274.38 L 569.77 272.47 L 569.82 270.77 L 569.88 269.22 L 569.94 267.81 L 569.99 266.52 L 570.05 265.32 L 570.11 264.21 L 570.16 263.16 L 570.22 262.19 L 570.28 261.27 L 570.33 260.4 L 570.39 259.57 L 570.44 258.79 L 570.5 258.05 L 570.56 257.33 L 570.61 256.66 L 570.67 256.01 L 570.72 255.38 L 570.78 254.78 L 570.84 254.21 L 570.89 253.66 L 570.95 253.12 L 571 252.61 L 571.06 252.11 L 571.12 251.63 L 571.17 251.16 L 571.23 250.71 L 571.28 250.28 L 571.34 249.85 L 571.39 249.44 L 571.45 249.05 L 571.51 248.66 L 571.56 248.28 L 571.62 247.92 L 571.67 247.56 L 571.73 247.21 L 571.78 246.88 L 571.84 246.55 L 571.89 246.23 L 571.95 245.92 L 572 245.61 L 572.06 245.31 L 572.12 245.02 L 572.17 244.74 L 572.23 244.46 L 572.28 244.19 L 572.34 243.93 L 572.39 243.67 L 572.45 243.42 L 572.5 243.18 L 572.56 242.94 L 572.61 242.7 L 572.67 242.47 L 572.72 242.25 L 572.78 242.03 L 572.83 241.81 L 572.89 241.6 L 572.94 241.39 L 572.99 241.19 L 573.05 240.99 L 573.1 240.8 L 573.16 240.61 L 573.21 240.43 L 573.27 240.25 L 573.32 240.07 L 573.38 239.9 L 573.43 239.73 L 573.49 239.56 L 573.54 239.4 L 573.6 239.24 L 573.65 239.08 L 573.7 238.93 L 573.76 238.78 L 573.81 238.63 L 573.87 238.49 L 573.92 238.35 L 573.98 238.21 L 574.03 238.08 L 574.08 237.95 L 574.14 237.82 L 574.19 237.69 L 574.25 237.57 L 574.3 237.45 L 574.35 237.33 L 574.41 237.22 L 574.46 237.11 L 574.52 237 L 574.57 236.89 L 574.62 236.78 L 574.68 236.68 L 574.73 236.58 L 574.78 236.48 L 574.84 236.39 L 574.89 236.3 L 574.95 236.21 L 575 236.12 L 575.05 236.03 L 575.11 235.95 L 575.16 235.87 L 575.21 235.79 L 575.27 235.71 L 575.32 235.64 L 575.37 235.57 L 575.43 235.49 L 575.48 235.43 L 575.53 235.36 L 575.59 235.3 L 575.64 235.23 L 575.69 235.17 L 575.75 235.11 L 575.8 235.06 L 575.85 235 L 575.91 234.95 L 575.96 234.9 L 576.01 234.85 L 576.07 234.81 L 576.12 234.76 L 576.17 234.72 L 576.23 234.68 L 576.28 234.64 L 576.33 234.6 L 576.38 234.56 L 576.44 234.53 L 576.49 234.5 L 576.54 234.47 L 576.6 234.44 L 576.65 234.41 L 576.7 234.39 L 576.75 234.37 L 576.81 234.35 L 576.86 234.33 L 576.91 234.31 L 576.96 234.29 L 577.02 234.28 L 577.07 234.27 L 577.12 234.26 L 577.17 234.25 L 577.23 234.24 L 577.28 234.24 L 577.33 234.23 L 577.38 234.23 L 577.44 234.23 L 577.49 234.23 L 577.54 234.24 L 577.59 234.24 L 577.65 234.25 L 577.7 234.26 L 577.75 234.27 L 577.8 234.28 L 577.85 234.29 L 577.91 234.31 L 577.96 234.33 L 578.01 234.35 L 578.06 234.37 L 578.12 234.39 L 578.17 234.41 L 578.22 234.44 L 578.27 234.47 L 578.32 234.5 L 578.37 234.53 L 578.43 234.56 L 578.48 234.6 L 578.53 234.63 L 578.58 234.67 L 578.63 234.71 L 578.69 234.75 L 578.74 234.8 L 578.79 234.84 L 578.84 234.89 L 578.89 234.94 L 578.94 234.99 L 578.99 235.05 L 579.05 235.1 L 579.1 235.16 L 579.15 235.22 L 579.2 235.28 L 579.25 235.34 L 579.3 235.41 L 579.35 235.47 L 579.41 235.54 L 579.46 235.61 L 579.51 235.69 L 579.56 235.76 L 579.61 235.84 L 579.66 235.92 L 579.71 236 L 579.76 236.08 L 579.82 236.17 L 579.87 236.25 L 579.92 236.34 L 579.97 236.43 L 580.02 236.53 L 580.07 236.63 L 580.12 236.72 L 580.17 236.82 L 580.22 236.93 L 580.27 237.03 L 580.33 237.14 L 580.38 237.25 L 580.43 237.36 L 580.48 237.48 L 580.53 237.6 L 580.58 237.72 L 580.63 237.84 L 580.68 237.97 L 580.73 238.09 L 580.78 238.22 L 580.83 238.36 L 580.88 238.49 L 580.93 238.63 L 580.98 238.78 L 581.03 238.92 L 581.09 239.07 L 581.14 239.22 L 581.19 239.37 L 581.24 239.53 L 581.29 239.69 L 581.34 239.85 L 581.39 240.02 L 581.44 240.19 L 581.49 240.37 L 581.54 240.54 L 581.59 240.73 L 581.64 240.91 L 581.69 241.1 L 581.74 241.29 L 581.79 241.49 L 581.84 241.69 L 581.89 241.89 L 581.94 242.1 L 581.99 242.32 L 582.04 242.53 L 582.09 242.76 L 582.14 242.98 L 582.19 243.22 L 582.24 243.45 L 582.29 243.7 L 582.34 243.94 L 582.39 244.2 L 582.44 244.46 L 582.49 244.72 L 582.54 244.99 L 582.59 245.27 L 582.64 245.55 L 582.69 245.84 L 582.74 246.14 L 582.79 246.44 L 582.84 246.75 L 582.88 247.07 L 582.93 247.4 L 582.98 247.74 L 583.03 248.08 L 583.08 248.43 L 583.13 248.8 L 583.18 249.17 L 583.23 249.55 L 583.28 249.95 L 583.33 250.35 L 583.38 250.77 L 583.43 251.2 L 583.48 251.64 L 583.53 252.1 L 583.58 252.57 L 583.63 253.06 L 583.67 253.56 L 583.72 254.09 L 583.77 254.63 L 583.82 255.19 L 583.87 255.77 L 583.92 256.38 L 583.97 257.01 L 584.02 257.66 L 584.07 258.35 L 584.12 259.07 L 584.16 259.82 L 584.21 260.61 L 584.26 261.44 L 584.31 262.32 L 584.36 263.25 L 584.41 264.24 L 584.46 265.29 L 584.51 266.42 L 584.55 267.63 L 584.6 268.94 L 584.65 270.36 L 584.7 271.92 L 584.75 273.65 L 584.8 275.58 L 584.85 277.77 L 584.9 280.3 L 584.94 283.29 L 584.99 286.96 L 585.04 291.69 L 585.09 298.35 L 585.14 309.74" stroke="#6366f1" stroke-width="3.47" fill="none"  stroke-linejoin="round" stroke-linecap="round"/></g><line x1="82.09" y1="45" x2="82.09" y2="291" stroke="#71717a" stroke-width="1.11"/><line x1="694.09" y1="45" x2="694.09" y2="291" stroke="#71717a" stroke-width="1.11"/><line x1="82.09" y1="45" x2="694.09" y2="45" stroke="#71717a" stroke-width="1.11"/><line x1="82.09" y1="291" x2="694.09" y2="291" stroke="#71717a" stroke-width="1.11"/><line data-xy-tick="minor" x1="82.09" y1="291" x2="82.09" y2="293.78" stroke="#71717a" stroke-width="0.83"/><line data-xy-tick="minor" x1="100.16" y1="291" x2="100.16" y2="293.78" stroke="#71717a" stroke-width="0.83"/><line data-xy-tick="minor" x1="115.44" y1="291" x2="115.44" y2="293.78" stroke="#71717a" stroke-width="0.83"/><line data-xy-tick="minor" x1="128.68" y1="291" x2="128.68" y2="293.78" stroke="#71717a" stroke-width="0.83"/><line data-xy-tick="minor" x1="140.36" y1="291" x2="140.36" y2="293.78" stroke="#71717a" stroke-width="0.83"/><line data-xy-tick="minor" x1="219.51" y1="291" x2="219.51" y2="293.78" stroke="#71717a" stroke-width="0.83"/><line data-xy-tick="minor" x1="259.71" y1="291" x2="259.71" y2="293.78" stroke="#71717a" stroke-width="0.83"/><line data-xy-tick="minor" x1="288.22" y1="291" x2="288.22" y2="293.78" stroke="#71717a" stroke-width="0.83"/><line data-xy-tick="minor" x1="328.42" y1="291" x2="328.42" y2="293.78" stroke="#71717a" stroke-width="0.83"/><line data-xy-tick="minor" x1="343.7" y1="291" x2="343.7" y2="293.78" stroke="#71717a" stroke-width="0.83"/><line data-xy-tick="minor" x1="356.93" y1="291" x2="356.93" y2="293.78" stroke="#71717a" stroke-width="0.83"/><line data-xy-tick="minor" x1="368.61" y1="291" x2="368.61" y2="293.78" stroke="#71717a" stroke-width="0.83"/><line data-xy-tick="minor" x1="447.76" y1="291" x2="447.76" y2="293.78" stroke="#71717a" stroke-width="0.83"/><line data-xy-tick="minor" x1="487.96" y1="291" x2="487.96" y2="293.78" stroke="#71717a" stroke-width="0.83"/><line data-xy-tick="minor" x1="538.6" y1="291" x2="538.6" y2="293.78" stroke="#71717a" stroke-width="0.83"/><line data-xy-tick="minor" x1="556.67" y1="291" x2="556.67" y2="293.78" stroke="#71717a" stroke-width="0.83"/><line data-xy-tick="minor" x1="571.95" y1="291" x2="571.95" y2="293.78" stroke="#71717a" stroke-width="0.83"/><line data-xy-tick="minor" x1="596.86" y1="291" x2="596.86" y2="293.78" stroke="#71717a" stroke-width="0.83"/><line x1="150.8" y1="291" x2="150.8" y2="295.86" stroke="#3f3f46" stroke-width="1.11"/><line x1="310.34" y1="291" x2="310.34" y2="295.86" stroke="#3f3f46" stroke-width="1.11"/><line x1="379.05" y1="291" x2="379.05" y2="295.86" stroke="#3f3f46" stroke-width="1.11"/><line x1="516.48" y1="291" x2="516.48" y2="295.86" stroke="#3f3f46" stroke-width="1.11"/><line x1="585.19" y1="291" x2="585.19" y2="295.86" stroke="#3f3f46" stroke-width="1.11"/><line x1="653.9" y1="291" x2="653.9" y2="295.86" stroke="#3f3f46" stroke-width="1.11"/><line x1="676.02" y1="291" x2="676.02" y2="295.86" stroke="#3f3f46" stroke-width="1.11"/><line x1="77.23" y1="291" x2="82.09" y2="291" stroke="#3f3f46" stroke-width="1.11"/><line x1="77.23" y1="253.15" x2="82.09" y2="253.15" stroke="#3f3f46" stroke-width="1.11"/><line x1="77.23" y1="215.31" x2="82.09" y2="215.31" stroke="#3f3f46" stroke-width="1.11"/><line x1="77.23" y1="177.46" x2="82.09" y2="177.46" stroke="#3f3f46" stroke-width="1.11"/><line x1="77.23" y1="139.62" x2="82.09" y2="139.62" stroke="#3f3f46" stroke-width="1.11"/><line x1="77.23" y1="101.77" x2="82.09" y2="101.77" stroke="#3f3f46" stroke-width="1.11"/><line x1="77.23" y1="63.92" x2="82.09" y2="63.92" stroke="#3f3f46" stroke-width="1.11"/><g fill="#27272a"><text x="150.8" y="314.06" fill="#3f3f46" font-size="16.67" text-anchor="start" transform="rotate(30 150.8 314.06)">100</text><text x="310.34" y="314.06" fill="#3f3f46" font-size="16.67" text-anchor="start" transform="rotate(30 310.34 314.06)">500</text><text x="379.05" y="314.06" fill="#3f3f46" font-size="16.67" text-anchor="start" transform="rotate(30 379.05 314.06)">1k</text><text x="516.48" y="314.06" fill="#3f3f46" font-size="16.67" text-anchor="start" transform="rotate(30 516.48 314.06)">4k</text><text x="585.19" y="314.06" fill="#3f3f46" font-size="16.67" text-anchor="start" transform="rotate(30 585.19 314.06)">8k</text><text x="653.9" y="314.06" fill="#3f3f46" font-size="16.67" text-anchor="start" transform="rotate(30 653.9 314.06)">16k</text><text x="676.02" y="314.06" fill="#3f3f46" font-size="16.67" text-anchor="start" transform="rotate(30 676.02 314.06)">20k</text><text x="72.37" y="296.83" fill="#3f3f46" font-size="16.67" text-anchor="end">-120</text><text x="72.37" y="258.99" fill="#3f3f46" font-size="16.67" text-anchor="end">-100</text><text x="72.37" y="221.14" fill="#3f3f46" font-size="16.67" text-anchor="end">-80</text><text x="72.37" y="183.29" fill="#3f3f46" font-size="16.67" text-anchor="end">-60</text><text x="72.37" y="145.45" fill="#3f3f46" font-size="16.67" text-anchor="end">-40</text><text x="72.37" y="107.6" fill="#3f3f46" font-size="16.67" text-anchor="end">-20</text><text x="72.37" y="69.76" fill="#3f3f46" font-size="16.67" text-anchor="end">0</text></g><text x="388.09" y="31.11" text-anchor="middle" font-size="22.22" font-weight="400" fill="#27272a">IIR Direct 3:1 Downsampling Filter (16 kHz)</text><text x="388.09" y="370.94" text-anchor="middle" font-size="19.44" font-weight="400" fill="#27272a">Frequency (Hz)</text><text x="22.23" y="168" text-anchor="middle" font-size="19.44" font-weight="400" fill="#27272a" transform="rotate(-90 22.23 168)">Magnitude (dB)</text></svg></svg>