<svg xmlns="http://www.w3.org/2000/svg" width="720" height="380" viewBox="0 0 720 380"><rect width="100%" height="100%" fill="#f4f4f5"/><svg x="0" y="0" width="715" height="380" viewBox="0 0 715 380"><defs><clipPath id="xy-panel-0-clip1"><rect x="71.67" y="45" width="622" height="246"/></clipPath></defs><rect x="71.67" y="45" width="622" height="246" fill="#f4f4f5"/><g><line data-xy-grid="minor" x1="71.67" y1="45" x2="71.67" y2="291" stroke="transparent" stroke-width="1.11" stroke-opacity="0.4"/><line data-xy-grid="minor" x1="90.04" y1="45" x2="90.04" y2="291" stroke="transparent" stroke-width="1.11" stroke-opacity="0.4"/><line data-xy-grid="minor" x1="105.57" y1="45" x2="105.57" y2="291" stroke="transparent" stroke-width="1.11" stroke-opacity="0.4"/><line data-xy-grid="minor" x1="119.03" y1="45" x2="119.03" y2="291" stroke="transparent" stroke-width="1.11" stroke-opacity="0.4"/><line data-xy-grid="minor" x1="130.89" y1="45" x2="130.89" y2="291" stroke="transparent" stroke-width="1.11" stroke-opacity="0.4"/><line data-xy-grid="minor" x1="211.34" y1="45" x2="211.34" y2="291" stroke="transparent" stroke-width="1.11" stroke-opacity="0.4"/><line data-xy-grid="minor" x1="252.19" y1="45" x2="252.19" y2="291" stroke="transparent" stroke-width="1.11" stroke-opacity="0.4"/><line data-xy-grid="minor" x1="281.17" y1="45" x2="281.17" y2="291" stroke="transparent" stroke-width="1.11" stroke-opacity="0.4"/><line data-xy-grid="minor" x1="322.02" y1="45" x2="322.02" y2="291" stroke="transparent" stroke-width="1.11" stroke-opacity="0.4"/><line data-xy-grid="minor" x1="337.55" y1="45" x2="337.55" y2="291" stroke="transparent" stroke-width="1.11" stroke-opacity="0.4"/><line data-xy-grid="minor" x1="351.01" y1="45" x2="351.01" y2="291" stroke="transparent" stroke-width="1.11" stroke-opacity="0.4"/><line data-xy-grid="minor" x1="362.87" y1="45" x2="362.87" y2="291" stroke="transparent" stroke-width="1.11" stroke-opacity="0.4"/><line data-xy-grid="minor" x1="443.32" y1="45" x2="443.32" y2="291" stroke="transparent" stroke-width="1.11" stroke-opacity="0.4"/><line data-xy-grid="minor" x1="484.17" y1="45" x2="484.17" y2="291" stroke="transparent" stroke-width="1.11" stroke-opacity="0.4"/><line data-xy-grid="minor" x1="535.64" y1="45" x2="535.64" y2="291" stroke="transparent" stroke-width="1.11" stroke-opacity="0.4"/><line data-xy-grid="minor" x1="554.01" y1="45" x2="554.01" y2="291" stroke="transparent" stroke-width="1.11" stroke-opacity="0.4"/><line data-xy-grid="minor" x1="569.54" y1="45" x2="569.54" y2="291" stroke="transparent" stroke-width="1.11" stroke-opacity="0.4"/><line data-xy-grid="minor" x1="594.86" y1="45" x2="594.86" y2="291" stroke="transparent" stroke-width="1.11" stroke-opacity="0.4"/><line x1="141.51" y1="45" x2="141.51" y2="291" stroke="#d4d4d8" stroke-width="1.11" stroke-opacity="0.4"/><line x1="303.66" y1="45" x2="303.66" y2="291" stroke="#d4d4d8" stroke-width="1.11" stroke-opacity="0.4"/><line x1="373.49" y1="45" x2="373.49" y2="291" stroke="#d4d4d8" stroke-width="1.11" stroke-opacity="0.4"/><line x1="513.16" y1="45" x2="513.16" y2="291" stroke="#d4d4d8" stroke-width="1.11" stroke-opacity="0.4"/><line x1="582.99" y1="45" x2="582.99" y2="291" stroke="#d4d4d8" stroke-width="1.11" stroke-opacity="0.4"/><line x1="652.82" y1="45" x2="652.82" y2="291" stroke="#d4d4d8" stroke-width="1.11" stroke-opacity="0.4"/><line x1="675.3" y1="45" x2="675.3" y2="291" stroke="#d4d4d8" stroke-width="1.11" stroke-opacity="0.4"/><line x1="71.67" y1="269.42" x2="693.67" y2="269.42" stroke="#d4d4d8" stroke-width="1.11" stroke-opacity="0.4"/><line x1="71.67" y1="226.26" x2="693.67" y2="226.26" stroke="#d4d4d8" stroke-width="1.11" stroke-opacity="0.4"/><line x1="71.67" y1="183.11" x2="693.67" y2="183.11" stroke="#d4d4d8" stroke-width="1.11" stroke-opacity="0.4"/><line x1="71.67" y1="139.95" x2="693.67" y2="139.95" stroke="#d4d4d8" stroke-width="1.11" stroke-opacity="0.4"/><line x1="71.67" y1="96.79" x2="693.67" y2="96.79" stroke="#d4d4d8" stroke-width="1.11" stroke-opacity="0.4"/><line x1="71.67" y1="53.63" x2="693.67" y2="53.63" stroke="#d4d4d8" stroke-width="1.11" stroke-opacity="0.4"/></g><g clip-path="url(#xy-panel-0-clip1)"><path d="M 87.65 72.65 L 106.02 72.73 L 121.55 72.83 L 135.01 72.94 L 146.87 73.06 L 157.49 73.2 L 167.09 73.35 L 175.86 73.51 L 183.92 73.68 L 191.39 73.85 L 198.34 74.04 L 204.84 74.23 L 210.95 74.43 L 216.71 74.64 L 222.15 74.85 L 227.32 75.06 L 232.24 75.28 L 236.92 75.5 L 241.4 75.72 L 245.69 75.94 L 249.8 76.16 L 253.75 76.38 L 257.56 76.6 L 261.22 76.81 L 264.75 77.02 L 268.17 77.23 L 271.47 77.44 L 274.67 77.64 L 277.77 77.83 L 280.78 78.02 L 283.7 78.21 L 286.54 78.39 L 289.3 78.57 L 291.99 78.74 L 294.6 78.9 L 297.15 79.06 L 299.64 79.22 L 302.07 79.37 L 304.44 79.51 L 306.76 79.65 L 309.02 79.79 L 311.23 79.92 L 313.4 80.05 L 315.52 80.18 L 317.6 80.3 L 319.63 80.42 L 321.63 80.53 L 323.59 80.65 L 325.51 80.76 L 327.39 80.86 L 329.24 80.97 L 331.05 81.07 L 332.84 81.17 L 334.59 81.27 L 336.31 81.36 L 338 81.46 L 339.67 81.55 L 341.31 81.64 L 342.92 81.73 L 344.51 81.81 L 346.07 81.9 L 347.61 81.98 L 349.12 82.07 L 350.61 82.15 L 352.08 82.23 L 353.53 82.31 L 354.96 82.38 L 356.37 82.46 L 357.76 82.53 L 359.13 82.61 L 360.48 82.68 L 361.82 82.75 L 363.14 82.82 L 364.44 82.89 L 365.72 82.96 L 366.99 83.02 L 368.24 83.09 L 369.47 83.16 L 370.7 83.22 L 371.9 83.29 L 373.09 83.35 L 374.27 83.42 L 375.44 83.48 L 376.59 83.54 L 377.73 83.61 L 378.85 83.67 L 379.97 83.73 L 381.07 83.79 L 382.16 83.85 L 383.23 83.91 L 384.3 83.98 L 385.36 84.04 L 386.4 84.1 L 387.43 84.16 L 388.46 84.22 L 389.47 84.27 L 390.47 84.33 L 391.46 84.39 L 392.45 84.45 L 393.42 84.51 L 394.38 84.57 L 395.34 84.62 L 396.29 84.68 L 397.22 84.74 L 398.15 84.79 L 399.07 84.85 L 399.98 84.91 L 400.89 84.96 L 401.78 85.02 L 402.67 85.07 L 403.55 85.13 L 404.42 85.18 L 405.29 85.24 L 406.14 85.29 L 406.99 85.34 L 407.84 85.4 L 408.67 85.45 L 409.5 85.51 L 410.32 85.56 L 411.14 85.61 L 411.95 85.66 L 412.75 85.72 L 413.55 85.77 L 414.34 85.82 L 415.12 85.87 L 415.9 85.93 L 416.67 85.98 L 417.44 86.03 L 418.2 86.08 L 418.95 86.13 L 419.7 86.18 L 420.45 86.24 L 421.19 86.29 L 421.92 86.34 L 422.65 86.39 L 423.37 86.44 L 424.08 86.49 L 424.8 86.54 L 425.5 86.6 L 426.21 86.65 L 426.9 86.7 L 427.6 86.75 L 428.28 86.8 L 428.97 86.86 L 429.64 86.91 L 430.32 86.96 L 430.99 87.02 L 431.65 87.07 L 432.31 87.13 L 432.97 87.18 L 433.62 87.24 L 434.27 87.3 L 434.91 87.35 L 435.55 87.41 L 436.19 87.47 L 436.82 87.53 L 437.45 87.59 L 438.07 87.65 L 438.69 87.71 L 439.31 87.77 L 439.92 87.83 L 440.53 87.89 L 441.13 87.95 L 441.74 88.01 L 442.33 88.08 L 442.93 88.14 L 443.52 88.2 L 444.11 88.26 L 444.69 88.32 L 445.27 88.39 L 445.85 88.45 L 446.42 88.51 L 446.99 88.57 L 447.56 88.63 L 448.13 88.69 L 448.69 88.75 L 449.25 88.81 L 449.8 88.87 L 450.35 88.93 L 450.9 88.99 L 451.45 89.04 L 451.99 89.1 L 452.53 89.16 L 453.07 89.21 L 453.6 89.26 L 454.13 89.32 L 454.66 89.37 L 455.19 89.42 L 455.71 89.47 L 456.23 89.52 L 456.75 89.57 L 457.27 89.62 L 457.78 89.66 L 458.29 89.71 L 458.8 89.75 L 459.3 89.8 L 459.8 89.84 L 460.3 89.89 L 460.8 89.93 L 461.3 89.97 L 461.79 90.01 L 462.28 90.05 L 462.77 90.1 L 463.25 90.14 L 463.74 90.18 L 464.22 90.22 L 464.7 90.26 L 465.17 90.3 L 465.65 90.33 L 466.12 90.37 L 466.59 90.41 L 467.06 90.45 L 467.52 90.49 L 467.98 90.53 L 468.45 90.57 L 468.9 90.61 L 469.36 90.64 L 469.82 90.68 L 470.27 90.72 L 470.72 90.76 L 471.17 90.8 L 471.62 90.84 L 472.06 90.87 L 472.5 90.91 L 472.94 90.95 L 473.38 90.99 L 473.82 91.03 L 474.26 91.07 L 474.69 91.11 L 475.12 91.14 L 475.55 91.18 L 475.98 91.22 L 476.4 91.26 L 476.83 91.3 L 477.25 91.34 L 477.67 91.37 L 478.09 91.41 L 478.51 91.45 L 478.92 91.49 L 479.34 91.53 L 479.75 91.57 L 480.16 91.6 L 480.57 91.64 L 480.97 91.68 L 481.38 91.72 L 481.78 91.76 L 482.19 91.8 L 482.59 91.84 L 482.99 91.88 L 483.38 91.92 L 483.78 91.96 L 484.17 92 L 484.57 92.04 L 484.96 92.08 L 485.35 92.12 L 485.73 92.16 L 486.12 92.2 L 486.51 92.24 L 486.89 92.28 L 487.27 92.32 L 487.65 92.36 L 488.03 92.4 L 488.41 92.44 L 488.79 92.48 L 489.16 92.52 L 489.54 92.56 L 489.91 92.6 L 490.28 92.64 L 490.65 92.69 L 491.02 92.73 L 491.39 92.77 L 491.75 92.81 L 492.12 92.85 L 492.48 92.89 L 492.84 92.93 L 493.2 92.97 L 493.56 93.01 L 493.92 93.05 L 494.27 93.09 L 494.63 93.12 L 494.98 93.16 L 495.34 93.2 L 495.69 93.24 L 496.04 93.28 L 496.39 93.31 L 496.74 93.35 L 497.08 93.38 L 497.43 93.42 L 497.77 93.46 L 498.12 93.49 L 498.46 93.52 L 498.8 93.56 L 499.14 93.59 L 499.48 93.63 L 499.82 93.66 L 500.15 93.69 L 500.49 93.72 L 500.82 93.76 L 501.15 93.79 L 501.49 93.82 L 501.82 93.85 L 502.15 93.88 L 502.48 93.91 L 502.8 93.94 L 503.13 93.97 L 503.46 94 L 503.78 94.03 L 504.1 94.07 L 504.43 94.1 L 504.75 94.13 L 505.07 94.16 L 505.39 94.19 L 505.71 94.22 L 506.02 94.25 L 506.34 94.28 L 506.65 94.31 L 506.97 94.34 L 507.28 94.37 L 507.59 94.4 L 507.91 94.43 L 508.22 94.46 L 508.53 94.49 L 508.83 94.53 L 509.14 94.56 L 509.45 94.59 L 509.75 94.62 L 510.06 94.65 L 510.36 94.68 L 510.67 94.72 L 510.97 94.75 L 511.27 94.78 L 511.57 94.81 L 511.87 94.84 L 512.17 94.88 L 512.47 94.91 L 512.76 94.94 L 513.06 94.97 L 513.35 95 L 513.65 95.03 L 513.94 95.06 L 514.23 95.09 L 514.52 95.12 L 514.82 95.15 L 515.11 95.18 L 515.39 95.21 L 515.68 95.24 L 515.97 95.27 L 516.26 95.3 L 516.54 95.33 L 516.83 95.36 L 517.11 95.39 L 517.4 95.42 L 517.68 95.45 L 517.96 95.48 L 518.24 95.51 L 518.52 95.54 L 518.8 95.56 L 519.08 95.59 L 519.36 95.62 L 519.63 95.65 L 519.91 95.68 L 520.19 95.71 L 520.46 95.74 L 520.74 95.76 L 521.01 95.79 L 521.28 95.82 L 521.55 95.85 L 521.82 95.87 L 522.09 95.9 L 522.36 95.93 L 522.63 95.95 L 522.9 95.98 L 523.17 96 L 523.44 96.03 L 523.7 96.05 L 523.97 96.07 L 524.23 96.09 L 524.5 96.11 L 524.76 96.13 L 525.02 96.14 L 525.28 96.16 L 525.55 96.17 L 525.81 96.18 L 526.07 96.19 L 526.33 96.2 L 526.58 96.2 L 526.84 96.21 L 527.1 96.21 L 527.36 96.21 L 527.61 96.21 L 527.87 96.2 L 528.12 96.19 L 528.38 96.19 L 528.63 96.17 L 528.88 96.16 L 529.14 96.15 L 529.39 96.13 L 529.64 96.11 L 529.89 96.09 L 530.14 96.07 L 530.39 96.05 L 530.64 96.02 L 530.88 96 L 531.13 95.97 L 531.38 95.95 L 531.62 95.92 L 531.87 95.9 L 532.11 95.87 L 532.36 95.84 L 532.6 95.82 L 532.84 95.79 L 533.09 95.77 L 533.33 95.75 L 533.57 95.73 L 533.81 95.71 L 534.05 95.69 L 534.29 95.67 L 534.53 95.65 L 534.77 95.64 L 535.01 95.63 L 535.24 95.62 L 535.48 95.61 L 535.72 95.61 L 535.95 95.6 L 536.19 95.6 L 536.42 95.6 L 536.66 95.61 L 536.89 95.61 L 537.12 95.62 L 537.35 95.63 L 537.59 95.64 L 537.82 95.66 L 538.05 95.67 L 538.28 95.69 L 538.51 95.71 L 538.74 95.73 L 538.97 95.75 L 539.19 95.77 L 539.42 95.8 L 539.65 95.83 L 539.88 95.85 L 540.1 95.88 L 540.33 95.91 L 540.55 95.94 L 540.78 95.97 L 541 96.01 L 541.23 96.04 L 541.45 96.07 L 541.67 96.11 L 541.89 96.14 L 542.12 96.18 L 542.34 96.21 L 542.56 96.25 L 542.78 96.28 L 543 96.32 L 543.22 96.36 L 543.44 96.39 L 543.65 96.43 L 543.87 96.47 L 544.09 96.5 L 544.31 96.54 L 544.52 96.57 L 544.74 96.61 L 544.95 96.65 L 545.17 96.68 L 545.38 96.72 L 545.6 96.75 L 545.81 96.78 L 546.02 96.82 L 546.24 96.85 L 546.45 96.88 L 546.66 96.92 L 546.87 96.95 L 547.08 96.98 L 547.29 97.01 L 547.5 97.04 L 547.71 97.07 L 547.92 97.1 L 548.13 97.13 L 548.34 97.16 L 548.55 97.19 L 548.76 97.22 L 548.96 97.25 L 549.17 97.28 L 549.38 97.3 L 549.58 97.33 L 549.79 97.36 L 549.99 97.38 L 550.2 97.41 L 550.4 97.44 L 550.6 97.46 L 550.81 97.49 L 551.01 97.51 L 551.21 97.54 L 551.42 97.57 L 551.62 97.59 L 551.82 97.62 L 552.02 97.64 L 552.22 97.67 L 552.42 97.7 L 552.62 97.72 L 552.82 97.75 L 553.02 97.78 L 553.22 97.8 L 553.41 97.83 L 553.61 97.85 L 553.81 97.88 L 554.01 97.91 L 554.2 97.93 L 554.4 97.96 L 554.6 97.99 L 554.79 98.01 L 554.99 98.04 L 555.18 98.06 L 555.37 98.09 L 555.57 98.11 L 555.76 98.14 L 555.96 98.16 L 556.15 98.19 L 556.34 98.21 L 556.53 98.24 L 556.72 98.26 L 556.92 98.28 L 557.11 98.31 L 557.3 98.33 L 557.49 98.35 L 557.68 98.37 L 557.87 98.39 L 558.06 98.41 L 558.25 98.44 L 558.43 98.46 L 558.62 98.47 L 558.81 98.49 L 559 98.51 L 559.18 98.53 L 559.37 98.55 L 559.56 98.57 L 559.74 98.58 L 559.93 98.6 L 560.11 98.62 L 560.3 98.63 L 560.48 98.65 L 560.67 98.66 L 560.85 98.68 L 561.04 98.7 L 561.22 98.71 L 561.4 98.72 L 561.59 98.74 L 561.77 98.75 L 561.95 98.77 L 562.13 98.78 L 562.31 98.8 L 562.49 98.81 L 562.67 98.82 L 562.85 98.84 L 563.03 98.85 L 563.21 98.87 L 563.39 98.88 L 563.57 98.9 L 563.75 98.91 L 563.93 98.93 L 564.11 98.95 L 564.29 98.96 L 564.46 98.98 L 564.64 99 L 564.82 99.02 L 564.99 99.04 L 565.17 99.06 L 565.35 99.09 L 565.52 99.11 L 565.7 99.14 L 565.87 99.16 L 566.05 99.19 L 566.22 99.22 L 566.4 99.25 L 566.57 99.28 L 566.74 99.31 L 566.92 99.34 L 567.09 99.38 L 567.26 99.41 L 567.43 99.45 L 567.61 99.49 L 567.78 99.53 L 567.95 99.57 L 568.12 99.61 L 568.29 99.65 L 568.46 99.7 L 568.63 99.74 L 568.8 99.79 L 568.97 99.84 L 569.14 99.88 L 569.31 99.93 L 569.48 99.98 L 569.65 100.03 L 569.82 100.08 L 569.99 100.13 L 570.15 100.18 L 570.32 100.23 L 570.49 100.28 L 570.66 100.33 L 570.82 100.38 L 570.99 100.43 L 571.15 100.49 L 571.32 100.54 L 571.49 100.59 L 571.65 100.64 L 571.82 100.69 L 571.98 100.73 L 572.15 100.78 L 572.31 100.83 L 572.47 100.88 L 572.64 100.92 L 572.8 100.97 L 572.96 101.01 L 573.13 101.05 L 573.29 101.1 L 573.45 101.14 L 573.61 101.18 L 573.78 101.22 L 573.94 101.25 L 574.1 101.29 L 574.26 101.33 L 574.42 101.36 L 574.58 101.39 L 574.74 101.42 L 574.9 101.45 L 575.06 101.48 L 575.22 101.51 L 575.38 101.54 L 575.54 101.56 L 575.7 101.59 L 575.86 101.61 L 576.01 101.63 L 576.17 101.66 L 576.33 101.68 L 576.49 101.7 L 576.65 101.71 L 576.8 101.73 L 576.96 101.75 L 577.12 101.77 L 577.27 101.78 L 577.43 101.8 L 577.58 101.81 L 577.74 101.83 L 577.89 101.84 L 578.05 101.85 L 578.2 101.87 L 578.36 101.88 L 578.51 101.9 L 578.67 101.91 L 578.82 101.93 L 578.98 101.94 L 579.13 101.96 L 579.28 101.97 L 579.44 101.99 L 579.59 102.01 L 579.74 102.03 L 579.89 102.05 L 580.04 102.07 L 580.2 102.09 L 580.35 102.11 L 580.5 102.14 L 580.65 102.16 L 580.8 102.19 L 580.95 102.21 L 581.1 102.24 L 581.25 102.27 L 581.4 102.3 L 581.55 102.33 L 581.7 102.37 L 581.85 102.4 L 582 102.44 L 582.15 102.48 L 582.3 102.51 L 582.45 102.55 L 582.6 102.59 L 582.74 102.64 L 582.89 102.68 L 583.04 102.73 L 583.19 102.77 L 583.33 102.82 L 583.48 102.87 L 583.63 102.92 L 583.77 102.97 L 583.92 103.02 L 584.07 103.07 L 584.21 103.13 L 584.36 103.18 L 584.5 103.24 L 584.65 103.29 L 584.79 103.35 L 584.94 103.41 L 585.08 103.47 L 585.23 103.52 L 585.37 103.58 L 585.52 103.64 L 585.66 103.7 L 585.8 103.76 L 585.95 103.82 L 586.09 103.88 L 586.23 103.95 L 586.38 104.01 L 586.52 104.07 L 586.66 104.13 L 586.8 104.19 L 586.95 104.25 L 587.09 104.31 L 587.23 104.37 L 587.37 104.43 L 587.51 104.49 L 587.65 104.55 L 587.79 104.61 L 587.93 104.67 L 588.07 104.72 L 588.21 104.78 L 588.35 104.84 L 588.49 104.9 L 588.63 104.96 L 588.77 105.01 L 588.91 105.07 L 589.05 105.13 L 589.19 105.19 L 589.33 105.25 L 589.47 105.31 L 589.61 105.37 L 589.74 105.43 L 589.88 105.49 L 590.02 105.55 L 590.16 105.61 L 590.29 105.67 L 590.43 105.74 L 590.57 105.8 L 590.71 105.87 L 590.84 105.94 L 590.98 106 L 591.11 106.07 L 591.25 106.14 L 591.39 106.21 L 591.52 106.28 L 591.66 106.36 L 591.79 106.43 L 591.93 106.5 L 592.06 106.58 L 592.2 106.65 L 592.33 106.73 L 592.47 106.81 L 592.6 106.88 L 592.74 106.96 L 592.87 107.04 L 593 107.11 L 593.14 107.19 L 593.27 107.27 L 593.4 107.34 L 593.54 107.42 L 593.67 107.5 L 593.8 107.57 L 593.93 107.64 L 594.07 107.72 L 594.2 107.79 L 594.33 107.86 L 594.46 107.93 L 594.59 107.99 L 594.73 108.06 L 594.86 108.13 L 594.99 108.19 L 595.12 108.26 L 595.25 108.32 L 595.38 108.38 L 595.51 108.44 L 595.64 108.5 L 595.77 108.56 L 595.9 108.61 L 596.03 108.67 L 596.16 108.73 L 596.29 108.78 L 596.42 108.84 L 596.55 108.89 L 596.68 108.95 L 596.81 109 L 596.93 109.06 L 597.06 109.12 L 597.19 109.17 L 597.32 109.23 L 597.45 109.29 L 597.57 109.34 L 597.7 109.4 L 597.83 109.46 L 597.96 109.52 L 598.08 109.58 L 598.21 109.64 L 598.34 109.71 L 598.46 109.77 L 598.59 109.83 L 598.72 109.9 L 598.84 109.96 L 598.97 110.03 L 599.1 110.09 L 599.22 110.15 L 599.35 110.22 L 599.47 110.28 L 599.6 110.35 L 599.72 110.41 L 599.85 110.47 L 599.97 110.53 L 600.1 110.59 L 600.22 110.65 L 600.35 110.7 L 600.47 110.76 L 600.59 110.81 L 600.72 110.86 L 600.84 110.91 L 600.96 110.95 L 601.09 110.99 L 601.21 111.03 L 601.33 111.07 L 601.46 111.1 L 601.58 111.13 L 601.7 111.16 L 601.82 111.19 L 601.95 111.21 L 602.07 111.23 L 602.19 111.25 L 602.31 111.26 L 602.44 111.28 L 602.56 111.29 L 602.68 111.29 L 602.8 111.3 L 602.92 111.3 L 603.04 111.31 L 603.16 111.31 L 603.28 111.31 L 603.4 111.31 L 603.52 111.31 L 603.64 111.3 L 603.76 111.3 L 603.88 111.3 L 604 111.29 L 604.12 111.29 L 604.24 111.28 L 604.36 111.28 L 604.48 111.28 L 604.6 111.28 L 604.72 111.27 L 604.84 111.27 L 604.96 111.27 L 605.08 111.27 L 605.2 111.28 L 605.31 111.28 L 605.43 111.28 L 605.55 111.29 L 605.67 111.29 L 605.79 111.3 L 605.9 111.31 L 606.02 111.32 L 606.14 111.33 L 606.26 111.34 L 606.37 111.36 L 606.49 111.37 L 606.61 111.39 L 606.72 111.4 L 606.84 111.42 L 606.96 111.44 L 607.07 111.46 L 607.19 111.48 L 607.3 111.5 L 607.42 111.52 L 607.54 111.55 L 607.65 111.57 L 607.77 111.6 L 607.88 111.62 L 608 111.65 L 608.11 111.68 L 608.23 111.71 L 608.34 111.73 L 608.46 111.76 L 608.57 111.79 L 608.69 111.82 L 608.8 111.86 L 608.91 111.89 L 609.03 111.92 L 609.14 111.95 L 609.26 111.99 L 609.37 112.02 L 609.48 112.05 L 609.6 112.09 L 609.71 112.12 L 609.82 112.16 L 609.94 112.19 L 610.05 112.23 L 610.16 112.27 L 610.27 112.3 L 610.39 112.34 L 610.5 112.38 L 610.61 112.41 L 610.72 112.45 L 610.84 112.49 L 610.95 112.53 L 611.06 112.57 L 611.17 112.61 L 611.28 112.66 L 611.39 112.7 L 611.51 112.75 L 611.62 112.79 L 611.73 112.84 L 611.84 112.89 L 611.95 112.94 L 612.06 113 L 612.17 113.05 L 612.28 113.11 L 612.39 113.17 L 612.5 113.24 L 612.61 113.31 L 612.72 113.38 L 612.83 113.45 L 612.94 113.52 L 613.05 113.6 L 613.16 113.69 L 613.27 113.78 L 613.38 113.87 L 613.49 113.96 L 613.6 114.06 L 613.7 114.16 L 613.81 114.27 L 613.92 114.37 L 614.03 114.49 L 614.14 114.6 L 614.25 114.72 L 614.36 114.84 L 614.46 114.97 L 614.57 115.1 L 614.68 115.23 L 614.79 115.36 L 614.89 115.49 L 615 115.63 L 615.11 115.77 L 615.22 115.91 L 615.32 116.05 L 615.43 116.19 L 615.54 116.34 L 615.64 116.48 L 615.75 116.62 L 615.86 116.77 L 615.96 116.91 L 616.07 117.05 L 616.18 117.2 L 616.28 117.34 L 616.39 117.48 L 616.49 117.63 L 616.6 117.77 L 616.71 117.92 L 616.81 118.06 L 616.92 118.21 L 617.02 118.36 L 617.13 118.51 L 617.23 118.66 L 617.34 118.81 L 617.44 118.97 L 617.55 119.13 L 617.65 119.3 L 617.76 119.47 L 617.86 119.64 L 617.97 119.82 L 618.07 120.01 L 618.17 120.2 L 618.28 120.4 L 618.38 120.61 L 618.49 120.83 L 618.59 121.06 L 618.69 121.3 L 618.8 121.54 L 618.9 121.8 L 619 122.06 L 619.11 122.34 L 619.21 122.63 L 619.31 122.92 L 619.42 123.23 L 619.52 123.55 L 619.62 123.87 L 619.72 124.21 L 619.83 124.55 L 619.93 124.9 L 620.03 125.26 L 620.13 125.62 L 620.23 125.99 L 620.34 126.37 L 620.44 126.75 L 620.54 127.13 L 620.64 127.51 L 620.74 127.89 L 620.84 128.27 L 620.95 128.64 L 621.05 129.02 L 621.15 129.39 L 621.25 129.75 L 621.35 130.1 L 621.45 130.44 L 621.55 130.78 L 621.65 131.1 L 621.75 131.41 L 621.85 131.7 L 621.95 131.98 L 622.05 132.25 L 622.15 132.5 L 622.25 132.73 L 622.35 132.95 L 622.45 133.15 L 622.55 133.34 L 622.65 133.5 L 622.75 133.65 L 622.85 133.78 L 622.95 133.9 L 623.05 134 L 623.15 134.08 L 623.25 134.15 L 623.35 134.21 L 623.45 134.25 L 623.54 134.28 L 623.64 134.29 L 623.74 134.3 L 623.84 134.29 L 623.94 134.28 L 624.04 134.26 L 624.13 134.23 L 624.23 134.19 L 624.33 134.15 L 624.43 134.1 L 624.53 134.05 L 624.62 133.99 L 624.72 133.93 L 624.82 133.87 L 624.92 133.81 L 625.01 133.75 L 625.11 133.69 L 625.21 133.63 L 625.31 133.56 L 625.4 133.5 L 625.5 133.45 L 625.6 133.39 L 625.69 133.34 L 625.79 133.29 L 625.89 133.25 L 625.98 133.21 L 626.08 133.17 L 626.17 133.14 L 626.27 133.11 L 626.37 133.09 L 626.46 133.08 L 626.56 133.07 L 626.65 133.06 L 626.75 133.07 L 626.84 133.07 L 626.94 133.09 L 627.04 133.11 L 627.13 133.14 L 627.23 133.18 L 627.32 133.22 L 627.42 133.27 L 627.51 133.33 L 627.61 133.39 L 627.7 133.47 L 627.8 133.54 L 627.89 133.63 L 627.98 133.72 L 628.08 133.82 L 628.17 133.92 L 628.27 134.03 L 628.36 134.14 L 628.46 134.27 L 628.55 134.39 L 628.64 134.52 L 628.74 134.66 L 628.83 134.8 L 628.92 134.94 L 629.02 135.09 L 629.11 135.24 L 629.2 135.4 L 629.3 135.55 L 629.39 135.71 L 629.48 135.87 L 629.58 136.04 L 629.67 136.2 L 629.76 136.37 L 629.86 136.54 L 629.95 136.7 L 630.04 136.87 L 630.13 137.04 L 630.23 137.21 L 630.32 137.37 L 630.41 137.54 L 630.5 137.7 L 630.59 137.86 L 630.69 138.02 L 630.78 138.18 L 630.87 138.33 L 630.96 138.48 L 631.05 138.63 L 631.14 138.77 L 631.24 138.92 L 631.33 139.05 L 631.42 139.19 L 631.51 139.32 L 631.6 139.44 L 631.69 139.56 L 631.78 139.68 L 631.87 139.79 L 631.96 139.89 L 632.06 139.99 L 632.15 140.09 L 632.24 140.18 L 632.33 140.27 L 632.42 140.36 L 632.51 140.43 L 632.6 140.51 L 632.69 140.58 L 632.78 140.65 L 632.87 140.71 L 632.96 140.78 L 633.05 140.84 L 633.14 140.89 L 633.23 140.95 L 633.32 141 L 633.41 141.05 L 633.5 141.1 L 633.59 141.15 L 633.67 141.2 L 633.76 141.25 L 633.85 141.3 L 633.94 141.35 L 634.03 141.4 L 634.12 141.45 L 634.21 141.5 L 634.3 141.55 L 634.39 141.61 L 634.47 141.66 L 634.56 141.72 L 634.65 141.78 L 634.74 141.83 L 634.83 141.89 L 634.92 141.95 L 635 142.01 L 635.09 142.07 L 635.18 142.13 L 635.27 142.19 L 635.36 142.25 L 635.44 142.31 L 635.53 142.36 L 635.62 142.42 L 635.71 142.47 L 635.79 142.52 L 635.88 142.57 L 635.97 142.61 L 636.06 142.65 L 636.14 142.69 L 636.23 142.72 L 636.32 142.75 L 636.4 142.77 L 636.49 142.79 L 636.58 142.8 L 636.66 142.81 L 636.75 142.82 L 636.84 142.82 L 636.92 142.81 L 637.01 142.8 L 637.1 142.79 L 637.18 142.77 L 637.27 142.75 L 637.35 142.72 L 637.44 142.69 L 637.53 142.66 L 637.61 142.63 L 637.7 142.59 L 637.78 142.55 L 637.87 142.51 L 637.96 142.47 L 638.04 142.43 L 638.13 142.39 L 638.21 142.34 L 638.3 142.3 L 638.38 142.26 L 638.47 142.22 L 638.55 142.19 L 638.64 142.15 L 638.72 142.12 L 638.81 142.09 L 638.89 142.06 L 638.98 142.03 L 639.06 142.01 L 639.15 141.98 L 639.23 141.96 L 639.31 141.95 L 639.4 141.93 L 639.48 141.92 L 639.57 141.91 L 639.65 141.91 L 639.74 141.9 L 639.82 141.9 L 639.9 141.9 L 639.99 141.9 L 640.07 141.9 L 640.15 141.9 L 640.24 141.91 L 640.32 141.91 L 640.41 141.91 L 640.49 141.92 L 640.57 141.92 L 640.66 141.92 L 640.74 141.92 L 640.82 141.93 L 640.9 141.93 L 640.99 141.93 L 641.07 141.93 L 641.15 141.92 L 641.24 141.92 L 641.32 141.92 L 641.4 141.91 L 641.48 141.91 L 641.57 141.9 L 641.65 141.89 L 641.73 141.88 L 641.81 141.87 L 641.9 141.87 L 641.98 141.86 L 642.06 141.85 L 642.14 141.84 L 642.23 141.83 L 642.31 141.83 L 642.39 141.82 L 642.47 141.82 L 642.55 141.81 L 642.63 141.81 L 642.72 141.81 L 642.8 141.82 L 642.88 141.82 L 642.96 141.83 L 643.04 141.84 L 643.12 141.86 L 643.2 141.88 L 643.29 141.9 L 643.37 141.92 L 643.45 141.95 L 643.53 141.98 L 643.61 142.02 L 643.69 142.05 L 643.77 142.1 L 643.85 142.14 L 643.93 142.19 L 644.01 142.24 L 644.09 142.3 L 644.17 142.36 L 644.25 142.42 L 644.33 142.49 L 644.41 142.56 L 644.49 142.63 L 644.57 142.71 L 644.65 142.79 L 644.73 142.87 L 644.81 142.96 L 644.89 143.05 L 644.97 143.14 L 645.05 143.23 L 645.13 143.33 L 645.21 143.42 L 645.29 143.52 L 645.37 143.63 L 645.45 143.73 L 645.53 143.84 L 645.61 143.95 L 645.69 144.06 L 645.77 144.17 L 645.85 144.28 L 645.93 144.39 L 646.01 144.51 L 646.09 144.62 L 646.16 144.74 L 646.24 144.86 L 646.32 144.97 L 646.4 145.09 L 646.48 145.21 L 646.56 145.33 L 646.64 145.45 L 646.71 145.57 L 646.79 145.68 L 646.87 145.8 L 646.95 145.92 L 647.03 146.04 L 647.11 146.15 L 647.18 146.27 L 647.26 146.39 L 647.34 146.5 L 647.42 146.62 L 647.5 146.73 L 647.57 146.85 L 647.65 146.96 L 647.73 147.07 L 647.81 147.19 L 647.88 147.3 L 647.96 147.41 L 648.04 147.53 L 648.12 147.64 L 648.19 147.76 L 648.27 147.87 L 648.35 147.99 L 648.42 148.11 L 648.5 148.22 L 648.58 148.34 L 648.66 148.46 L 648.73 148.59 L 648.81 148.71 L 648.89 148.84 L 648.96 148.97 L 649.04 149.1 L 649.12 149.23 L 649.19 149.37 L 649.27 149.51 L 649.35 149.65 L 649.42 149.79 L 649.5 149.94 L 649.57 150.09 L 649.65 150.24 L 649.73 150.39 L 649.8 150.54 L 649.88 150.7 L 649.95 150.85 L 650.03 151.01 L 650.11 151.17 L 650.18 151.33 L 650.26 151.49 L 650.33 151.65 L 650.41 151.81 L 650.48 151.97 L 650.56 152.12 L 650.64 152.28 L 650.71 152.43 L 650.79 152.58 L 650.86 152.72 L 650.94 152.86 L 651.01 153 L 651.09 153.14 L 651.16 153.27 L 651.24 153.39 L 651.31 153.51 L 651.39 153.63 L 651.46 153.74 L 651.54 153.84 L 651.61 153.94 L 651.69 154.04 L 651.76 154.13 L 651.83 154.21 L 651.91 154.29 L 651.98 154.37 L 652.06 154.44 L 652.13 154.51 L 652.21 154.57 L 652.28 154.63 L 652.36 154.69 L 652.43 154.74 L 652.5 154.8 L 652.58 154.85 L 652.65 154.9 L 652.73 154.95 L 652.8 155 L 652.87 155.06 L 652.95 155.11 L 653.02 155.16 L 653.09 155.21 L 653.17 155.27 L 653.24 155.32 L 653.31 155.38 L 653.39 155.44 L 653.46 155.5 L 653.53 155.56 L 653.61 155.62 L 653.68 155.68 L 653.75 155.75 L 653.83 155.81 L 653.9 155.88 L 653.97 155.94 L 654.05 156 L 654.12 156.06 L 654.19 156.12 L 654.26 156.18 L 654.34 156.23 L 654.41 156.28 L 654.48 156.32 L 654.55 156.36 L 654.63 156.4 L 654.7 156.42 L 654.77 156.45 L 654.84 156.46 L 654.92 156.46 L 654.99 156.46 L 655.06 156.45 L 655.13 156.43 L 655.21 156.41 L 655.28 156.37 L 655.35 156.32 L 655.42 156.27 L 655.49 156.21 L 655.57 156.14 L 655.64 156.06 L 655.71 155.98 L 655.78 155.88 L 655.85 155.78 L 655.92 155.68 L 656 155.57 L 656.07 155.45 L 656.14 155.33 L 656.21 155.21 L 656.28 155.08 L 656.35 154.96 L 656.42 154.83 L 656.49 154.7 L 656.57 154.57 L 656.64 154.44 L 656.71 154.31 L 656.78 154.18 L 656.85 154.05 L 656.92 153.93 L 656.99 153.81 L 657.06 153.7 L 657.13 153.59 L 657.2 153.48 L 657.27 153.38 L 657.34 153.28 L 657.42 153.19 L 657.49 153.11 L 657.56 153.03 L 657.63 152.95 L 657.7 152.89 L 657.77 152.83 L 657.84 152.77 L 657.91 152.72 L 657.98 152.68 L 658.05 152.64 L 658.12 152.61 L 658.19 152.59 L 658.26 152.57 L 658.33 152.56 L 658.4 152.55 L 658.47 152.55 L 658.54 152.55 L 658.61 152.56 L 658.68 152.58 L 658.75 152.59 L 658.82 152.62 L 658.89 152.65 L 658.95 152.68 L 659.02 152.72 L 659.09 152.76 L 659.16 152.8 L 659.23 152.85 L 659.3 152.9 L 659.37 152.96 L 659.44 153.01 L 659.51 153.08 L 659.58 153.14 L 659.65 153.2 L 659.72 153.27 L 659.78 153.34 L 659.85 153.41 L 659.92 153.48 L 659.99 153.56 L 660.06 153.63 L 660.13 153.71 L 660.2 153.79 L 660.27 153.86 L 660.33 153.94 L 660.4 154.02 L 660.47 154.09 L 660.54 154.17 L 660.61 154.25 L 660.68 154.32 L 660.74 154.4 L 660.81 154.47 L 660.88 154.55 L 660.95 154.62 L 661.02 154.69 L 661.08 154.76 L 661.15 154.83 L 661.22 154.9 L 661.29 154.97 L 661.36 155.04 L 661.42 155.11 L 661.49 155.17 L 661.56 155.24 L 661.63 155.3 L 661.69 155.37 L 661.76 155.43 L 661.83 155.49 L 661.9 155.56 L 661.96 155.62 L 662.03 155.69 L 662.1 155.75 L 662.17 155.82 L 662.23 155.88 L 662.3 155.95 L 662.37 156.02 L 662.43 156.08 L 662.5 156.15 L 662.57 156.22 L 662.64 156.3 L 662.7 156.37 L 662.77 156.45 L 662.84 156.52 L 662.9 156.6 L 662.97 156.68 L 663.04 156.76 L 663.1 156.84 L 663.17 156.93 L 663.24 157.01 L 663.3 157.1 L 663.37 157.19 L 663.44 157.28 L 663.5 157.37 L 663.57 157.46 L 663.64 157.55 L 663.7 157.65 L 663.77 157.74 L 663.83 157.84 L 663.9 157.94 L 663.97 158.03 L 664.03 158.13 L 664.1 158.23 L 664.16 158.33 L 664.23 158.43 L 664.3 158.53 L 664.36 158.63 L 664.43 158.73 L 664.49 158.83 L 664.56 158.93 L 664.62 159.03 L 664.69 159.14 L 664.76 159.24 L 664.82 159.34 L 664.89 159.45 L 664.95 159.55 L 665.02 159.66 L 665.08 159.77 L 665.15 159.88 L 665.21 159.99 L 665.28 160.1 L 665.34 160.22 L 665.41 160.34 L 665.47 160.46 L 665.54 160.58 L 665.6 160.71 L 665.67 160.84 L 665.73 160.97 L 665.8 161.11 L 665.86 161.25 L 665.93 161.39 L 665.99 161.54 L 666.06 161.69 L 666.12 161.85 L 666.19 162.01 L 666.25 162.17 L 666.32 162.34 L 666.38 162.51 L 666.45 162.68 L 666.51 162.86 L 666.57 163.03 L 666.64 163.22 L 666.7 163.4 L 666.77 163.59 L 666.83 163.78 L 666.9 163.97 L 666.96 164.16 L 667.02 164.35 L 667.09 164.54 L 667.15 164.73 L 667.22 164.91 L 667.28 165.1 L 667.34 165.29 L 667.41 165.47 L 667.47 165.65 L 667.54 165.82 L 667.6 165.99 L 667.66 166.16 L 667.73 166.32 L 667.79 166.47 L 667.85 166.62 L 667.92 166.77 L 667.98 166.9 L 668.04 167.04 L 668.11 167.16 L 668.17 167.28 L 668.23 167.39 L 668.3 167.49 L 668.36 167.59 L 668.42 167.67 L 668.49 167.76 L 668.55 167.83 L 668.61 167.9 L 668.68 167.96 L 668.74 168.02 L 668.8 168.07 L 668.87 168.11 L 668.93 168.15 L 668.99 168.18 L 669.05 168.21 L 669.12 168.24 L 669.18 168.26 L 669.24 168.27 L 669.31 168.29 L 669.37 168.3 L 669.43 168.3 L 669.49 168.31 L 669.56 168.31 L 669.62 168.31 L 669.68 168.31 L 669.74 168.31 L 669.81 168.31 L 669.87 168.31 L 669.93 168.31 L 669.99 168.31 L 670.05 168.31 L 670.12 168.31 L 670.18 168.32 L 670.24 168.32 L 670.3 168.33 L 670.36 168.34 L 670.43 168.35 L 670.49 168.37 L 670.55 168.38 L 670.61 168.41 L 670.67 168.43 L 670.74 168.46 L 670.8 168.5 L 670.86 168.53 L 670.92 168.58 L 670.98 168.63 L 671.04 168.68 L 671.11 168.74 L 671.17 168.8 L 671.23 168.87 L 671.29 168.95 L 671.35 169.03 L 671.41 169.12 L 671.47 169.21 L 671.54 169.31 L 671.6 169.42 L 671.66 169.53 L 671.72 169.65 L 671.78 169.77 L 671.84 169.9 L 671.9 170.04 L 671.96 170.18 L 672.03 170.33 L 672.09 170.49 L 672.15 170.65 L 672.21 170.81 L 672.27 170.98 L 672.33 171.16 L 672.39 171.34 L 672.45 171.52 L 672.51 171.71 L 672.57 171.91 L 672.63 172.1 L 672.69 172.3 L 672.75 172.51 L 672.81 172.71 L 672.88 172.92 L 672.94 173.13 L 673 173.34 L 673.06 173.56 L 673.12 173.77 L 673.18 173.98 L 673.24 174.2 L 673.3 174.41 L 673.36 174.62 L 673.42 174.83 L 673.48 175.04 L 673.54 175.25 L 673.6 175.45 L 673.66 175.65 L 673.72 175.84 L 673.78 176.03 L 673.84 176.22 L 673.9 176.4 L 673.96 176.57 L 674.02 176.74 L 674.08 176.9 L 674.14 177.05 L 674.2 177.2 L 674.26 177.33 L 674.32 177.46 L 674.38 177.58 L 674.44 177.7 L 674.49 177.8 L 674.55 177.9 L 674.61 177.98 L 674.67 178.06 L 674.73 178.13 L 674.79 178.19 L 674.85 178.25 L 674.91 178.3 L 674.97 178.34 L 675.03 178.37 L 675.09 178.4 L 675.15 178.42 L 675.21 178.44 L 675.27 178.46 L 675.32 178.47 L 675.38 178.47 L 675.44 178.48 L 675.5 178.48 L 675.56 178.48 L 675.62 178.49 L 675.68 178.49 L 675.74 178.49 L 675.8 178.49 L 675.85 178.49 L 675.91 178.5 L 675.97 178.51 L 676.03 178.52 L 676.09 178.53 L 676.15 178.54 L 676.21 178.56 L 676.26 178.58 L 676.32 178.6 L 676.38 178.62 L 676.44 178.64 L 676.5 178.67 L 676.56 178.7 L 676.61 178.73 L 676.67 178.76 L 676.73 178.79 L 676.79 178.82 L 676.85 178.84 L 676.91 178.87 L 676.96 178.9 L 677.02 178.92 L 677.08 178.94 L 677.14 178.96 L 677.2 178.97 L 677.25 178.98 L 677.31 178.99 L 677.37 178.99 L 677.43 178.98 L 677.49 178.97 L 677.54 178.96 L 677.6 178.94 L 677.66 178.91 L 677.72 178.88 L 677.77 178.85 L 677.83 178.8 L 677.89 178.76 L 677.95 178.71 L 678 178.65 L 678.06 178.59 L 678.12 178.53 L 678.18 178.47 L 678.23 178.4 L 678.29 178.33 L 678.35 178.26 L 678.41 178.19 L 678.46 178.12 L 678.52 178.04 L 678.58 177.97 L 678.63 177.9 L 678.69 177.83 L 678.75 177.76 L 678.81 177.7 L 678.86 177.64 L 678.92 177.58 L 678.98 177.52 L 679.03 177.47 L 679.09 177.42 L 679.15 177.37 L 679.2 177.33 L 679.26 177.29 L 679.32 177.26 L 679.37 177.22 L 679.43 177.2 L 679.49 177.17 L 679.54 177.15 L 679.6 177.13 L 679.66 177.11 L 679.71 177.1 L 679.77 177.08 L 679.83 177.07 L 679.88 177.06 L 679.94 177.05 L 680 177.04 L 680.05 177.03 L 680.11 177.01 L 680.16 177 L 680.22 176.99 L 680.28 176.97 L 680.33 176.96 L 680.39 176.94 L 680.45 176.91 L 680.5 176.89 L 680.56 176.86 L 680.61 176.84 L 680.67 176.8 L 680.73 176.77 L 680.78 176.73 L 680.84 176.7 L 680.89 176.66 L 680.95 176.61 L 681 176.57 L 681.06 176.53 L 681.12 176.48 L 681.17 176.44 L 681.23 176.39 L 681.28 176.35 L 681.34 176.31 L 681.39 176.27 L 681.45 176.23 L 681.51 176.19 L 681.56 176.15 L 681.62 176.12 L 681.67 176.1 L 681.73 176.07 L 681.78 176.06 L 681.84 176.04 L 681.89 176.04 L 681.95 176.03 L 682 176.04 L 682.06 176.05 L 682.11 176.07 L 682.17 176.09 L 682.22 176.12 L 682.28 176.16 L 682.33 176.21 L 682.39 176.26 L 682.44 176.32 L 682.5 176.39 L 682.55 176.47 L 682.61 176.55 L 682.66 176.64 L 682.72 176.75 L 682.77 176.85 L 682.83 176.97 L 682.88 177.09 L 682.94 177.22 L 682.99 177.36 L 683.05 177.51 L 683.1 177.66 L 683.16 177.82 L 683.21 177.99 L 683.27 178.16 L 683.32 178.34 L 683.38 178.53 L 683.43 178.72 L 683.48 178.92 L 683.54 179.12 L 683.59 179.33 L 683.65 179.54 L 683.7 179.76 L 683.76 179.98 L 683.81 180.21 L 683.86 180.44 L 683.92 180.67 L 683.97 180.9 L 684.03 181.14 L 684.08 181.38 L 684.14 181.61 L 684.19 181.85 L 684.24 182.09 L 684.3 182.32 L 684.35 182.56 L 684.41 182.79 L 684.46 183.02 L 684.51 183.25 L 684.57 183.47 L 684.62 183.69 L 684.67 183.91 L 684.73 184.12 L 684.78 184.32 L 684.84 184.52 L 684.89 184.72 L 684.94 184.91 L 685 185.09 L 685.05 185.27 L 685.1 185.44 L 685.16 185.61 L 685.21 185.77 L 685.26 185.93 L 685.32 186.08 L 685.37 186.22 L 685.42 186.37 L 685.48 186.51 L 685.53 186.64 L 685.58 186.78 L 685.64 186.91 L 685.69 187.04 L 685.74 187.17 L 685.8 187.3 L 685.85 187.43 L 685.9 187.56 L 685.96 187.69 L 686.01 187.83 L 686.06 187.96 L 686.12 188.1 L 686.17 188.24 L 686.22 188.38 L 686.28 188.53 L 686.33 188.68 L 686.38 188.83 L 686.43 188.99 L 686.49 189.14 L 686.54 189.31 L 686.59 189.47 L 686.65 189.64 L 686.7 189.8 L 686.75 189.97 L 686.8 190.14 L 686.86 190.32 L 686.91 190.49 L 686.96 190.65 L 687.01 190.82 L 687.07 190.99 L 687.12 191.15 L 687.17 191.31 L 687.22 191.46 L 687.28 191.61 L 687.33 191.75 L 687.38 191.88 L 687.43 192.01 L 687.49 192.13 L 687.54 192.24 L 687.59 192.34 L 687.64 192.43 L 687.69 192.51 L 687.75 192.59 L 687.8 192.65 L 687.85 192.7 L 687.9 192.75 L 687.96 192.78 L 688.01 192.81 L 688.06 192.83 L 688.11 192.84 L 688.16 192.84 L 688.22 192.83 L 688.27 192.82 L 688.32 192.8 L 688.37 192.78 L 688.42 192.75 L 688.47 192.72 L 688.53 192.69 L 688.58 192.65 L 688.63 192.62 L 688.68 192.58 L 688.73 192.54 L 688.79 192.51 L 688.84 192.47 L 688.89 192.44 L 688.94 192.41 L 688.99 192.38 L 689.04 192.36 L 689.09 192.33 L 689.15 192.31 L 689.2 192.3 L 689.25 192.28 L 689.3 192.27 L 689.35 192.26 L 689.4 192.26 L 689.45 192.25 L 689.51 192.25 L 689.56 192.25 L 689.61 192.25 L 689.66 192.24 L 689.71 192.24 L 689.76 192.23 L 689.81 192.23 L 689.86 192.21 L 689.91 192.2 L 689.97 192.18 L 690.02 192.15 L 690.07 192.12 L 690.12 192.09 L 690.17 192.04 L 690.22 191.99 L 690.27 191.93 L 690.32 191.86 L 690.37 191.78 L 690.42 191.7 L 690.47 191.6 L 690.53 191.5 L 690.58 191.39 L 690.63 191.27 L 690.68 191.14 L 690.73 191.01 L 690.78 190.86 L 690.83 190.72 L 690.88 190.56 L 690.93 190.4 L 690.98 190.23 L 691.03 190.06 L 691.08 189.89 L 691.13 189.71 L 691.18 189.53 L 691.23 189.35 L 691.28 189.17 L 691.33 188.99 L 691.38 188.81 L 691.44 188.63 L 691.49 188.45 L 691.54 188.28 L 691.59 188.11 L 691.64 187.94 L 691.69 187.77 L 691.74 187.61 L 691.79 187.45 L 691.84 187.3 L 691.89 187.15 L 691.94 187.01 L 691.99 186.87 L 692.04 186.74 L 692.09 186.61 L 692.14 186.49 L 692.19 186.38 L 692.24 186.27 L 692.29 186.16 L 692.34 186.06 L 692.39 185.96 L 692.44 185.87 L 692.49 185.79 L 692.54 185.7 L 692.59 185.63 L 692.64 185.55 L 692.68 185.49 L 692.73 185.42 L 692.78 185.36 L 692.83 185.3 L 692.88 185.25 L 692.93 185.2 L 692.98 185.15 L 693.03 185.11 L 693.08 185.07 L 693.13 185.04 L 693.18 185 L 693.23 184.97 L 693.28 184.95 L 693.33 184.92 L 693.38 184.9 L 693.43 184.89 L 693.48 184.87 L 693.53 184.86 L 693.58 184.85 L 693.62 184.85" stroke="#134e4a" stroke-width="3.47" fill="none"  stroke-linejoin="round" stroke-linecap="round"/></g><line x1="71.67" y1="45" x2="71.67" y2="291" stroke="#71717a" stroke-width="1.11"/><line x1="693.67" y1="45" x2="693.67" y2="291" stroke="#71717a" stroke-width="1.11"/><line x1="71.67" y1="45" x2="693.67" y2="45" stroke="#71717a" stroke-width="1.11"/><line x1="71.67" y1="291" x2="693.67" y2="291" stroke="#71717a" stroke-width="1.11"/><line data-xy-tick="minor" x1="71.67" y1="291" x2="71.67" y2="293.78" stroke="#71717a" stroke-width="0.83"/><line data-xy-tick="minor" x1="90.04" y1="291" x2="90.04" y2="293.78" stroke="#71717a" stroke-width="0.83"/><line data-xy-tick="minor" x1="105.57" y1="291" x2="105.57" y2="293.78" stroke="#71717a" stroke-width="0.83"/><line data-xy-tick="minor" x1="119.03" y1="291" x2="119.03" y2="293.78" stroke="#71717a" stroke-width="0.83"/><line data-xy-tick="minor" x1="130.89" y1="291" x2="130.89" y2="293.78" stroke="#71717a" stroke-width="0.83"/><line data-xy-tick="minor" x1="211.34" y1="291" x2="211.34" y2="293.78" stroke="#71717a" stroke-width="0.83"/><line data-xy-tick="minor" x1="252.19" y1="291" x2="252.19" y2="293.78" stroke="#71717a" stroke-width="0.83"/><line data-xy-tick="minor" x1="281.17" y1="291" x2="281.17" y2="293.78" stroke="#71717a" stroke-width="0.83"/><line data-xy-tick="minor" x1="322.02" y1="291" x2="322.02" y2="293.78" stroke="#71717a" stroke-width="0.83"/><line data-xy-tick="minor" x1="337.55" y1="291" x2="337.55" y2="293.78" stroke="#71717a" stroke-width="0.83"/><line data-xy-tick="minor" x1="351.01" y1="291" x2="351.01" y2="293.78" stroke="#71717a" stroke-width="0.83"/><line data-xy-tick="minor" x1="362.87" y1="291" x2="362.87" y2="293.78" stroke="#71717a" stroke-width="0.83"/><line data-xy-tick="minor" x1="443.32" y1="291" x2="443.32" y2="293.78" stroke="#71717a" stroke-width="0.83"/><line data-xy-tick="minor" x1="484.17" y1="291" x2="484.17" y2="293.78" stroke="#71717a" stroke-width="0.83"/><line data-xy-tick="minor" x1="535.64" y1="291" x2="535.64" y2="293.78" stroke="#71717a" stroke-width="0.83"/><line data-xy-tick="minor" x1="554.01" y1="291" x2="554.01" y2="293.78" stroke="#71717a" stroke-width="0.83"/><line data-xy-tick="minor" x1="569.54" y1="291" x2="569.54" y2="293.78" stroke="#71717a" stroke-width="0.83"/><line data-xy-tick="minor" x1="594.86" y1="291" x2="594.86" y2="293.78" stroke="#71717a" stroke-width="0.83"/><line x1="141.51" y1="291" x2="141.51" y2="295.86" stroke="#3f3f46" stroke-width="1.11"/><line x1="303.66" y1="291" x2="303.66" y2="295.86" stroke="#3f3f46" stroke-width="1.11"/><line x1="373.49" y1="291" x2="373.49" y2="295.86" stroke="#3f3f46" stroke-width="1.11"/><line x1="513.16" y1="291" x2="513.16" y2="295.86" stroke="#3f3f46" stroke-width="1.11"/><line x1="582.99" y1="291" x2="582.99" y2="295.86" stroke="#3f3f46" stroke-width="1.11"/><line x1="652.82" y1="291" x2="652.82" y2="295.86" stroke="#3f3f46" stroke-width="1.11"/><line x1="675.3" y1="291" x2="675.3" y2="295.86" stroke="#3f3f46" stroke-width="1.11"/><line x1="66.81" y1="269.42" x2="71.67" y2="269.42" stroke="#3f3f46" stroke-width="1.11"/><line x1="66.81" y1="226.26" x2="71.67" y2="226.26" stroke="#3f3f46" stroke-width="1.11"/><line x1="66.81" y1="183.11" x2="71.67" y2="183.11" stroke="#3f3f46" stroke-width="1.11"/><line x1="66.81" y1="139.95" x2="71.67" y2="139.95" stroke="#3f3f46" stroke-width="1.11"/><line x1="66.81" y1="96.79" x2="71.67" y2="96.79" stroke="#3f3f46" stroke-width="1.11"/><line x1="66.81" y1="53.63" x2="71.67" y2="53.63" stroke="#3f3f46" stroke-width="1.11"/><g fill="#27272a"><text x="141.51" y="314.06" fill="#3f3f46" font-size="16.67" text-anchor="start" transform="rotate(30 141.51 314.06)">100</text><text x="303.66" y="314.06" fill="#3f3f46" font-size="16.67" text-anchor="start" transform="rotate(30 303.66 314.06)">500</text><text x="373.49" y="314.06" fill="#3f3f46" font-size="16.67" text-anchor="start" transform="rotate(30 373.49 314.06)">1k</text><text x="513.16" y="314.06" fill="#3f3f46" font-size="16.67" text-anchor="start" transform="rotate(30 513.16 314.06)">4k</text><text x="582.99" y="314.06" fill="#3f3f46" font-size="16.67" text-anchor="start" transform="rotate(30 582.99 314.06)">8k</text><text x="652.82" y="314.06" fill="#3f3f46" font-size="16.67" text-anchor="start" transform="rotate(30 652.82 314.06)">16k</text><text x="675.3" y="314.06" fill="#3f3f46" font-size="16.67" text-anchor="start" transform="rotate(30 675.3 314.06)">20k</text><text x="61.95" y="275.25" fill="#3f3f46" font-size="16.67" text-anchor="end">-40</text><text x="61.95" y="232.1" fill="#3f3f46" font-size="16.67" text-anchor="end">-30</text><text x="61.95" y="188.94" fill="#3f3f46" font-size="16.67" text-anchor="end">-20</text><text x="61.95" y="145.78" fill="#3f3f46" font-size="16.67" text-anchor="end">-10</text><text x="61.95" y="102.62" fill="#3f3f46" font-size="16.67" text-anchor="end">0</text><text x="61.95" y="59.46" fill="#3f3f46" font-size="16.67" text-anchor="end">10</text></g><text x="382.67" y="31.11" text-anchor="middle" font-size="22.22" font-weight="400" fill="#27272a">Low-Pass 14.0 kHz Filter (48 kHz)</text><text x="382.67" y="370.94" text-anchor="middle" font-size="19.44" font-weight="400" fill="#27272a">Frequency (Hz)</text><text x="22.23" y="168" text-anchor="middle" font-size="19.44" font-weight="400" fill="#27272a" transform="rotate(-90 22.23 168)">Magnitude (dB)</text></svg></svg>