<svg xmlns="http://www.w3.org/2000/svg" width="720" height="380" viewBox="0 0 720 380"><rect width="100%" height="100%" fill="#f4f4f5"/><svg x="0" y="0" width="708" height="380" viewBox="0 0 708 380"><defs><clipPath id="xy-panel-0-clip1"><rect x="71.67" y="45" width="622" height="286"/></clipPath></defs><rect x="71.67" y="45" width="622" height="286" fill="#f4f4f5"/><g><line data-xy-grid="minor" x1="71.67" y1="45" x2="71.67" y2="331" stroke="transparent" stroke-width="1.11" stroke-opacity="0.4"/><line data-xy-grid="minor" x1="94.02" y1="45" x2="94.02" y2="331" stroke="transparent" stroke-width="1.11" stroke-opacity="0.4"/><line data-xy-grid="minor" x1="112.91" y1="45" x2="112.91" y2="331" stroke="transparent" stroke-width="1.11" stroke-opacity="0.4"/><line data-xy-grid="minor" x1="129.28" y1="45" x2="129.28" y2="331" stroke="transparent" stroke-width="1.11" stroke-opacity="0.4"/><line data-xy-grid="minor" x1="143.71" y1="45" x2="143.71" y2="331" stroke="transparent" stroke-width="1.11" stroke-opacity="0.4"/><line data-xy-grid="minor" x1="241.57" y1="45" x2="241.57" y2="331" stroke="transparent" stroke-width="1.11" stroke-opacity="0.4"/><line data-xy-grid="minor" x1="291.27" y1="45" x2="291.27" y2="331" stroke="transparent" stroke-width="1.11" stroke-opacity="0.4"/><line data-xy-grid="minor" x1="326.52" y1="45" x2="326.52" y2="331" stroke="transparent" stroke-width="1.11" stroke-opacity="0.4"/><line data-xy-grid="minor" x1="353.87" y1="45" x2="353.87" y2="331" stroke="transparent" stroke-width="1.11" stroke-opacity="0.4"/><line data-xy-grid="minor" x1="376.22" y1="45" x2="376.22" y2="331" stroke="transparent" stroke-width="1.11" stroke-opacity="0.4"/><line data-xy-grid="minor" x1="395.11" y1="45" x2="395.11" y2="331" stroke="transparent" stroke-width="1.11" stroke-opacity="0.4"/><line data-xy-grid="minor" x1="411.47" y1="45" x2="411.47" y2="331" stroke="transparent" stroke-width="1.11" stroke-opacity="0.4"/><line data-xy-grid="minor" x1="425.91" y1="45" x2="425.91" y2="331" stroke="transparent" stroke-width="1.11" stroke-opacity="0.4"/><line data-xy-grid="minor" x1="523.77" y1="45" x2="523.77" y2="331" stroke="transparent" stroke-width="1.11" stroke-opacity="0.4"/><line data-xy-grid="minor" x1="573.47" y1="45" x2="573.47" y2="331" stroke="transparent" stroke-width="1.11" stroke-opacity="0.4"/><line data-xy-grid="minor" x1="608.72" y1="45" x2="608.72" y2="331" stroke="transparent" stroke-width="1.11" stroke-opacity="0.4"/><line data-xy-grid="minor" x1="636.07" y1="45" x2="636.07" y2="331" stroke="transparent" stroke-width="1.11" stroke-opacity="0.4"/><line data-xy-grid="minor" x1="658.42" y1="45" x2="658.42" y2="331" stroke="transparent" stroke-width="1.11" stroke-opacity="0.4"/><line data-xy-grid="minor" x1="677.31" y1="45" x2="677.31" y2="331" stroke="transparent" stroke-width="1.11" stroke-opacity="0.4"/><line data-xy-grid="minor" x1="693.67" y1="45" x2="693.67" y2="331" stroke="transparent" stroke-width="1.11" stroke-opacity="0.4"/><line x1="156.62" y1="45" x2="156.62" y2="331" stroke="#d4d4d8" stroke-width="1.11" stroke-opacity="0.4"/><line x1="438.82" y1="45" x2="438.82" y2="331" stroke="#d4d4d8" stroke-width="1.11" stroke-opacity="0.4"/><line x1="71.67" y1="331" x2="693.67" y2="331" stroke="#d4d4d8" stroke-width="1.11" stroke-opacity="0.4"/><line x1="71.67" y1="290.14" x2="693.67" y2="290.14" stroke="#d4d4d8" stroke-width="1.11" stroke-opacity="0.4"/><line x1="71.67" y1="249.29" x2="693.67" y2="249.29" stroke="#d4d4d8" stroke-width="1.11" stroke-opacity="0.4"/><line x1="71.67" y1="208.43" x2="693.67" y2="208.43" stroke="#d4d4d8" stroke-width="1.11" stroke-opacity="0.4"/><line x1="71.67" y1="167.57" x2="693.67" y2="167.57" stroke="#d4d4d8" stroke-width="1.11" stroke-opacity="0.4"/><line x1="71.67" y1="126.71" x2="693.67" y2="126.71" stroke="#d4d4d8" stroke-width="1.11" stroke-opacity="0.4"/><line x1="71.67" y1="85.86" x2="693.67" y2="85.86" stroke="#d4d4d8" stroke-width="1.11" stroke-opacity="0.4"/><line x1="71.67" y1="45" x2="693.67" y2="45" stroke="#d4d4d8" stroke-width="1.11" stroke-opacity="0.4"/></g><g clip-path="url(#xy-panel-0-clip1)"><path d="M 73.57 286.51 L 82.66 282.15 L 91.11 277.08 L 99.02 271.39 L 106.45 265.25 L 113.46 258.9 L 120.08 252.52 L 126.37 246.26 L 132.35 240.23 L 138.05 234.45 L 143.5 228.94 L 148.71 223.68 L 153.72 218.63 L 158.52 213.76 L 163.15 209.03 L 167.61 204.41 L 171.91 199.88 L 176.06 195.43 L 180.08 191.06 L 183.97 186.79 L 187.74 182.65 L 191.4 178.64 L 194.95 174.8 L 198.41 171.14 L 201.76 167.69 L 205.03 164.47 L 208.22 161.47 L 211.32 158.71 L 214.35 156.18 L 217.3 153.87 L 220.18 151.77 L 223 149.86 L 225.75 148.14 L 228.45 146.57 L 231.08 145.13 L 233.66 143.81 L 236.19 142.58 L 238.67 141.42 L 241.09 140.32 L 243.47 139.25 L 245.81 138.22 L 248.1 137.2 L 250.35 136.2 L 252.56 135.22 L 254.73 134.25 L 256.86 133.29 L 258.95 132.35 L 261.01 131.42 L 263.04 130.52 L 265.03 129.63 L 266.99 128.77 L 268.92 127.94 L 270.82 127.13 L 272.69 126.36 L 274.54 125.61 L 276.35 124.9 L 278.14 124.24 L 279.9 123.61 L 281.64 123.03 L 283.36 122.5 L 285.05 122.02 L 286.72 121.59 L 288.36 121.2 L 289.98 120.87 L 291.59 120.57 L 293.17 120.31 L 294.73 120.07 L 296.27 119.86 L 297.79 119.66 L 299.3 119.46 L 300.78 119.26 L 302.25 119.06 L 303.7 118.84 L 305.13 118.6 L 306.55 118.35 L 307.95 118.09 L 309.34 117.82 L 310.71 117.55 L 312.06 117.27 L 313.4 117 L 314.72 116.73 L 316.03 116.46 L 317.33 116.21 L 318.61 115.96 L 319.88 115.72 L 321.14 115.49 L 322.39 115.27 L 323.62 115.04 L 324.84 114.82 L 326.04 114.6 L 327.24 114.39 L 328.42 114.18 L 329.6 113.97 L 330.76 113.77 L 331.91 113.59 L 333.05 113.41 L 334.18 113.25 L 335.3 113.1 L 336.41 112.97 L 337.51 112.86 L 338.6 112.76 L 339.68 112.67 L 340.75 112.58 L 341.81 112.5 L 342.86 112.42 L 343.9 112.35 L 344.94 112.26 L 345.96 112.18 L 346.98 112.09 L 347.99 112.01 L 348.99 111.92 L 349.98 111.83 L 350.97 111.75 L 351.94 111.67 L 352.91 111.6 L 353.87 111.54 L 354.83 111.48 L 355.77 111.43 L 356.71 111.39 L 357.64 111.35 L 358.57 111.31 L 359.49 111.28 L 360.4 111.24 L 361.3 111.19 L 362.2 111.15 L 363.09 111.1 L 363.98 111.05 L 364.86 111 L 365.73 110.94 L 366.59 110.89 L 367.45 110.85 L 368.31 110.8 L 369.16 110.76 L 370 110.72 L 370.83 110.69 L 371.67 110.65 L 372.49 110.62 L 373.31 110.58 L 374.12 110.54 L 374.93 110.49 L 375.74 110.44 L 376.54 110.38 L 377.33 110.32 L 378.12 110.26 L 378.9 110.19 L 379.68 110.13 L 380.45 110.07 L 381.22 110.01 L 381.98 109.95 L 382.74 109.89 L 383.5 109.84 L 384.25 109.79 L 384.99 109.73 L 385.73 109.67 L 386.47 109.61 L 387.2 109.54 L 387.93 109.47 L 388.65 109.38 L 389.37 109.29 L 390.08 109.19 L 390.79 109.09 L 391.5 108.99 L 392.2 108.89 L 392.9 108.79 L 393.6 108.69 L 394.29 108.59 L 394.97 108.5 L 395.66 108.42 L 396.33 108.33 L 397.01 108.25 L 397.68 108.17 L 398.35 108.09 L 399.01 108 L 399.67 107.91 L 400.33 107.81 L 400.98 107.7 L 401.64 107.59 L 402.28 107.48 L 402.93 107.36 L 403.57 107.24 L 404.2 107.12 L 404.84 107 L 405.47 106.89 L 406.09 106.78 L 406.72 106.68 L 407.34 106.57 L 407.95 106.47 L 408.57 106.38 L 409.18 106.28 L 409.79 106.18 L 410.39 106.08 L 411 105.98 L 411.59 105.88 L 412.19 105.77 L 412.78 105.66 L 413.37 105.55 L 413.96 105.45 L 414.55 105.34 L 415.13 105.23 L 415.71 105.13 L 416.29 105.02 L 416.86 104.92 L 417.43 104.82 L 418 104.72 L 418.57 104.63 L 419.13 104.53 L 419.69 104.43 L 420.25 104.33 L 420.8 104.23 L 421.36 104.13 L 421.91 104.03 L 422.46 103.93 L 423 103.83 L 423.55 103.73 L 424.09 103.63 L 424.63 103.54 L 425.16 103.45 L 425.7 103.36 L 426.23 103.28 L 426.76 103.19 L 427.29 103.11 L 427.81 103.02 L 428.33 102.93 L 428.85 102.84 L 429.37 102.75 L 429.89 102.65 L 430.4 102.55 L 430.91 102.45 L 431.42 102.35 L 431.93 102.25 L 432.44 102.15 L 432.94 102.05 L 433.44 101.95 L 433.94 101.86 L 434.44 101.77 L 434.93 101.68 L 435.42 101.6 L 435.92 101.51 L 436.41 101.43 L 436.89 101.34 L 437.38 101.25 L 437.86 101.17 L 438.34 101.08 L 438.82 100.98 L 439.3 100.89 L 439.78 100.8 L 440.25 100.7 L 440.72 100.61 L 441.19 100.52 L 441.66 100.42 L 442.13 100.33 L 442.59 100.25 L 443.06 100.16 L 443.52 100.07 L 443.98 99.99 L 444.44 99.9 L 444.89 99.82 L 445.35 99.74 L 445.8 99.65 L 446.25 99.56 L 446.7 99.47 L 447.15 99.38 L 447.6 99.29 L 448.04 99.2 L 448.49 99.11 L 448.93 99.03 L 449.37 98.94 L 449.81 98.85 L 450.24 98.76 L 450.68 98.68 L 451.11 98.59 L 451.54 98.51 L 451.97 98.43 L 452.4 98.34 L 452.83 98.26 L 453.26 98.17 L 453.68 98.09 L 454.11 98 L 454.53 97.91 L 454.95 97.82 L 455.37 97.73 L 455.78 97.64 L 456.2 97.55 L 456.62 97.46 L 457.03 97.37 L 457.44 97.28 L 457.85 97.19 L 458.26 97.1 L 458.67 97.01 L 459.08 96.91 L 459.48 96.82 L 459.88 96.73 L 460.29 96.64 L 460.69 96.55 L 461.09 96.45 L 461.49 96.36 L 461.88 96.27 L 462.28 96.18 L 462.67 96.09 L 463.07 95.99 L 463.46 95.9 L 463.85 95.81 L 464.24 95.72 L 464.63 95.63 L 465.02 95.54 L 465.4 95.45 L 465.79 95.35 L 466.17 95.26 L 466.55 95.16 L 466.93 95.07 L 467.31 94.97 L 467.69 94.88 L 468.07 94.78 L 468.45 94.68 L 468.82 94.58 L 469.2 94.49 L 469.57 94.39 L 469.94 94.3 L 470.31 94.2 L 470.68 94.11 L 471.05 94.01 L 471.42 93.92 L 471.78 93.83 L 472.15 93.74 L 472.51 93.64 L 472.88 93.55 L 473.24 93.45 L 473.6 93.36 L 473.96 93.26 L 474.32 93.16 L 474.68 93.07 L 475.03 92.97 L 475.39 92.87 L 475.74 92.78 L 476.1 92.68 L 476.45 92.58 L 476.8 92.49 L 477.15 92.39 L 477.5 92.3 L 477.85 92.2 L 478.2 92.11 L 478.55 92.02 L 478.89 91.93 L 479.24 91.84 L 479.58 91.75 L 479.92 91.66 L 480.26 91.57 L 480.61 91.48 L 480.95 91.39 L 481.28 91.3 L 481.62 91.22 L 481.96 91.13 L 482.3 91.04 L 482.63 90.95 L 482.97 90.86 L 483.3 90.77 L 483.63 90.69 L 483.96 90.6 L 484.29 90.51 L 484.62 90.43 L 484.95 90.34 L 485.28 90.26 L 485.61 90.18 L 485.94 90.1 L 486.26 90.02 L 486.59 89.95 L 486.91 89.87 L 487.23 89.8 L 487.55 89.72 L 487.88 89.65 L 488.2 89.57 L 488.52 89.5 L 488.83 89.42 L 489.15 89.35 L 489.47 89.27 L 489.79 89.2 L 490.1 89.12 L 490.42 89.05 L 490.73 88.98 L 491.04 88.91 L 491.35 88.84 L 491.67 88.78 L 491.98 88.71 L 492.29 88.65 L 492.6 88.58 L 492.9 88.52 L 493.21 88.46 L 493.52 88.4 L 493.82 88.35 L 494.13 88.29 L 494.43 88.23 L 494.74 88.18 L 495.04 88.12 L 495.34 88.07 L 495.64 88.02 L 495.95 87.97 L 496.25 87.93 L 496.54 87.88 L 496.84 87.84 L 497.14 87.8 L 497.44 87.76 L 497.73 87.72 L 498.03 87.68 L 498.33 87.64 L 498.62 87.6 L 498.91 87.56 L 499.21 87.52 L 499.5 87.49 L 499.79 87.45 L 500.08 87.42 L 500.37 87.38 L 500.66 87.35 L 500.95 87.32 L 501.24 87.29 L 501.52 87.26 L 501.81 87.23 L 502.1 87.21 L 502.38 87.18 L 502.67 87.16 L 502.95 87.13 L 503.23 87.11 L 503.52 87.09 L 503.8 87.06 L 504.08 87.04 L 504.36 87.02 L 504.64 87 L 504.92 86.98 L 505.2 86.97 L 505.48 86.95 L 505.76 86.94 L 506.03 86.93 L 506.31 86.92 L 506.58 86.91 L 506.86 86.9 L 507.13 86.89 L 507.41 86.88 L 507.68 86.87 L 507.95 86.86 L 508.23 86.85 L 508.5 86.84 L 508.77 86.83 L 509.04 86.82 L 509.31 86.8 L 509.58 86.79 L 509.85 86.78 L 510.11 86.78 L 510.38 86.77 L 510.65 86.76 L 510.91 86.76 L 511.18 86.76 L 511.44 86.75 L 511.71 86.75 L 511.97 86.74 L 512.24 86.74 L 512.5 86.73 L 512.76 86.73 L 513.02 86.72 L 513.28 86.71 L 513.54 86.7 L 513.8 86.69 L 514.06 86.69 L 514.32 86.68 L 514.58 86.67 L 514.84 86.66 L 515.09 86.66 L 515.35 86.65 L 515.61 86.65 L 515.86 86.65 L 516.12 86.64 L 516.37 86.64 L 516.63 86.63 L 516.88 86.63 L 517.13 86.62 L 517.39 86.61 L 517.64 86.61 L 517.89 86.6 L 518.14 86.59 L 518.39 86.58 L 518.64 86.57 L 518.89 86.56 L 519.14 86.56 L 519.39 86.55 L 519.63 86.54 L 519.88 86.53 L 520.13 86.52 L 520.38 86.5 L 520.62 86.49 L 520.87 86.48 L 521.11 86.46 L 521.36 86.44 L 521.6 86.43 L 521.84 86.41 L 522.09 86.39 L 522.33 86.37 L 522.57 86.35 L 522.81 86.33 L 523.05 86.31 L 523.29 86.29 L 523.53 86.28 L 523.77 86.26 L 524.01 86.24 L 524.25 86.22 L 524.49 86.2 L 524.73 86.17 L 524.96 86.15 L 525.2 86.12 L 525.44 86.1 L 525.67 86.07 L 525.91 86.04 L 526.14 86.01 L 526.38 85.97 L 526.61 85.94 L 526.85 85.91 L 527.08 85.88 L 527.31 85.85 L 527.54 85.82 L 527.78 85.79 L 528.01 85.76 L 528.24 85.72 L 528.47 85.69 L 528.7 85.66 L 528.93 85.62 L 529.16 85.58 L 529.39 85.55 L 529.62 85.51 L 529.84 85.47 L 530.07 85.42 L 530.3 85.38 L 530.53 85.34 L 530.75 85.3 L 530.98 85.26 L 531.2 85.22 L 531.43 85.17 L 531.65 85.13 L 531.88 85.09 L 532.1 85.05 L 532.32 85.01 L 532.55 84.96 L 532.77 84.92 L 532.99 84.87 L 533.21 84.83 L 533.44 84.78 L 533.66 84.73 L 533.88 84.68 L 534.1 84.63 L 534.32 84.58 L 534.54 84.53 L 534.76 84.48 L 534.97 84.43 L 535.19 84.38 L 535.41 84.33 L 535.63 84.28 L 535.85 84.23 L 536.06 84.18 L 536.28 84.13 L 536.49 84.08 L 536.71 84.03 L 536.92 83.98 L 537.14 83.93 L 537.35 83.87 L 537.57 83.82 L 537.78 83.77 L 538 83.72 L 538.21 83.67 L 538.42 83.62 L 538.63 83.56 L 538.84 83.51 L 539.06 83.46 L 539.27 83.41 L 539.48 83.36 L 539.69 83.31 L 539.9 83.25 L 540.11 83.2 L 540.32 83.15 L 540.53 83.09 L 540.74 83.04 L 540.94 82.98 L 541.15 82.93 L 541.36 82.88 L 541.57 82.82 L 541.77 82.77 L 541.98 82.72 L 542.19 82.67 L 542.39 82.62 L 542.6 82.57 L 542.8 82.52 L 543.01 82.47 L 543.21 82.42 L 543.42 82.37 L 543.62 82.32 L 543.82 82.27 L 544.03 82.21 L 544.23 82.16 L 544.43 82.11 L 544.63 82.06 L 544.83 82.01 L 545.04 81.96 L 545.24 81.91 L 545.44 81.86 L 545.64 81.81 L 545.84 81.76 L 546.04 81.71 L 546.24 81.66 L 546.44 81.61 L 546.64 81.57 L 546.83 81.52 L 547.03 81.47 L 547.23 81.42 L 547.43 81.37 L 547.62 81.32 L 547.82 81.27 L 548.02 81.23 L 548.21 81.18 L 548.41 81.13 L 548.61 81.08 L 548.8 81.04 L 549 80.99 L 549.19 80.95 L 549.39 80.91 L 549.58 80.87 L 549.77 80.83 L 549.97 80.79 L 550.16 80.75 L 550.35 80.71 L 550.55 80.67 L 550.74 80.63 L 550.93 80.59 L 551.12 80.55 L 551.31 80.51 L 551.5 80.47 L 551.69 80.44 L 551.88 80.4 L 552.07 80.36 L 552.26 80.33 L 552.45 80.29 L 552.64 80.26 L 552.83 80.22 L 553.02 80.19 L 553.21 80.16 L 553.4 80.12 L 553.59 80.09 L 553.77 80.06 L 553.96 80.03 L 554.15 80 L 554.33 79.97 L 554.52 79.94 L 554.71 79.91 L 554.89 79.89 L 555.08 79.86 L 555.26 79.83 L 555.45 79.81 L 555.63 79.78 L 555.82 79.75 L 556 79.73 L 556.19 79.7 L 556.37 79.68 L 556.55 79.65 L 556.74 79.62 L 556.92 79.6 L 557.1 79.57 L 557.28 79.55 L 557.46 79.52 L 557.65 79.5 L 557.83 79.47 L 558.01 79.45 L 558.19 79.42 L 558.37 79.4 L 558.55 79.38 L 558.73 79.36 L 558.91 79.33 L 559.09 79.31 L 559.27 79.29 L 559.45 79.27 L 559.63 79.25 L 559.81 79.23 L 559.98 79.21 L 560.16 79.19 L 560.34 79.17 L 560.52 79.15 L 560.69 79.13 L 560.87 79.11 L 561.05 79.1 L 561.22 79.08 L 561.4 79.06 L 561.58 79.04 L 561.75 79.02 L 561.93 79.01 L 562.1 78.99 L 562.28 78.97 L 562.45 78.95 L 562.63 78.94 L 562.8 78.92 L 562.98 78.9 L 563.15 78.88 L 563.32 78.87 L 563.5 78.85 L 563.67 78.83 L 563.84 78.82 L 564.01 78.8 L 564.19 78.78 L 564.36 78.76 L 564.53 78.74 L 564.7 78.73 L 564.87 78.71 L 565.04 78.69 L 565.22 78.67 L 565.39 78.66 L 565.56 78.64 L 565.73 78.62 L 565.9 78.61 L 566.07 78.59 L 566.24 78.57 L 566.4 78.56 L 566.57 78.54 L 566.74 78.53 L 566.91 78.51 L 567.08 78.49 L 567.25 78.48 L 567.41 78.46 L 567.58 78.44 L 567.75 78.42 L 567.92 78.4 L 568.08 78.39 L 568.25 78.37 L 568.42 78.35 L 568.58 78.33 L 568.75 78.31 L 568.91 78.29 L 569.08 78.28 L 569.24 78.26 L 569.41 78.24 L 569.57 78.22 L 569.74 78.21 L 569.9 78.19 L 570.07 78.17 L 570.23 78.15 L 570.4 78.13 L 570.56 78.11 L 570.72 78.09 L 570.89 78.07 L 571.05 78.05 L 571.21 78.02 L 571.37 78 L 571.54 77.98 L 571.7 77.96 L 571.86 77.94 L 572.02 77.91 L 572.18 77.89 L 572.34 77.87 L 572.5 77.84 L 572.67 77.82 L 572.83 77.79 L 572.99 77.77 L 573.15 77.74 L 573.31 77.71 L 573.47 77.69 L 573.63 77.66 L 573.78 77.63 L 573.94 77.6 L 574.1 77.58 L 574.26 77.55 L 574.42 77.52 L 574.58 77.5 L 574.74 77.47 L 574.89 77.45 L 575.05 77.42 L 575.21 77.4 L 575.37 77.37 L 575.52 77.35 L 575.68 77.33 L 575.84 77.31 L 575.99 77.28 L 576.15 77.26 L 576.31 77.25 L 576.46 77.23 L 576.62 77.21 L 576.77 77.2 L 576.93 77.19 L 577.08 77.18 L 577.24 77.17 L 577.39 77.16 L 577.55 77.16 L 577.7 77.15 L 577.85 77.15 L 578.01 77.15 L 578.16 77.15 L 578.32 77.15 L 578.47 77.16 L 578.62 77.17 L 578.77 77.18 L 578.93 77.2 L 579.08 77.21 L 579.23 77.24 L 579.38 77.26 L 579.54 77.29 L 579.69 77.32 L 579.84 77.36 L 579.99 77.4 L 580.14 77.44 L 580.29 77.48 L 580.44 77.53 L 580.59 77.58 L 580.75 77.63 L 580.9 77.69 L 581.05 77.74 L 581.2 77.8 L 581.35 77.86 L 581.5 77.93 L 581.64 77.99 L 581.79 78.06 L 581.94 78.13 L 582.09 78.2 L 582.24 78.28 L 582.39 78.36 L 582.54 78.44 L 582.68 78.52 L 582.83 78.61 L 582.98 78.7 L 583.13 78.79 L 583.28 78.88 L 583.42 78.97 L 583.57 79.07 L 583.72 79.17 L 583.86 79.27 L 584.01 79.37 L 584.16 79.47 L 584.3 79.58 L 584.45 79.68 L 584.59 79.79 L 584.74 79.9 L 584.89 80.02 L 585.03 80.13 L 585.18 80.25 L 585.32 80.36 L 585.47 80.48 L 585.61 80.6 L 585.75 80.72 L 585.9 80.84 L 586.04 80.96 L 586.19 81.08 L 586.33 81.2 L 586.47 81.33 L 586.62 81.46 L 586.76 81.58 L 586.9 81.71 L 587.05 81.85 L 587.19 81.98 L 587.33 82.11 L 587.47 82.25 L 587.62 82.38 L 587.76 82.52 L 587.9 82.66 L 588.04 82.79 L 588.18 82.93 L 588.33 83.07 L 588.47 83.2 L 588.61 83.34 L 588.75 83.48 L 588.89 83.62 L 589.03 83.75 L 589.17 83.89 L 589.31 84.03 L 589.45 84.17 L 589.59 84.31 L 589.73 84.45 L 589.87 84.59 L 590.01 84.73 L 590.15 84.88 L 590.29 85.02 L 590.43 85.16 L 590.57 85.29 L 590.71 85.43 L 590.84 85.57 L 590.98 85.71 L 591.12 85.85 L 591.26 85.99 L 591.4 86.12 L 591.53 86.26 L 591.67 86.4 L 591.81 86.54 L 591.95 86.68 L 592.08 86.81 L 592.22 86.95 L 592.36 87.09 L 592.49 87.22 L 592.63 87.35 L 592.77 87.49 L 592.9 87.62 L 593.04 87.74 L 593.18 87.87 L 593.31 88 L 593.45 88.12 L 593.58 88.25 L 593.72 88.37 L 593.85 88.5 L 593.99 88.62 L 594.12 88.74 L 594.26 88.87 L 594.39 88.99 L 594.53 89.12 L 594.66 89.24 L 594.8 89.37 L 594.93 89.49 L 595.06 89.62 L 595.2 89.74 L 595.33 89.86 L 595.46 89.98 L 595.6 90.1 L 595.73 90.22 L 595.86 90.34 L 596 90.45 L 596.13 90.57 L 596.26 90.68 L 596.39 90.8 L 596.53 90.91 L 596.66 91.02 L 596.79 91.13 L 596.92 91.24 L 597.05 91.35 L 597.19 91.46 L 597.32 91.57 L 597.45 91.67 L 597.58 91.78 L 597.71 91.89 L 597.84 91.99 L 597.97 92.1 L 598.1 92.21 L 598.23 92.32 L 598.36 92.42 L 598.49 92.53 L 598.62 92.64 L 598.75 92.75 L 598.88 92.86 L 599.01 92.97 L 599.14 93.07 L 599.27 93.18 L 599.4 93.28 L 599.53 93.38 L 599.66 93.49 L 599.79 93.59 L 599.92 93.69 L 600.05 93.78 L 600.17 93.88 L 600.3 93.98 L 600.43 94.07 L 600.56 94.17 L 600.69 94.27 L 600.81 94.36 L 600.94 94.46 L 601.07 94.56 L 601.2 94.65 L 601.32 94.75 L 601.45 94.85 L 601.58 94.94 L 601.7 95.04 L 601.83 95.14 L 601.96 95.23 L 602.08 95.33 L 602.21 95.43 L 602.34 95.52 L 602.46 95.62 L 602.59 95.71 L 602.71 95.81 L 602.84 95.9 L 602.96 96 L 603.09 96.09 L 603.22 96.19 L 603.34 96.28 L 603.47 96.37 L 603.59 96.46 L 603.72 96.55 L 603.84 96.64 L 603.96 96.73 L 604.09 96.82 L 604.21 96.91 L 604.34 96.99 L 604.46 97.08 L 604.58 97.17 L 604.71 97.26 L 604.83 97.34 L 604.96 97.43 L 605.08 97.52 L 605.2 97.61 L 605.33 97.69 L 605.45 97.78 L 605.57 97.87 L 605.69 97.96 L 605.82 98.05 L 605.94 98.14 L 606.06 98.23 L 606.18 98.32 L 606.31 98.41 L 606.43 98.5 L 606.55 98.59 L 606.67 98.67 L 606.79 98.76 L 606.91 98.85 L 607.04 98.94 L 607.16 99.03 L 607.28 99.11 L 607.4 99.2 L 607.52 99.29 L 607.64 99.37 L 607.76 99.46 L 607.88 99.55 L 608 99.63 L 608.12 99.72 L 608.24 99.81 L 608.36 99.89 L 608.48 99.98 L 608.6 100.07 L 608.72 100.16 L 608.84 100.24 L 608.96 100.33 L 609.08 100.42 L 609.2 100.51 L 609.32 100.6 L 609.44 100.68 L 609.56 100.77 L 609.68 100.86 L 609.8 100.94 L 609.91 101.03 L 610.03 101.11 L 610.15 101.2 L 610.27 101.28 L 610.39 101.37 L 610.51 101.46 L 610.62 101.54 L 610.74 101.63 L 610.86 101.71 L 610.98 101.8 L 611.09 101.89 L 611.21 101.97 L 611.33 102.06 L 611.45 102.15 L 611.56 102.23 L 611.68 102.32 L 611.8 102.41 L 611.91 102.5 L 612.03 102.58 L 612.15 102.67 L 612.26 102.76 L 612.38 102.85 L 612.49 102.93 L 612.61 103.02 L 612.73 103.11 L 612.84 103.19 L 612.96 103.28 L 613.07 103.37 L 613.19 103.46 L 613.3 103.54 L 613.42 103.63 L 613.53 103.72 L 613.65 103.81 L 613.76 103.89 L 613.88 103.98 L 613.99 104.07 L 614.11 104.16 L 614.22 104.25 L 614.34 104.34 L 614.45 104.43 L 614.57 104.53 L 614.68 104.62 L 614.79 104.7 L 614.91 104.79 L 615.02 104.88 L 615.14 104.97 L 615.25 105.05 L 615.36 105.14 L 615.48 105.22 L 615.59 105.31 L 615.7 105.39 L 615.81 105.48 L 615.93 105.56 L 616.04 105.65 L 616.15 105.73 L 616.27 105.82 L 616.38 105.91 L 616.49 105.99 L 616.6 106.08 L 616.72 106.17 L 616.83 106.26 L 616.94 106.34 L 617.05 106.43 L 617.16 106.52 L 617.27 106.6 L 617.39 106.69 L 617.5 106.78 L 617.61 106.86 L 617.72 106.95 L 617.83 107.04 L 617.94 107.13 L 618.05 107.21 L 618.16 107.3 L 618.28 107.39 L 618.39 107.48 L 618.5 107.57 L 618.61 107.66 L 618.72 107.75 L 618.83 107.84 L 618.94 107.92 L 619.05 108.01 L 619.16 108.1 L 619.27 108.18 L 619.38 108.27 L 619.49 108.35 L 619.6 108.44 L 619.71 108.52 L 619.82 108.61 L 619.92 108.7 L 620.03 108.79 L 620.14 108.87 L 620.25 108.96 L 620.36 109.05 L 620.47 109.13 L 620.58 109.22 L 620.69 109.31 L 620.8 109.39 L 620.9 109.48 L 621.01 109.57 L 621.12 109.65 L 621.23 109.74 L 621.34 109.83 L 621.44 109.91 L 621.55 110 L 621.66 110.09 L 621.77 110.18 L 621.88 110.27 L 621.98 110.36 L 622.09 110.45 L 622.2 110.54 L 622.3 110.63 L 622.41 110.72 L 622.52 110.81 L 622.63 110.9 L 622.73 110.99 L 622.84 111.08 L 622.95 111.16 L 623.05 111.25 L 623.16 111.34 L 623.26 111.43 L 623.37 111.52 L 623.48 111.61 L 623.58 111.7 L 623.69 111.79 L 623.8 111.88 L 623.9 111.97 L 624.01 112.06 L 624.11 112.14 L 624.22 112.23 L 624.32 112.32 L 624.43 112.4 L 624.53 112.49 L 624.64 112.57 L 624.74 112.66 L 624.85 112.74 L 624.95 112.83 L 625.06 112.91 L 625.16 113 L 625.27 113.09 L 625.37 113.18 L 625.48 113.27 L 625.58 113.36 L 625.69 113.46 L 625.79 113.55 L 625.89 113.64 L 626 113.73 L 626.1 113.82 L 626.21 113.91 L 626.31 113.99 L 626.41 114.08 L 626.52 114.16 L 626.62 114.25 L 626.72 114.33 L 626.83 114.42 L 626.93 114.51 L 627.03 114.59 L 627.14 114.68 L 627.24 114.77 L 627.34 114.86 L 627.44 114.95 L 627.55 115.03 L 627.65 115.12 L 627.75 115.21 L 627.85 115.3 L 627.96 115.39 L 628.06 115.47 L 628.16 115.56 L 628.26 115.65 L 628.37 115.74 L 628.47 115.82 L 628.57 115.91 L 628.67 116 L 628.77 116.09 L 628.87 116.18 L 628.98 116.27 L 629.08 116.36 L 629.18 116.46 L 629.28 116.54 L 629.38 116.63 L 629.48 116.72 L 629.58 116.81 L 629.68 116.9 L 629.78 116.98 L 629.89 117.07 L 629.99 117.16 L 630.09 117.25 L 630.19 117.34 L 630.29 117.42 L 630.39 117.51 L 630.49 117.61 L 630.59 117.7 L 630.69 117.79 L 630.79 117.88 L 630.89 117.97 L 630.99 118.06 L 631.09 118.14 L 631.19 118.23 L 631.29 118.31 L 631.39 118.4 L 631.49 118.48 L 631.59 118.56 L 631.68 118.64 L 631.78 118.73 L 631.88 118.81 L 631.98 118.9 L 632.08 118.98 L 632.18 119.07 L 632.28 119.16 L 632.38 119.25 L 632.48 119.34 L 632.57 119.43 L 632.67 119.52 L 632.77 119.61 L 632.87 119.71 L 632.97 119.8 L 633.07 119.89 L 633.16 119.97 L 633.26 120.06 L 633.36 120.15 L 633.46 120.24 L 633.56 120.33 L 633.65 120.42 L 633.75 120.51 L 633.85 120.6 L 633.95 120.69 L 634.04 120.78 L 634.14 120.87 L 634.24 120.96 L 634.34 121.05 L 634.43 121.14 L 634.53 121.22 L 634.63 121.31 L 634.72 121.4 L 634.82 121.48 L 634.92 121.57 L 635.01 121.65 L 635.11 121.74 L 635.21 121.82 L 635.3 121.91 L 635.4 122 L 635.5 122.09 L 635.59 122.17 L 635.69 122.27 L 635.78 122.36 L 635.88 122.45 L 635.98 122.54 L 636.07 122.63 L 636.17 122.72 L 636.26 122.81 L 636.36 122.9 L 636.45 122.99 L 636.55 123.09 L 636.64 123.18 L 636.74 123.27 L 636.83 123.36 L 636.93 123.46 L 637.02 123.55 L 637.12 123.65 L 637.21 123.75 L 637.31 123.85 L 637.4 123.95 L 637.5 124.05 L 637.59 124.15 L 637.69 124.25 L 637.78 124.35 L 637.88 124.45 L 637.97 124.56 L 638.07 124.66 L 638.16 124.77 L 638.25 124.88 L 638.35 124.98 L 638.44 125.09 L 638.54 125.21 L 638.63 125.32 L 638.72 125.43 L 638.82 125.55 L 638.91 125.66 L 639 125.78 L 639.1 125.89 L 639.19 126.01 L 639.28 126.12 L 639.38 126.24 L 639.47 126.35 L 639.56 126.47 L 639.66 126.58 L 639.75 126.7 L 639.84 126.82 L 639.94 126.93 L 640.03 127.05 L 640.12 127.17 L 640.21 127.3 L 640.31 127.42 L 640.4 127.55 L 640.49 127.67 L 640.58 127.8 L 640.68 127.92 L 640.77 128.05 L 640.86 128.18 L 640.95 128.3 L 641.04 128.43 L 641.14 128.55 L 641.23 128.68 L 641.32 128.8 L 641.41 128.93 L 641.5 129.05 L 641.59 129.18 L 641.69 129.31 L 641.78 129.43 L 641.87 129.56 L 641.96 129.69 L 642.05 129.83 L 642.14 129.96 L 642.23 130.1 L 642.32 130.24 L 642.42 130.38 L 642.51 130.52 L 642.6 130.66 L 642.69 130.81 L 642.78 130.96 L 642.87 131.11 L 642.96 131.26 L 643.05 131.41 L 643.14 131.56 L 643.23 131.71 L 643.32 131.86 L 643.41 132.01 L 643.5 132.16 L 643.59 132.31 L 643.68 132.46 L 643.77 132.61 L 643.86 132.76 L 643.95 132.91 L 644.04 133.05 L 644.13 133.2 L 644.22 133.35 L 644.31 133.5 L 644.4 133.65 L 644.49 133.8 L 644.58 133.95 L 644.67 134.1 L 644.76 134.25 L 644.85 134.41 L 644.93 134.56 L 645.02 134.72 L 645.11 134.87 L 645.2 135.03 L 645.29 135.19 L 645.38 135.35 L 645.47 135.5 L 645.56 135.66 L 645.65 135.83 L 645.73 135.99 L 645.82 136.15 L 645.91 136.32 L 646 136.48 L 646.09 136.65 L 646.18 136.81 L 646.26 136.98 L 646.35 137.15 L 646.44 137.31 L 646.53 137.48 L 646.62 137.64 L 646.7 137.81 L 646.79 137.98 L 646.88 138.15 L 646.97 138.31 L 647.05 138.48 L 647.14 138.65 L 647.23 138.82 L 647.32 138.99 L 647.4 139.16 L 647.49 139.34 L 647.58 139.51 L 647.67 139.68 L 647.75 139.86 L 647.84 140.03 L 647.93 140.21 L 648.01 140.38 L 648.1 140.56 L 648.19 140.73 L 648.27 140.91 L 648.36 141.09 L 648.45 141.27 L 648.53 141.45 L 648.62 141.63 L 648.71 141.81 L 648.79 142 L 648.88 142.18 L 648.96 142.37 L 649.05 142.55 L 649.14 142.73 L 649.22 142.92 L 649.31 143.1 L 649.39 143.28 L 649.48 143.47 L 649.57 143.65 L 649.65 143.84 L 649.74 144.02 L 649.82 144.21 L 649.91 144.4 L 649.99 144.59 L 650.08 144.78 L 650.17 144.97 L 650.25 145.16 L 650.34 145.36 L 650.42 145.55 L 650.51 145.74 L 650.59 145.92 L 650.68 146.11 L 650.76 146.29 L 650.85 146.47 L 650.93 146.65 L 651.02 146.83 L 651.1 147 L 651.19 147.18 L 651.27 147.36 L 651.35 147.55 L 651.44 147.73 L 651.52 147.92 L 651.61 148.11 L 651.69 148.31 L 651.78 148.51 L 651.86 148.71 L 651.94 148.92 L 652.03 149.12 L 652.11 149.33 L 652.2 149.54 L 652.28 149.74 L 652.36 149.95 L 652.45 150.16 L 652.53 150.36 L 652.62 150.57 L 652.7 150.78 L 652.78 150.99 L 652.87 151.19 L 652.95 151.4 L 653.03 151.61 L 653.12 151.82 L 653.2 152.02 L 653.28 152.23 L 653.37 152.43 L 653.45 152.63 L 653.53 152.83 L 653.62 153.02 L 653.7 153.22 L 653.78 153.41 L 653.86 153.6 L 653.95 153.8 L 654.03 153.99 L 654.11 154.19 L 654.2 154.39 L 654.28 154.6 L 654.36 154.81 L 654.44 155.02 L 654.53 155.23 L 654.61 155.44 L 654.69 155.66 L 654.77 155.87 L 654.85 156.09 L 654.94 156.3 L 655.02 156.52 L 655.1 156.73 L 655.18 156.94 L 655.26 157.15 L 655.35 157.36 L 655.43 157.57 L 655.51 157.79 L 655.59 158 L 655.67 158.22 L 655.75 158.43 L 655.84 158.65 L 655.92 158.86 L 656 159.08 L 656.08 159.29 L 656.16 159.49 L 656.24 159.7 L 656.32 159.9 L 656.4 160.09 L 656.49 160.29 L 656.57 160.48 L 656.65 160.68 L 656.73 160.87 L 656.81 161.07 L 656.89 161.27 L 656.97 161.48 L 657.05 161.7 L 657.13 161.92 L 657.21 162.15 L 657.29 162.38 L 657.37 162.61 L 657.45 162.85 L 657.54 163.08 L 657.62 163.32 L 657.7 163.55 L 657.78 163.78 L 657.86 164.01 L 657.94 164.23 L 658.02 164.45 L 658.1 164.67 L 658.18 164.89 L 658.26 165.11 L 658.34 165.33 L 658.42 165.55 L 658.5 165.77 L 658.58 165.99 L 658.66 166.21 L 658.73 166.44 L 658.81 166.66 L 658.89 166.88 L 658.97 167.09 L 659.05 167.31 L 659.13 167.52 L 659.21 167.73 L 659.29 167.94 L 659.37 168.14 L 659.45 168.35 L 659.53 168.57 L 659.61 168.78 L 659.69 169 L 659.77 169.23 L 659.84 169.46 L 659.92 169.69 L 660 169.92 L 660.08 170.16 L 660.16 170.39 L 660.24 170.63 L 660.32 170.86 L 660.39 171.09 L 660.47 171.32 L 660.55 171.55 L 660.63 171.77 L 660.71 171.99 L 660.79 172.21 L 660.86 172.44 L 660.94 172.66 L 661.02 172.88 L 661.1 173.11 L 661.18 173.34 L 661.26 173.56 L 661.33 173.79 L 661.41 174.01 L 661.49 174.24 L 661.57 174.46 L 661.64 174.68 L 661.72 174.89 L 661.8 175.1 L 661.88 175.31 L 661.96 175.52 L 662.03 175.74 L 662.11 175.96 L 662.19 176.18 L 662.26 176.41 L 662.34 176.64 L 662.42 176.89 L 662.5 177.13 L 662.57 177.39 L 662.65 177.64 L 662.73 177.89 L 662.8 178.15 L 662.88 178.4 L 662.96 178.64 L 663.04 178.88 L 663.11 179.11 L 663.19 179.34 L 663.27 179.56 L 663.34 179.78 L 663.42 180 L 663.5 180.21 L 663.57 180.43 L 663.65 180.65 L 663.73 180.87 L 663.8 181.1 L 663.88 181.32 L 663.95 181.55 L 664.03 181.78 L 664.11 182 L 664.18 182.23 L 664.26 182.45 L 664.33 182.67 L 664.41 182.88 L 664.49 183.09 L 664.56 183.3 L 664.64 183.51 L 664.71 183.72 L 664.79 183.94 L 664.87 184.16 L 664.94 184.38 L 665.02 184.61 L 665.09 184.85 L 665.17 185.09 L 665.24 185.34 L 665.32 185.59 L 665.39 185.84 L 665.47 186.1 L 665.55 186.35 L 665.62 186.6 L 665.7 186.85 L 665.77 187.1 L 665.85 187.34 L 665.92 187.58 L 666 187.83 L 666.07 188.07 L 666.15 188.31 L 666.22 188.55 L 666.3 188.79 L 666.37 189.03 L 666.45 189.26 L 666.52 189.5 L 666.59 189.73 L 666.67 189.96 L 666.74 190.18 L 666.82 190.4 L 666.89 190.62 L 666.97 190.84 L 667.04 191.05 L 667.12 191.27 L 667.19 191.49 L 667.26 191.71 L 667.34 191.93 L 667.41 192.15 L 667.49 192.38 L 667.56 192.61 L 667.64 192.85 L 667.71 193.08 L 667.78 193.31 L 667.86 193.54 L 667.93 193.77 L 668 193.99 L 668.08 194.2 L 668.15 194.41 L 668.23 194.62 L 668.3 194.82 L 668.37 195.02 L 668.45 195.22 L 668.52 195.43 L 668.59 195.63 L 668.67 195.84 L 668.74 196.05 L 668.81 196.27 L 668.89 196.49 L 668.96 196.71 L 669.03 196.93 L 669.11 197.16 L 669.18 197.38 L 669.25 197.6 L 669.33 197.82 L 669.4 198.03 L 669.47 198.24 L 669.54 198.45 L 669.62 198.66 L 669.69 198.87 L 669.76 199.07 L 669.84 199.28 L 669.91 199.49 L 669.98 199.71 L 670.05 199.92 L 670.13 200.14 L 670.2 200.37 L 670.27 200.59 L 670.34 200.82 L 670.42 201.06 L 670.49 201.29 L 670.56 201.52 L 670.63 201.76 L 670.7 201.99 L 670.78 202.22 L 670.85 202.45 L 670.92 202.67 L 670.99 202.89 L 671.07 203.11 L 671.14 203.32 L 671.21 203.53 L 671.28 203.74 L 671.35 203.94 L 671.42 204.14 L 671.5 204.34 L 671.57 204.54 L 671.64 204.74 L 671.71 204.94 L 671.78 205.14 L 671.85 205.35 L 671.93 205.56 L 672 205.78 L 672.07 206 L 672.14 206.23 L 672.21 206.46 L 672.28 206.69 L 672.35 206.93 L 672.42 207.16 L 672.5 207.4 L 672.57 207.63 L 672.64 207.86 L 672.71 208.08 L 672.78 208.3 L 672.85 208.52 L 672.92 208.74 L 672.99 208.95 L 673.06 209.16 L 673.13 209.36 L 673.21 209.57 L 673.28 209.77 L 673.35 209.97 L 673.42 210.17 L 673.49 210.36 L 673.56 210.55 L 673.63 210.74 L 673.7 210.92 L 673.77 211.1 L 673.84 211.28 L 673.91 211.46 L 673.98 211.64 L 674.05 211.83 L 674.12 212.02 L 674.19 212.22 L 674.26 212.43 L 674.33 212.65 L 674.4 212.88 L 674.47 213.12 L 674.54 213.36 L 674.61 213.61 L 674.68 213.86 L 674.75 214.11 L 674.82 214.35 L 674.89 214.59 L 674.96 214.83 L 675.03 215.05 L 675.1 215.27 L 675.17 215.48 L 675.24 215.68 L 675.31 215.87 L 675.38 216.05 L 675.45 216.23 L 675.52 216.4 L 675.59 216.56 L 675.66 216.72 L 675.73 216.88 L 675.79 217.03 L 675.86 217.17 L 675.93 217.32 L 676 217.46 L 676.07 217.61 L 676.14 217.76 L 676.21 217.92 L 676.28 218.1 L 676.35 218.29 L 676.42 218.5 L 676.48 218.72 L 676.55 218.97 L 676.62 219.23 L 676.69 219.51 L 676.76 219.79 L 676.83 220.07 L 676.9 220.35 L 676.97 220.62 L 677.03 220.87 L 677.1 221.09 L 677.17 221.29 L 677.24 221.47 L 677.31 221.62 L 677.38 221.75 L 677.45 221.87 L 677.51 221.98 L 677.58 222.09 L 677.65 222.21 L 677.72 222.35 L 677.79 222.5 L 677.85 222.66 L 677.92 222.85 L 677.99 223.05 L 678.06 223.27 L 678.13 223.5 L 678.19 223.74 L 678.26 223.97 L 678.33 224.2 L 678.4 224.42 L 678.47 224.64 L 678.53 224.84 L 678.6 225.04 L 678.67 225.23 L 678.74 225.42 L 678.8 225.61 L 678.87 225.8 L 678.94 225.99 L 679.01 226.19 L 679.07 226.38 L 679.14 226.57 L 679.21 226.76 L 679.28 226.94 L 679.34 227.11 L 679.41 227.27 L 679.48 227.42 L 679.54 227.56 L 679.61 227.69 L 679.68 227.83 L 679.75 227.96 L 679.81 228.11 L 679.88 228.27 L 679.95 228.45 L 680.01 228.64 L 680.08 228.86 L 680.15 229.09 L 680.21 229.33 L 680.28 229.57 L 680.35 229.81 L 680.41 230.04 L 680.48 230.25 L 680.55 230.44 L 680.61 230.61 L 680.68 230.75 L 680.75 230.86 L 680.81 230.96 L 680.88 231.05 L 680.95 231.13 L 681.01 231.21 L 681.08 231.29 L 681.15 231.39 L 681.21 231.5 L 681.28 231.63 L 681.34 231.77 L 681.41 231.91 L 681.48 232.06 L 681.54 232.21 L 681.61 232.36 L 681.68 232.5 L 681.74 232.63 L 681.81 232.76 L 681.87 232.88 L 681.94 233.01 L 682 233.14 L 682.07 233.29 L 682.14 233.45 L 682.2 233.63 L 682.27 233.83 L 682.33 234.05 L 682.4 234.28 L 682.46 234.51 L 682.53 234.74 L 682.6 234.96 L 682.66 235.16 L 682.73 235.32 L 682.79 235.46 L 682.86 235.56 L 682.92 235.63 L 682.99 235.67 L 683.05 235.71 L 683.12 235.74 L 683.18 235.77 L 683.25 235.83 L 683.31 235.92 L 683.38 236.04 L 683.44 236.19 L 683.51 236.38 L 683.57 236.6 L 683.64 236.85 L 683.7 237.1 L 683.77 237.36 L 683.83 237.61 L 683.9 237.84 L 683.96 238.04 L 684.03 238.21 L 684.09 238.36 L 684.16 238.48 L 684.22 238.57 L 684.29 238.65 L 684.35 238.72 L 684.42 238.79 L 684.48 238.86 L 684.55 238.94 L 684.61 239.03 L 684.67 239.13 L 684.74 239.24 L 684.8 239.35 L 684.87 239.46 L 684.93 239.56 L 685 239.67 L 685.06 239.77 L 685.12 239.86 L 685.19 239.96 L 685.25 240.06 L 685.32 240.17 L 685.38 240.3 L 685.44 240.44 L 685.51 240.6 L 685.57 240.78 L 685.64 240.97 L 685.7 241.18 L 685.76 241.38 L 685.83 241.58 L 685.89 241.76 L 685.96 241.92 L 686.02 242.05 L 686.08 242.15 L 686.15 242.22 L 686.21 242.26 L 686.27 242.29 L 686.34 242.32 L 686.4 242.34 L 686.46 242.38 L 686.53 242.43 L 686.59 242.51 L 686.65 242.62 L 686.72 242.75 L 686.78 242.9 L 686.84 243.07 L 686.91 243.24 L 686.97 243.41 L 687.03 243.56 L 687.1 243.69 L 687.16 243.79 L 687.22 243.87 L 687.29 243.92 L 687.35 243.95 L 687.41 243.97 L 687.48 243.98 L 687.54 244 L 687.6 244.04 L 687.66 244.09 L 687.73 244.18 L 687.79 244.29 L 687.85 244.43 L 687.92 244.59 L 687.98 244.76 L 688.04 244.94 L 688.1 245.12 L 688.17 245.29 L 688.23 245.45 L 688.29 245.59 L 688.35 245.7 L 688.42 245.81 L 688.48 245.9 L 688.54 245.98 L 688.6 246.06 L 688.67 246.15 L 688.73 246.24 L 688.79 246.34 L 688.85 246.45 L 688.91 246.56 L 688.98 246.68 L 689.04 246.79 L 689.1 246.89 L 689.16 246.97 L 689.23 247.04 L 689.29 247.08 L 689.35 247.09 L 689.41 247.09 L 689.47 247.07 L 689.54 247.04 L 689.6 247 L 689.66 246.97 L 689.72 246.94 L 689.78 246.93 L 689.84 246.94 L 689.91 246.97 L 689.97 247.01 L 690.03 247.07 L 690.09 247.14 L 690.15 247.22 L 690.21 247.31 L 690.28 247.39 L 690.34 247.47 L 690.4 247.54 L 690.46 247.62 L 690.52 247.68 L 690.58 247.75 L 690.64 247.81 L 690.71 247.88 L 690.77 247.94 L 690.83 248.01 L 690.89 248.08 L 690.95 248.14 L 691.01 248.2 L 691.07 248.25 L 691.13 248.29 L 691.2 248.32 L 691.26 248.34 L 691.32 248.35 L 691.38 248.35 L 691.44 248.35 L 691.5 248.34 L 691.56 248.35 L 691.62 248.36 L 691.68 248.39 L 691.74 248.44 L 691.8 248.51 L 691.87 248.6 L 691.93 248.71 L 691.99 248.83 L 692.05 248.96 L 692.11 249.09 L 692.17 249.21 L 692.23 249.33 L 692.29 249.42 L 692.35 249.5 L 692.41 249.55 L 692.47 249.59 L 692.53 249.61 L 692.59 249.62 L 692.65 249.62 L 692.71 249.61 L 692.77 249.61 L 692.83 249.62 L 692.89 249.63 L 692.95 249.66 L 693.01 249.69 L 693.07 249.74 L 693.13 249.8 L 693.19 249.87 L 693.25 249.94 L 693.31 250 L 693.37 250.07 L 693.43 250.13 L 693.49 250.17 L 693.55 250.21 L 693.61 250.23" stroke="#f59e0b" stroke-width="3.47" fill="none"  stroke-linejoin="round" stroke-linecap="round"/></g><line x1="71.67" y1="45" x2="71.67" y2="331" stroke="#71717a" stroke-width="1.11"/><line x1="693.67" y1="45" x2="693.67" y2="331" stroke="#71717a" stroke-width="1.11"/><line x1="71.67" y1="45" x2="693.67" y2="45" stroke="#71717a" stroke-width="1.11"/><line x1="71.67" y1="331" x2="693.67" y2="331" stroke="#71717a" stroke-width="1.11"/><line data-xy-tick="minor" x1="71.67" y1="331" x2="71.67" y2="333.78" stroke="#71717a" stroke-width="0.83"/><line data-xy-tick="minor" x1="94.02" y1="331" x2="94.02" y2="333.78" stroke="#71717a" stroke-width="0.83"/><line data-xy-tick="minor" x1="112.91" y1="331" x2="112.91" y2="333.78" stroke="#71717a" stroke-width="0.83"/><line data-xy-tick="minor" x1="129.28" y1="331" x2="129.28" y2="333.78" stroke="#71717a" stroke-width="0.83"/><line data-xy-tick="minor" x1="143.71" y1="331" x2="143.71" y2="333.78" stroke="#71717a" stroke-width="0.83"/><line data-xy-tick="minor" x1="241.57" y1="331" x2="241.57" y2="333.78" stroke="#71717a" stroke-width="0.83"/><line data-xy-tick="minor" x1="291.27" y1="331" x2="291.27" y2="333.78" stroke="#71717a" stroke-width="0.83"/><line data-xy-tick="minor" x1="326.52" y1="331" x2="326.52" y2="333.78" stroke="#71717a" stroke-width="0.83"/><line data-xy-tick="minor" x1="353.87" y1="331" x2="353.87" y2="333.78" stroke="#71717a" stroke-width="0.83"/><line data-xy-tick="minor" x1="376.22" y1="331" x2="376.22" y2="333.78" stroke="#71717a" stroke-width="0.83"/><line data-xy-tick="minor" x1="395.11" y1="331" x2="395.11" y2="333.78" stroke="#71717a" stroke-width="0.83"/><line data-xy-tick="minor" x1="411.47" y1="331" x2="411.47" y2="333.78" stroke="#71717a" stroke-width="0.83"/><line data-xy-tick="minor" x1="425.91" y1="331" x2="425.91" y2="333.78" stroke="#71717a" stroke-width="0.83"/><line data-xy-tick="minor" x1="523.77" y1="331" x2="523.77" y2="333.78" stroke="#71717a" stroke-width="0.83"/><line data-xy-tick="minor" x1="573.47" y1="331" x2="573.47" y2="333.78" stroke="#71717a" stroke-width="0.83"/><line data-xy-tick="minor" x1="608.72" y1="331" x2="608.72" y2="333.78" stroke="#71717a" stroke-width="0.83"/><line data-xy-tick="minor" x1="636.07" y1="331" x2="636.07" y2="333.78" stroke="#71717a" stroke-width="0.83"/><line data-xy-tick="minor" x1="658.42" y1="331" x2="658.42" y2="333.78" stroke="#71717a" stroke-width="0.83"/><line data-xy-tick="minor" x1="677.31" y1="331" x2="677.31" y2="333.78" stroke="#71717a" stroke-width="0.83"/><line data-xy-tick="minor" x1="693.67" y1="331" x2="693.67" y2="333.78" stroke="#71717a" stroke-width="0.83"/><line x1="156.62" y1="331" x2="156.62" y2="335.86" stroke="#3f3f46" stroke-width="1.11"/><line x1="438.82" y1="331" x2="438.82" y2="335.86" stroke="#3f3f46" stroke-width="1.11"/><line x1="66.81" y1="331" x2="71.67" y2="331" stroke="#3f3f46" stroke-width="1.11"/><line x1="66.81" y1="290.14" x2="71.67" y2="290.14" stroke="#3f3f46" stroke-width="1.11"/><line x1="66.81" y1="249.29" x2="71.67" y2="249.29" stroke="#3f3f46" stroke-width="1.11"/><line x1="66.81" y1="208.43" x2="71.67" y2="208.43" stroke="#3f3f46" stroke-width="1.11"/><line x1="66.81" y1="167.57" x2="71.67" y2="167.57" stroke="#3f3f46" stroke-width="1.11"/><line x1="66.81" y1="126.71" x2="71.67" y2="126.71" stroke="#3f3f46" stroke-width="1.11"/><line x1="66.81" y1="85.86" x2="71.67" y2="85.86" stroke="#3f3f46" stroke-width="1.11"/><line x1="66.81" y1="45" x2="71.67" y2="45" stroke="#3f3f46" stroke-width="1.11"/><g fill="#27272a"><text x="156.62" y="354.06" fill="#3f3f46" font-size="16.67" text-anchor="middle">10²</text><text x="438.82" y="354.06" fill="#3f3f46" font-size="16.67" text-anchor="middle">10³</text><text x="61.95" y="336.83" fill="#3f3f46" font-size="16.67" text-anchor="end">-60</text><text x="61.95" y="295.98" fill="#3f3f46" font-size="16.67" text-anchor="end">-50</text><text x="61.95" y="255.12" fill="#3f3f46" font-size="16.67" text-anchor="end">-40</text><text x="61.95" y="214.26" fill="#3f3f46" font-size="16.67" text-anchor="end">-30</text><text x="61.95" y="173.4" fill="#3f3f46" font-size="16.67" text-anchor="end">-20</text><text x="61.95" y="132.55" fill="#3f3f46" font-size="16.67" text-anchor="end">-10</text><text x="61.95" y="91.69" fill="#3f3f46" font-size="16.67" text-anchor="end">0</text><text x="61.95" y="50.83" fill="#3f3f46" font-size="16.67" text-anchor="end">10</text></g><text x="382.67" y="31.11" text-anchor="middle" font-size="22.22" font-weight="400" fill="#27272a">Modified IRS 16 kHz (Wideband IRS)</text><text x="382.67" y="370.94" text-anchor="middle" font-size="19.44" font-weight="400" fill="#27272a">Frequency (Hz)</text><text x="22.23" y="188" text-anchor="middle" font-size="19.44" font-weight="400" fill="#27272a" transform="rotate(-90 22.23 188)">Magnitude (dB)</text></svg></svg>