<svg xmlns="http://www.w3.org/2000/svg" width="720" height="380" viewBox="0 0 720 380"><rect width="100%" height="100%" fill="#f4f4f5"/><svg x="0" y="0" width="720" height="380" viewBox="0 0 720 380"><defs><clipPath id="xy-panel-0-clip1"><rect x="71.67" y="45" width="619" height="246"/></clipPath></defs><rect x="71.67" y="45" width="619" height="246" fill="#f4f4f5"/><g><line data-xy-grid="minor" x1="173.41" y1="45" x2="173.41" y2="291" stroke="transparent" stroke-width="1.11" stroke-opacity="0.4"/><line data-xy-grid="minor" x1="200.05" y1="45" x2="200.05" y2="291" stroke="transparent" stroke-width="1.11" stroke-opacity="0.4"/><line data-xy-grid="minor" x1="220.71" y1="45" x2="220.71" y2="291" stroke="transparent" stroke-width="1.11" stroke-opacity="0.4"/><line data-xy-grid="minor" x1="237.59" y1="45" x2="237.59" y2="291" stroke="transparent" stroke-width="1.11" stroke-opacity="0.4"/><line data-xy-grid="minor" x1="251.87" y1="45" x2="251.87" y2="291" stroke="transparent" stroke-width="1.11" stroke-opacity="0.4"/><line data-xy-grid="minor" x1="264.23" y1="45" x2="264.23" y2="291" stroke="transparent" stroke-width="1.11" stroke-opacity="0.4"/><line data-xy-grid="minor" x1="275.14" y1="45" x2="275.14" y2="291" stroke="transparent" stroke-width="1.11" stroke-opacity="0.4"/><line data-xy-grid="minor" x1="349.08" y1="45" x2="349.08" y2="291" stroke="transparent" stroke-width="1.11" stroke-opacity="0.4"/><line data-xy-grid="minor" x1="386.63" y1="45" x2="386.63" y2="291" stroke="transparent" stroke-width="1.11" stroke-opacity="0.4"/><line data-xy-grid="minor" x1="413.27" y1="45" x2="413.27" y2="291" stroke="transparent" stroke-width="1.11" stroke-opacity="0.4"/><line data-xy-grid="minor" x1="450.81" y1="45" x2="450.81" y2="291" stroke="transparent" stroke-width="1.11" stroke-opacity="0.4"/><line data-xy-grid="minor" x1="465.09" y1="45" x2="465.09" y2="291" stroke="transparent" stroke-width="1.11" stroke-opacity="0.4"/><line data-xy-grid="minor" x1="477.45" y1="45" x2="477.45" y2="291" stroke="transparent" stroke-width="1.11" stroke-opacity="0.4"/><line data-xy-grid="minor" x1="488.36" y1="45" x2="488.36" y2="291" stroke="transparent" stroke-width="1.11" stroke-opacity="0.4"/><line data-xy-grid="minor" x1="562.3" y1="45" x2="562.3" y2="291" stroke="transparent" stroke-width="1.11" stroke-opacity="0.4"/><line data-xy-grid="minor" x1="599.85" y1="45" x2="599.85" y2="291" stroke="transparent" stroke-width="1.11" stroke-opacity="0.4"/><line data-xy-grid="minor" x1="647.15" y1="45" x2="647.15" y2="291" stroke="transparent" stroke-width="1.11" stroke-opacity="0.4"/><line data-xy-grid="minor" x1="664.03" y1="45" x2="664.03" y2="291" stroke="transparent" stroke-width="1.11" stroke-opacity="0.4"/><line data-xy-grid="minor" x1="678.31" y1="45" x2="678.31" y2="291" stroke="transparent" stroke-width="1.11" stroke-opacity="0.4"/><line x1="135.86" y1="45" x2="135.86" y2="291" stroke="#d4d4d8" stroke-width="1.11" stroke-opacity="0.4"/><line x1="284.89" y1="45" x2="284.89" y2="291" stroke="#d4d4d8" stroke-width="1.11" stroke-opacity="0.4"/><line x1="433.93" y1="45" x2="433.93" y2="291" stroke="#d4d4d8" stroke-width="1.11" stroke-opacity="0.4"/><line x1="498.12" y1="45" x2="498.12" y2="291" stroke="#d4d4d8" stroke-width="1.11" stroke-opacity="0.4"/><line x1="626.49" y1="45" x2="626.49" y2="291" stroke="#d4d4d8" stroke-width="1.11" stroke-opacity="0.4"/><line x1="690.67" y1="45" x2="690.67" y2="291" stroke="#d4d4d8" stroke-width="1.11" stroke-opacity="0.4"/><line x1="71.67" y1="278.05" x2="690.67" y2="278.05" stroke="#d4d4d8" stroke-width="1.11" stroke-opacity="0.4"/><line x1="71.67" y1="226.26" x2="690.67" y2="226.26" stroke="#d4d4d8" stroke-width="1.11" stroke-opacity="0.4"/><line x1="71.67" y1="174.47" x2="690.67" y2="174.47" stroke="#d4d4d8" stroke-width="1.11" stroke-opacity="0.4"/><line x1="71.67" y1="122.68" x2="690.67" y2="122.68" stroke="#d4d4d8" stroke-width="1.11" stroke-opacity="0.4"/><line x1="71.67" y1="70.89" x2="690.67" y2="70.89" stroke="#d4d4d8" stroke-width="1.11" stroke-opacity="0.4"/></g><g clip-path="url(#xy-panel-0-clip1)"><path d="M 222.14 236.15 L 225.64 238.52 L 229.01 241.75 L 232.26 246.23 L 235.4 252.77 L 238.43 263.49 L 241.37 288.91 L 244.22 283.09 L 246.99 258.96 L 249.67 246.91 L 252.28 238.64 L 254.82 232.25 L 257.29 227.01 L 259.69 222.53 L 262.04 218.59 L 264.32 215.06 L 266.55 211.84 L 268.73 208.87 L 270.86 206.09 L 272.94 203.47 L 274.98 200.98 L 276.97 198.59 L 278.92 196.28 L 280.83 194.05 L 282.7 191.87 L 284.53 189.73 L 286.33 187.64 L 288.09 185.57 L 289.83 183.54 L 291.52 181.52 L 293.19 179.53 L 294.83 177.57 L 296.44 175.62 L 298.03 173.69 L 299.58 171.78 L 301.11 169.9 L 302.62 168.04 L 304.1 166.2 L 305.56 164.4 L 306.99 162.62 L 308.41 160.87 L 309.8 159.15 L 311.17 157.47 L 312.52 155.82 L 313.86 154.2 L 315.17 152.63 L 316.46 151.08 L 317.74 149.58 L 319 148.12 L 320.24 146.69 L 321.47 145.31 L 322.68 143.96 L 323.88 142.66 L 325.06 141.39 L 326.22 140.16 L 327.37 138.97 L 328.51 137.82 L 329.63 136.71 L 330.74 135.63 L 331.84 134.59 L 332.92 133.59 L 333.99 132.62 L 335.05 131.69 L 336.09 130.79 L 337.13 129.92 L 338.15 129.08 L 339.16 128.27 L 340.16 127.49 L 341.15 126.73 L 342.13 126 L 343.1 125.3 L 344.06 124.62 L 345.01 123.96 L 345.95 123.32 L 346.88 122.7 L 347.81 122.1 L 348.72 121.51 L 349.62 120.94 L 350.52 120.38 L 351.4 119.84 L 352.28 119.3 L 353.15 118.77 L 354.01 118.25 L 354.86 117.73 L 355.71 117.23 L 356.55 116.72 L 357.38 116.22 L 358.2 115.72 L 359.02 115.23 L 359.83 114.73 L 360.63 114.24 L 361.42 113.74 L 362.21 113.25 L 362.99 112.76 L 363.77 112.27 L 364.54 111.78 L 365.3 111.29 L 366.05 110.8 L 366.8 110.31 L 367.55 109.82 L 368.29 109.34 L 369.02 108.86 L 369.74 108.39 L 370.46 107.92 L 371.18 107.46 L 371.89 107 L 372.59 106.56 L 373.29 106.12 L 373.99 105.69 L 374.67 105.27 L 375.36 104.86 L 376.04 104.46 L 376.71 104.07 L 377.38 103.7 L 378.04 103.34 L 378.7 102.99 L 379.36 102.66 L 380.01 102.34 L 380.65 102.04 L 381.29 101.75 L 381.93 101.47 L 382.56 101.21 L 383.19 100.97 L 383.81 100.74 L 384.43 100.52 L 385.05 100.32 L 385.66 100.13 L 386.26 99.95 L 386.87 99.79 L 387.47 99.64 L 388.06 99.49 L 388.65 99.36 L 389.24 99.24 L 389.83 99.12 L 390.41 99.01 L 390.98 98.91 L 391.56 98.81 L 392.13 98.72 L 392.69 98.62 L 393.26 98.53 L 393.82 98.44 L 394.37 98.35 L 394.93 98.25 L 395.47 98.16 L 396.02 98.05 L 396.56 97.95 L 397.1 97.83 L 397.64 97.72 L 398.17 97.59 L 398.71 97.46 L 399.23 97.31 L 399.76 97.16 L 400.28 97.01 L 400.8 96.84 L 401.31 96.66 L 401.83 96.48 L 402.34 96.29 L 402.84 96.1 L 403.35 95.9 L 403.85 95.69 L 404.35 95.48 L 404.85 95.26 L 405.34 95.05 L 405.83 94.83 L 406.32 94.61 L 406.81 94.39 L 407.29 94.18 L 407.77 93.96 L 408.25 93.75 L 408.73 93.55 L 409.2 93.35 L 409.67 93.16 L 410.14 92.97 L 410.61 92.8 L 411.07 92.63 L 411.53 92.47 L 411.99 92.32 L 412.45 92.18 L 412.9 92.06 L 413.36 91.94 L 413.81 91.83 L 414.26 91.74 L 414.7 91.66 L 415.15 91.58 L 415.59 91.52 L 416.03 91.47 L 416.47 91.42 L 416.9 91.39 L 417.34 91.36 L 417.77 91.34 L 418.2 91.33 L 418.62 91.32 L 419.05 91.32 L 419.47 91.32 L 419.9 91.33 L 420.32 91.34 L 420.73 91.34 L 421.15 91.35 L 421.56 91.35 L 421.98 91.35 L 422.39 91.35 L 422.8 91.35 L 423.2 91.33 L 423.61 91.31 L 424.01 91.29 L 424.41 91.25 L 424.81 91.21 L 425.21 91.16 L 425.61 91.1 L 426 91.03 L 426.4 90.95 L 426.79 90.86 L 427.18 90.76 L 427.57 90.65 L 427.95 90.54 L 428.34 90.42 L 428.72 90.29 L 429.1 90.16 L 429.48 90.02 L 429.86 89.87 L 430.24 89.73 L 430.62 89.58 L 430.99 89.44 L 431.36 89.29 L 431.73 89.14 L 432.1 89 L 432.47 88.86 L 432.84 88.73 L 433.2 88.6 L 433.57 88.48 L 433.93 88.37 L 434.29 88.26 L 434.65 88.16 L 435.01 88.07 L 435.37 88 L 435.72 87.93 L 436.08 87.87 L 436.43 87.82 L 436.78 87.78 L 437.13 87.76 L 437.48 87.74 L 437.83 87.73 L 438.17 87.73 L 438.52 87.74 L 438.86 87.76 L 439.2 87.79 L 439.54 87.82 L 439.88 87.86 L 440.22 87.91 L 440.56 87.95 L 440.9 88.01 L 441.23 88.06 L 441.56 88.12 L 441.9 88.17 L 442.23 88.22 L 442.56 88.27 L 442.89 88.32 L 443.21 88.36 L 443.54 88.4 L 443.87 88.43 L 444.19 88.46 L 444.51 88.47 L 444.84 88.48 L 445.16 88.47 L 445.48 88.46 L 445.8 88.44 L 446.11 88.41 L 446.43 88.36 L 446.75 88.31 L 447.06 88.25 L 447.37 88.18 L 447.69 88.1 L 448 88.01 L 448.31 87.92 L 448.62 87.82 L 448.92 87.71 L 449.23 87.6 L 449.54 87.49 L 449.84 87.38 L 450.15 87.26 L 450.45 87.14 L 450.75 87.03 L 451.05 86.92 L 451.35 86.81 L 451.65 86.71 L 451.95 86.61 L 452.25 86.51 L 452.54 86.43 L 452.84 86.35 L 453.13 86.28 L 453.43 86.21 L 453.72 86.16 L 454.01 86.12 L 454.3 86.08 L 454.59 86.05 L 454.88 86.03 L 455.17 86.02 L 455.46 86.02 L 455.74 86.03 L 456.03 86.05 L 456.31 86.07 L 456.6 86.09 L 456.88 86.13 L 457.16 86.17 L 457.44 86.21 L 457.72 86.25 L 458 86.3 L 458.28 86.35 L 458.56 86.39 L 458.84 86.44 L 459.11 86.48 L 459.39 86.52 L 459.66 86.55 L 459.93 86.58 L 460.21 86.6 L 460.48 86.62 L 460.75 86.62 L 461.02 86.62 L 461.29 86.61 L 461.56 86.59 L 461.83 86.56 L 462.09 86.52 L 462.36 86.47 L 462.63 86.41 L 462.89 86.34 L 463.16 86.26 L 463.42 86.18 L 463.68 86.08 L 463.94 85.98 L 464.2 85.88 L 464.47 85.77 L 464.72 85.65 L 464.98 85.53 L 465.24 85.42 L 465.5 85.29 L 465.76 85.18 L 466.01 85.06 L 466.27 84.94 L 466.52 84.83 L 466.78 84.72 L 467.03 84.62 L 467.28 84.52 L 467.54 84.43 L 467.79 84.35 L 468.04 84.28 L 468.29 84.21 L 468.54 84.16 L 468.78 84.11 L 469.03 84.07 L 469.28 84.05 L 469.53 84.03 L 469.77 84.02 L 470.02 84.02 L 470.26 84.02 L 470.51 84.04 L 470.75 84.06 L 470.99 84.09 L 471.23 84.12 L 471.48 84.16 L 471.72 84.21 L 471.96 84.25 L 472.2 84.3 L 472.44 84.35 L 472.67 84.4 L 472.91 84.45 L 473.15 84.5 L 473.39 84.54 L 473.62 84.58 L 473.86 84.61 L 474.09 84.64 L 474.33 84.66 L 474.56 84.67 L 474.79 84.67 L 475.02 84.66 L 475.26 84.65 L 475.49 84.62 L 475.72 84.59 L 475.95 84.54 L 476.18 84.49 L 476.41 84.42 L 476.64 84.35 L 476.86 84.27 L 477.09 84.18 L 477.32 84.08 L 477.54 83.98 L 477.77 83.87 L 477.99 83.76 L 478.22 83.65 L 478.44 83.53 L 478.67 83.42 L 478.89 83.3 L 479.11 83.19 L 479.33 83.07 L 479.55 82.96 L 479.77 82.86 L 479.99 82.76 L 480.21 82.66 L 480.43 82.58 L 480.65 82.5 L 480.87 82.43 L 481.09 82.37 L 481.3 82.31 L 481.52 82.27 L 481.74 82.23 L 481.95 82.21 L 482.17 82.19 L 482.38 82.18 L 482.6 82.18 L 482.81 82.19 L 483.02 82.21 L 483.24 82.24 L 483.45 82.27 L 483.66 82.31 L 483.87 82.35 L 484.08 82.4 L 484.29 82.45 L 484.5 82.5 L 484.71 82.55 L 484.92 82.6 L 485.13 82.66 L 485.34 82.71 L 485.54 82.75 L 485.75 82.8 L 485.96 82.83 L 486.16 82.86 L 486.37 82.89 L 486.57 82.9 L 486.78 82.91 L 486.98 82.91 L 487.19 82.9 L 487.39 82.87 L 487.59 82.84 L 487.79 82.8 L 488 82.75 L 488.2 82.69 L 488.4 82.62 L 488.6 82.54 L 488.8 82.46 L 489 82.37 L 489.2 82.27 L 489.4 82.16 L 489.6 82.05 L 489.8 81.94 L 489.99 81.83 L 490.19 81.72 L 490.39 81.6 L 490.58 81.49 L 490.78 81.38 L 490.97 81.27 L 491.17 81.17 L 491.36 81.07 L 491.56 80.98 L 491.75 80.89 L 491.95 80.82 L 492.14 80.75 L 492.33 80.69 L 492.52 80.63 L 492.72 80.59 L 492.91 80.56 L 493.1 80.53 L 493.29 80.52 L 493.48 80.51 L 493.67 80.52 L 493.86 80.53 L 494.05 80.55 L 494.24 80.57 L 494.43 80.61 L 494.61 80.65 L 494.8 80.69 L 494.99 80.74 L 495.18 80.79 L 495.36 80.85 L 495.55 80.9 L 495.73 80.96 L 495.92 81.01 L 496.1 81.07 L 496.29 81.12 L 496.47 81.16 L 496.66 81.2 L 496.84 81.23 L 497.02 81.26 L 497.21 81.28 L 497.39 81.29 L 497.57 81.29 L 497.75 81.28 L 497.93 81.26 L 498.12 81.23 L 498.3 81.19 L 498.48 81.14 L 498.66 81.08 L 498.84 81.01 L 499.02 80.93 L 499.19 80.85 L 499.37 80.76 L 499.55 80.66 L 499.73 80.56 L 499.91 80.45 L 500.08 80.34 L 500.26 80.22 L 500.44 80.11 L 500.61 79.99 L 500.79 79.88 L 500.97 79.77 L 501.14 79.66 L 501.32 79.56 L 501.49 79.46 L 501.66 79.37 L 501.84 79.28 L 502.01 79.2 L 502.18 79.13 L 502.36 79.07 L 502.53 79.01 L 502.7 78.97 L 502.87 78.93 L 503.05 78.91 L 503.22 78.89 L 503.39 78.89 L 503.56 78.89 L 503.73 78.9 L 503.9 78.92 L 504.07 78.94 L 504.24 78.97 L 504.41 79.01 L 504.58 79.06 L 504.75 79.1 L 504.91 79.16 L 505.08 79.21 L 505.25 79.27 L 505.42 79.32 L 505.58 79.37 L 505.75 79.43 L 505.92 79.48 L 506.08 79.52 L 506.25 79.56 L 506.41 79.59 L 506.58 79.62 L 506.74 79.64 L 506.91 79.65 L 507.07 79.65 L 507.24 79.64 L 507.4 79.63 L 507.56 79.6 L 507.73 79.56 L 507.89 79.51 L 508.05 79.46 L 508.22 79.39 L 508.38 79.31 L 508.54 79.23 L 508.7 79.14 L 508.86 79.05 L 509.02 78.94 L 509.18 78.84 L 509.34 78.73 L 509.5 78.62 L 509.66 78.51 L 509.82 78.39 L 509.98 78.28 L 510.14 78.17 L 510.3 78.07 L 510.46 77.97 L 510.62 77.87 L 510.77 77.78 L 510.93 77.69 L 511.09 77.62 L 511.25 77.55 L 511.4 77.49 L 511.56 77.43 L 511.72 77.39 L 511.87 77.36 L 512.03 77.34 L 512.18 77.32 L 512.34 77.31 L 512.49 77.32 L 512.65 77.33 L 512.8 77.35 L 512.96 77.38 L 513.11 77.41 L 513.26 77.45 L 513.42 77.5 L 513.57 77.55 L 513.72 77.6 L 513.88 77.66 L 514.03 77.71 L 514.18 77.77 L 514.33 77.83 L 514.49 77.88 L 514.64 77.93 L 514.79 77.98 L 514.94 78.02 L 515.09 78.06 L 515.24 78.09 L 515.39 78.11 L 515.54 78.12 L 515.69 78.12 L 515.84 78.12 L 515.99 78.1 L 516.14 78.08 L 516.29 78.04 L 516.43 78 L 516.58 77.94 L 516.73 77.88 L 516.88 77.8 L 517.03 77.72 L 517.17 77.64 L 517.32 77.54 L 517.47 77.44 L 517.61 77.34 L 517.76 77.23 L 517.91 77.12 L 518.05 77.01 L 518.2 76.9 L 518.34 76.79 L 518.49 76.68 L 518.63 76.58 L 518.78 76.48 L 518.92 76.38 L 519.07 76.29 L 519.21 76.21 L 519.36 76.13 L 519.5 76.06 L 519.64 76 L 519.79 75.95 L 519.93 75.91 L 520.07 75.88 L 520.21 75.85 L 520.36 75.84 L 520.5 75.84 L 520.64 75.84 L 520.78 75.85 L 520.92 75.87 L 521.07 75.9 L 521.21 75.93 L 521.35 75.98 L 521.49 76.02 L 521.63 76.07 L 521.77 76.13 L 521.91 76.18 L 522.05 76.24 L 522.19 76.3 L 522.33 76.36 L 522.47 76.41 L 522.61 76.46 L 522.74 76.51 L 522.88 76.55 L 523.02 76.59 L 523.16 76.62 L 523.3 76.64 L 523.43 76.66 L 523.57 76.66 L 523.71 76.66 L 523.85 76.64 L 523.98 76.62 L 524.12 76.58 L 524.26 76.54 L 524.39 76.49 L 524.53 76.42 L 524.66 76.35 L 524.8 76.27 L 524.94 76.19 L 525.07 76.1 L 525.21 76 L 525.34 75.89 L 525.48 75.79 L 525.61 75.68 L 525.74 75.57 L 525.88 75.46 L 526.01 75.35 L 526.15 75.24 L 526.28 75.14 L 526.41 75.04 L 526.55 74.95 L 526.68 74.86 L 526.81 74.77 L 526.94 74.7 L 527.08 74.63 L 527.21 74.57 L 527.34 74.52 L 527.47 74.48 L 527.6 74.45 L 527.74 74.42 L 527.87 74.41 L 528 74.41 L 528.13 74.41 L 528.26 74.42 L 528.39 74.45 L 528.52 74.48 L 528.65 74.51 L 528.78 74.55 L 528.91 74.6 L 529.04 74.65 L 529.17 74.71 L 529.3 74.76 L 529.43 74.82 L 529.56 74.88 L 529.69 74.94 L 529.81 75 L 529.94 75.05 L 530.07 75.1 L 530.2 75.15 L 530.33 75.19 L 530.45 75.22 L 530.58 75.24 L 530.71 75.26 L 530.84 75.27 L 530.96 75.27 L 531.09 75.25 L 531.22 75.23 L 531.34 75.2 L 531.47 75.16 L 531.6 75.11 L 531.72 75.05 L 531.85 74.98 L 531.97 74.9 L 532.1 74.82 L 532.22 74.73 L 532.35 74.63 L 532.47 74.53 L 532.6 74.43 L 532.72 74.32 L 532.85 74.21 L 532.97 74.11 L 533.09 74 L 533.22 73.89 L 533.34 73.79 L 533.47 73.69 L 533.59 73.6 L 533.71 73.51 L 533.84 73.43 L 533.96 73.35 L 534.08 73.29 L 534.2 73.23 L 534.33 73.18 L 534.45 73.14 L 534.57 73.1 L 534.69 73.08 L 534.81 73.07 L 534.94 73.07 L 535.06 73.07 L 535.18 73.08 L 535.3 73.11 L 535.42 73.14 L 535.54 73.17 L 535.66 73.21 L 535.78 73.26 L 535.9 73.32 L 536.02 73.37 L 536.14 73.43 L 536.26 73.49 L 536.38 73.55 L 536.5 73.61 L 536.62 73.67 L 536.74 73.73 L 536.86 73.78 L 536.98 73.83 L 537.1 73.87 L 537.22 73.9 L 537.33 73.93 L 537.45 73.95 L 537.57 73.96 L 537.69 73.96 L 537.81 73.95 L 537.93 73.93 L 538.04 73.9 L 538.16 73.86 L 538.28 73.81 L 538.39 73.75 L 538.51 73.69 L 538.63 73.61 L 538.75 73.53 L 538.86 73.44 L 538.98 73.35 L 539.09 73.25 L 539.21 73.14 L 539.33 73.04 L 539.44 72.93 L 539.56 72.82 L 539.67 72.72 L 539.79 72.61 L 539.9 72.51 L 540.02 72.41 L 540.13 72.32 L 540.25 72.23 L 540.36 72.15 L 540.48 72.08 L 540.59 72.01 L 540.71 71.95 L 540.82 71.91 L 540.93 71.87 L 541.05 71.84 L 541.16 71.82 L 541.28 71.81 L 541.39 71.8 L 541.5 71.81 L 541.62 71.83 L 541.73 71.86 L 541.84 71.89 L 541.95 71.93 L 542.07 71.98 L 542.18 72.04 L 542.29 72.1 L 542.4 72.16 L 542.52 72.23 L 542.63 72.3 L 542.74 72.37 L 542.85 72.44 L 542.96 72.51 L 543.07 72.58 L 543.19 72.64 L 543.3 72.7 L 543.41 72.76 L 543.52 72.81 L 543.63 72.85 L 543.74 72.88 L 543.85 72.91 L 543.96 72.92 L 544.07 72.93 L 544.18 72.93 L 544.29 72.91 L 544.4 72.89 L 544.51 72.86 L 544.62 72.82 L 544.73 72.77 L 544.84 72.71 L 544.95 72.64 L 545.06 72.57 L 545.17 72.49 L 545.27 72.4 L 545.38 72.31 L 545.49 72.22 L 545.6 72.12 L 545.71 72.03 L 545.82 71.93 L 545.92 71.84 L 546.03 71.74 L 546.14 71.66 L 546.25 71.57 L 546.35 71.49 L 546.46 71.42 L 546.57 71.35 L 546.68 71.29 L 546.78 71.24 L 546.89 71.19 L 547 71.16 L 547.1 71.13 L 547.21 71.12 L 547.32 71.11 L 547.42 71.11 L 547.53 71.12 L 547.63 71.14 L 547.74 71.17 L 547.85 71.21 L 547.95 71.25 L 548.06 71.3 L 548.16 71.36 L 548.27 71.42 L 548.37 71.49 L 548.48 71.56 L 548.58 71.63 L 548.69 71.7 L 548.79 71.77 L 548.9 71.85 L 549 71.91 L 549.11 71.98 L 549.21 72.04 L 549.31 72.1 L 549.42 72.15 L 549.52 72.19 L 549.63 72.23 L 549.73 72.26 L 549.83 72.28 L 549.94 72.28 L 550.04 72.28 L 550.14 72.27 L 550.25 72.25 L 550.35 72.22 L 550.45 72.18 L 550.55 72.13 L 550.66 72.08 L 550.76 72.01 L 550.86 71.94 L 550.96 71.86 L 551.07 71.77 L 551.17 71.69 L 551.27 71.59 L 551.37 71.5 L 551.47 71.4 L 551.58 71.31 L 551.68 71.21 L 551.78 71.12 L 551.88 71.03 L 551.98 70.95 L 552.08 70.87 L 552.18 70.79 L 552.28 70.72 L 552.38 70.66 L 552.48 70.61 L 552.59 70.57 L 552.69 70.53 L 552.79 70.5 L 552.89 70.49 L 552.99 70.48 L 553.09 70.48 L 553.19 70.49 L 553.29 70.51 L 553.39 70.54 L 553.48 70.57 L 553.58 70.62 L 553.68 70.67 L 553.78 70.72 L 553.88 70.78 L 553.98 70.85 L 554.08 70.92 L 554.18 70.99 L 554.28 71.06 L 554.38 71.14 L 554.47 71.21 L 554.57 71.28 L 554.67 71.34 L 554.77 71.41 L 554.87 71.47 L 554.97 71.52 L 555.06 71.56 L 555.16 71.6 L 555.26 71.63 L 555.36 71.65 L 555.45 71.66 L 555.55 71.66 L 555.65 71.65 L 555.74 71.63 L 555.84 71.6 L 555.94 71.56 L 556.04 71.52 L 556.13 71.46 L 556.23 71.4 L 556.33 71.32 L 556.42 71.25 L 556.52 71.16 L 556.61 71.07 L 556.71 70.98 L 556.81 70.89 L 556.9 70.79 L 557 70.7 L 557.09 70.6 L 557.19 70.51 L 557.29 70.42 L 557.38 70.34 L 557.48 70.26 L 557.57 70.18 L 557.67 70.11 L 557.76 70.05 L 557.86 70 L 557.95 69.95 L 558.05 69.92 L 558.14 69.89 L 558.23 69.87 L 558.33 69.86 L 558.42 69.86 L 558.52 69.87 L 558.61 69.89 L 558.71 69.92 L 558.8 69.95 L 558.89 70 L 558.99 70.05 L 559.08 70.1 L 559.17 70.16 L 559.27 70.23 L 559.36 70.3 L 559.46 70.37 L 559.55 70.44 L 559.64 70.52 L 559.73 70.59 L 559.83 70.66 L 559.92 70.73 L 560.01 70.79 L 560.11 70.85 L 560.2 70.9 L 560.29 70.95 L 560.38 70.99 L 560.48 71.02 L 560.57 71.04 L 560.66 71.05 L 560.75 71.05 L 560.84 71.04 L 560.94 71.03 L 561.03 71 L 561.12 70.96 L 561.21 70.91 L 561.3 70.86 L 561.39 70.79 L 561.48 70.72 L 561.58 70.64 L 561.67 70.56 L 561.76 70.47 L 561.85 70.37 L 561.94 70.28 L 562.03 70.18 L 562.12 70.08 L 562.21 69.99 L 562.3 69.89 L 562.39 69.8 L 562.48 69.71 L 562.57 69.63 L 562.66 69.55 L 562.75 69.48 L 562.84 69.41 L 562.93 69.35 L 563.02 69.31 L 563.11 69.26 L 563.2 69.23 L 563.29 69.21 L 563.38 69.2 L 563.47 69.19 L 563.56 69.2 L 563.65 69.21 L 563.74 69.23 L 563.83 69.26 L 563.92 69.3 L 564 69.34 L 564.09 69.39 L 564.18 69.45 L 564.27 69.51 L 564.36 69.57 L 564.45 69.64 L 564.54 69.71 L 564.62 69.77 L 564.71 69.84 L 564.8 69.91 L 564.89 69.97 L 564.98 70.03 L 565.06 70.08 L 565.15 70.13 L 565.24 70.17 L 565.33 70.2 L 565.41 70.23 L 565.5 70.24 L 565.59 70.25 L 565.68 70.25 L 565.76 70.23 L 565.85 70.21 L 565.94 70.18 L 566.02 70.14 L 566.11 70.09 L 566.2 70.03 L 566.28 69.96 L 566.37 69.88 L 566.46 69.8 L 566.54 69.71 L 566.63 69.62 L 566.72 69.53 L 566.8 69.43 L 566.89 69.33 L 566.97 69.23 L 567.06 69.13 L 567.15 69.03 L 567.23 68.94 L 567.32 68.85 L 567.4 68.76 L 567.49 68.68 L 567.57 68.6 L 567.66 68.54 L 567.75 68.48 L 567.83 68.43 L 567.92 68.38 L 568 68.35 L 568.09 68.32 L 568.17 68.31 L 568.26 68.3 L 568.34 68.31 L 568.42 68.32 L 568.51 68.34 L 568.59 68.37 L 568.68 68.4 L 568.76 68.45 L 568.85 68.5 L 568.93 68.55 L 569.02 68.61 L 569.1 68.67 L 569.18 68.74 L 569.27 68.81 L 569.35 68.88 L 569.44 68.94 L 569.52 69.01 L 569.6 69.08 L 569.69 69.14 L 569.77 69.19 L 569.85 69.24 L 569.94 69.28 L 570.02 69.32 L 570.1 69.35 L 570.19 69.37 L 570.27 69.38 L 570.35 69.38 L 570.43 69.37 L 570.52 69.35 L 570.6 69.32 L 570.68 69.28 L 570.77 69.23 L 570.85 69.17 L 570.93 69.11 L 571.01 69.03 L 571.09 68.95 L 571.18 68.87 L 571.26 68.78 L 571.34 68.68 L 571.42 68.59 L 571.5 68.49 L 571.59 68.39 L 571.67 68.29 L 571.75 68.19 L 571.83 68.1 L 571.91 68.01 L 571.99 67.92 L 572.08 67.84 L 572.16 67.76 L 572.24 67.69 L 572.32 67.63 L 572.4 67.58 L 572.48 67.54 L 572.56 67.5 L 572.64 67.47 L 572.72 67.46 L 572.81 67.45 L 572.89 67.45 L 572.97 67.46 L 573.05 67.48 L 573.13 67.5 L 573.21 67.54 L 573.29 67.58 L 573.37 67.63 L 573.45 67.68 L 573.53 67.74 L 573.61 67.81 L 573.69 67.87 L 573.77 67.94 L 573.85 68.01 L 573.93 68.08 L 574.01 68.14 L 574.09 68.21 L 574.17 68.27 L 574.25 68.33 L 574.33 68.38 L 574.41 68.43 L 574.49 68.47 L 574.57 68.5 L 574.64 68.52 L 574.72 68.53 L 574.8 68.53 L 574.88 68.53 L 574.96 68.51 L 575.04 68.49 L 575.12 68.45 L 575.2 68.41 L 575.28 68.35 L 575.35 68.29 L 575.43 68.22 L 575.51 68.14 L 575.59 68.06 L 575.67 67.97 L 575.75 67.88 L 575.82 67.78 L 575.9 67.69 L 575.98 67.59 L 576.06 67.49 L 576.14 67.39 L 576.21 67.3 L 576.29 67.21 L 576.37 67.12 L 576.45 67.03 L 576.52 66.96 L 576.6 66.89 L 576.68 66.82 L 576.76 66.77 L 576.83 66.72 L 576.91 66.68 L 576.99 66.65 L 577.07 66.63 L 577.14 66.62 L 577.22 66.62 L 577.3 66.63 L 577.37 66.65 L 577.45 66.67 L 577.53 66.7 L 577.6 66.74 L 577.68 66.79 L 577.76 66.84 L 577.83 66.9 L 577.91 66.96 L 577.99 67.03 L 578.06 67.09 L 578.14 67.16 L 578.22 67.23 L 578.29 67.3 L 578.37 67.37 L 578.44 67.43 L 578.52 67.49 L 578.6 67.54 L 578.67 67.59 L 578.75 67.63 L 578.82 67.67 L 578.9 67.69 L 578.97 67.71 L 579.05 67.72 L 579.12 67.72 L 579.2 67.71 L 579.28 67.69 L 579.35 67.66 L 579.43 67.62 L 579.5 67.57 L 579.58 67.51 L 579.65 67.44 L 579.73 67.37 L 579.8 67.29 L 579.88 67.21 L 579.95 67.12 L 580.03 67.02 L 580.1 66.93 L 580.17 66.83 L 580.25 66.73 L 580.32 66.63 L 580.4 66.54 L 580.47 66.45 L 580.55 66.36 L 580.62 66.27 L 580.69 66.19 L 580.77 66.12 L 580.84 66.05 L 580.92 65.99 L 580.99 65.94 L 581.06 65.9 L 581.14 65.87 L 581.21 65.84 L 581.29 65.83 L 581.36 65.82 L 581.43 65.82 L 581.51 65.84 L 581.58 65.86 L 581.65 65.89 L 581.73 65.92 L 581.8 65.97 L 581.87 66.01 L 581.95 66.07 L 582.02 66.13 L 582.09 66.2 L 582.17 66.26 L 582.24 66.33 L 582.31 66.4 L 582.38 66.48 L 582.46 66.55 L 582.53 66.61 L 582.6 66.68 L 582.68 66.74 L 582.75 66.8 L 582.82 66.85 L 582.89 66.89 L 582.96 66.93 L 583.04 66.96 L 583.11 66.98 L 583.18 66.99 L 583.25 67 L 583.33 66.99 L 583.4 66.98 L 583.47 66.95 L 583.54 66.92 L 583.61 66.88 L 583.69 66.84 L 583.76 66.78 L 583.83 66.72 L 583.9 66.66 L 583.97 66.58 L 584.04 66.51 L 584.12 66.43 L 584.19 66.35 L 584.26 66.27 L 584.33 66.2 L 584.4 66.12 L 584.47 66.04 L 584.54 65.97 L 584.61 65.9 L 584.69 65.84 L 584.76 65.78 L 584.83 65.73 L 584.9 65.69 L 584.97 65.66 L 585.04 65.63 L 585.11 65.61 L 585.18 65.6 L 585.25 65.6 L 585.32 65.61 L 585.39 65.63 L 585.46 65.65 L 585.53 65.69 L 585.6 65.73 L 585.67 65.78 L 585.74 65.84 L 585.81 65.9 L 585.88 65.97 L 585.95 66.05 L 586.02 66.13 L 586.09 66.21 L 586.16 66.29 L 586.23 66.38 L 586.3 66.47 L 586.37 66.55 L 586.44 66.64 L 586.51 66.72 L 586.58 66.79 L 586.65 66.86 L 586.72 66.93 L 586.79 66.99 L 586.86 67.04 L 586.93 67.08 L 587 67.12 L 587.07 67.14 L 587.14 67.16 L 587.21 67.16 L 587.28 67.16 L 587.35 67.15 L 587.41 67.12 L 587.48 67.09 L 587.55 67.05 L 587.62 67 L 587.69 66.95 L 587.76 66.89 L 587.83 66.82 L 587.9 66.75 L 587.96 66.67 L 588.03 66.59 L 588.1 66.51 L 588.17 66.43 L 588.24 66.35 L 588.31 66.27 L 588.37 66.2 L 588.44 66.13 L 588.51 66.06 L 588.58 66 L 588.65 65.94 L 588.71 65.89 L 588.78 65.85 L 588.85 65.82 L 588.92 65.79 L 588.99 65.78 L 589.05 65.77 L 589.12 65.77 L 589.19 65.78 L 589.26 65.8 L 589.32 65.83 L 589.39 65.87 L 589.46 65.91 L 589.53 65.97 L 589.59 66.03 L 589.66 66.09 L 589.73 66.17 L 589.8 66.24 L 589.86 66.32 L 589.93 66.41 L 590 66.49 L 590.06 66.58 L 590.13 66.67 L 590.2 66.75 L 590.27 66.83 L 590.33 66.91 L 590.4 66.99 L 590.47 67.06 L 590.53 67.12 L 590.6 67.18 L 590.67 67.23 L 590.73 67.27 L 590.8 67.3 L 590.87 67.32 L 590.93 67.33 L 591 67.33 L 591.06 67.33 L 591.13 67.31 L 591.2 67.28 L 591.26 67.25 L 591.33 67.21 L 591.4 67.15 L 591.46 67.1 L 591.53 67.03 L 591.59 66.96 L 591.66 66.89 L 591.72 66.81 L 591.79 66.73 L 591.86 66.65 L 591.92 66.57 L 591.99 66.49 L 592.05 66.42 L 592.12 66.34 L 592.18 66.27 L 592.25 66.21 L 592.32 66.15 L 592.38 66.09 L 592.45 66.05 L 592.51 66.01 L 592.58 65.98 L 592.64 65.95 L 592.71 65.94 L 592.77 65.94 L 592.84 65.94 L 592.9 65.96 L 592.97 65.98 L 593.03 66.01 L 593.1 66.05 L 593.16 66.1 L 593.23 66.15 L 593.29 66.22 L 593.36 66.29 L 593.42 66.36 L 593.49 66.44 L 593.55 66.52 L 593.61 66.6 L 593.68 66.69 L 593.74 66.78 L 593.81 66.86 L 593.87 66.95 L 593.94 67.03 L 594 67.11 L 594.06 67.18 L 594.13 67.25 L 594.19 67.31 L 594.26 67.36 L 594.32 67.41 L 594.38 67.44 L 594.45 67.47 L 594.51 67.49 L 594.58 67.5 L 594.64 67.5 L 594.7 67.49 L 594.77 67.47 L 594.83 67.44 L 594.9 67.4 L 594.96 67.36 L 595.02 67.31 L 595.09 67.25 L 595.15 67.18 L 595.21 67.11 L 595.28 67.04 L 595.34 66.96 L 595.4 66.88 L 595.47 66.8 L 595.53 66.72 L 595.59 66.64 L 595.66 66.56 L 595.72 66.49 L 595.78 66.42 L 595.84 66.36 L 595.91 66.3 L 595.97 66.25 L 596.03 66.2 L 596.1 66.17 L 596.16 66.14 L 596.22 66.12 L 596.28 66.11 L 596.35 66.11 L 596.41 66.11 L 596.47 66.13 L 596.53 66.15 L 596.6 66.19 L 596.66 66.23 L 596.72 66.28 L 596.78 66.34 L 596.85 66.4 L 596.91 66.47 L 596.97 66.54 L 597.03 66.62 L 597.09 66.7 L 597.16 66.79 L 597.22 66.87 L 597.28 66.96 L 597.34 67.04 L 597.4 67.13 L 597.47 67.21 L 597.53 67.29 L 597.59 67.36 L 597.65 67.42 L 597.71 67.49 L 597.78 67.54 L 597.84 67.58 L 597.9 67.62 L 597.96 67.65 L 598.02 67.66 L 598.08 67.67 L 598.14 67.67 L 598.21 67.66 L 598.27 67.64 L 598.33 67.61 L 598.39 67.58 L 598.45 67.53 L 598.51 67.48 L 598.57 67.42 L 598.63 67.36 L 598.7 67.29 L 598.76 67.21 L 598.82 67.14 L 598.88 67.06 L 598.94 66.98 L 599 66.9 L 599.06 66.82 L 599.12 66.75 L 599.18 66.68 L 599.24 66.61 L 599.3 66.54 L 599.36 66.49 L 599.43 66.43 L 599.49 66.39 L 599.55 66.35 L 599.61 66.32 L 599.67 66.3 L 599.73 66.29 L 599.79 66.28 L 599.85 66.28 L 599.91 66.29 L 599.97 66.31 L 600.03 66.34 L 600.09 66.38 L 600.15 66.42 L 600.21 66.47 L 600.27 66.52 L 600.33 66.58 L 600.39 66.64 L 600.45 66.71 L 600.51 66.78 L 600.57 66.85 L 600.63 66.92 L 600.69 66.99 L 600.75 67.06 L 600.81 67.13 L 600.87 67.2 L 600.93 67.26 L 600.99 67.31 L 601.05 67.36 L 601.11 67.41 L 601.16 67.44 L 601.22 67.47 L 601.28 67.49 L 601.34 67.5 L 601.4 67.5 L 601.46 67.49 L 601.52 67.47 L 601.58 67.44 L 601.64 67.4 L 601.7 67.36 L 601.76 67.31 L 601.82 67.24 L 601.88 67.18 L 601.93 67.1 L 601.99 67.02 L 602.05 66.94 L 602.11 66.85 L 602.17 66.76 L 602.23 66.67 L 602.29 66.58 L 602.35 66.49 L 602.4 66.4 L 602.46 66.31 L 602.52 66.23 L 602.58 66.14 L 602.64 66.07 L 602.7 66 L 602.76 65.94 L 602.81 65.88 L 602.87 65.83 L 602.93 65.79 L 602.99 65.76 L 603.05 65.74 L 603.11 65.72 L 603.16 65.72 L 603.22 65.72 L 603.28 65.73 L 603.34 65.75 L 603.4 65.78 L 603.45 65.82 L 603.51 65.86 L 603.57 65.91 L 603.63 65.97 L 603.69 66.04 L 603.74 66.11 L 603.8 66.18 L 603.86 66.26 L 603.92 66.34 L 603.97 66.42 L 604.03 66.5 L 604.09 66.59 L 604.15 66.67 L 604.21 66.75 L 604.26 66.83 L 604.32 66.91 L 604.38 66.99 L 604.43 67.06 L 604.49 67.12 L 604.55 67.18 L 604.61 67.24 L 604.66 67.29 L 604.72 67.33 L 604.78 67.37 L 604.84 67.4 L 604.89 67.43 L 604.95 67.45 L 605.01 67.46 L 605.06 67.47 L 605.12 67.47 L 605.18 67.47 L 605.23 67.47 L 605.29 67.47 L 605.35 67.46 L 605.41 67.45 L 605.46 67.44 L 605.52 67.43 L 605.58 67.42 L 605.63 67.42 L 605.69 67.41 L 605.75 67.41 L 605.8 67.42 L 605.86 67.43 L 605.91 67.44 L 605.97 67.46 L 606.03 67.49 L 606.08 67.53 L 606.14 67.57 L 606.2 67.62 L 606.25 67.68 L 606.31 67.74 L 606.37 67.82 L 606.42 67.9 L 606.48 67.99 L 606.53 68.09 L 606.59 68.2 L 606.65 68.31 L 606.7 68.44 L 606.76 68.56 L 606.81 68.7 L 606.87 68.83 L 606.93 68.98 L 606.98 69.12 L 607.04 69.27 L 607.09 69.42 L 607.15 69.57 L 607.2 69.73 L 607.26 69.88 L 607.32 70.03 L 607.37 70.17 L 607.43 70.31 L 607.48 70.45 L 607.54 70.58 L 607.59 70.71 L 607.65 70.83 L 607.7 70.94 L 607.76 71.05 L 607.81 71.14 L 607.87 71.23 L 607.93 71.31 L 607.98 71.38 L 608.04 71.44 L 608.09 71.5 L 608.15 71.54 L 608.2 71.58 L 608.26 71.61 L 608.31 71.64 L 608.37 71.65 L 608.42 71.67 L 608.48 71.68 L 608.53 71.68 L 608.59 71.68 L 608.64 71.68 L 608.7 71.68 L 608.75 71.68 L 608.81 71.68 L 608.86 71.69 L 608.91 71.69 L 608.97 71.7 L 609.02 71.72 L 609.08 71.73 L 609.13 71.76 L 609.19 71.79 L 609.24 71.83 L 609.3 71.87 L 609.35 71.93 L 609.41 71.99 L 609.46 72.06 L 609.51 72.13 L 609.57 72.22 L 609.62 72.31 L 609.68 72.41 L 609.73 72.52 L 609.79 72.64 L 609.84 72.77 L 609.89 72.9 L 609.95 73.03 L 610 73.17 L 610.06 73.32 L 610.11 73.47 L 610.16 73.63 L 610.22 73.79 L 610.27 73.95 L 610.33 74.11 L 610.38 74.27 L 610.43 74.43 L 610.49 74.59 L 610.54 74.75 L 610.59 74.9 L 610.65 75.05 L 610.7 75.2 L 610.75 75.35 L 610.81 75.49 L 610.86 75.63 L 610.92 75.76 L 610.97 75.89 L 611.02 76.01 L 611.08 76.13 L 611.13 76.24 L 611.18 76.35 L 611.24 76.45 L 611.29 76.55 L 611.34 76.65 L 611.4 76.75 L 611.45 76.84 L 611.5 76.94 L 611.56 77.04 L 611.61 77.13 L 611.66 77.23 L 611.71 77.34 L 611.77 77.44 L 611.82 77.55 L 611.87 77.67 L 611.93 77.8 L 611.98 77.93 L 612.03 78.07 L 612.09 78.22 L 612.14 78.38 L 612.19 78.55 L 612.24 78.73 L 612.3 78.92 L 612.35 79.13 L 612.4 79.34 L 612.45 79.57 L 612.51 79.82 L 612.56 80.07 L 612.61 80.34 L 612.66 80.62 L 612.72 80.91 L 612.77 81.22 L 612.82 81.53 L 612.87 81.86 L 612.93 82.19 L 612.98 82.54 L 613.03 82.9 L 613.08 83.26 L 613.14 83.63 L 613.19 84 L 613.24 84.38 L 613.29 84.76 L 613.34 85.14 L 613.4 85.52 L 613.45 85.91 L 613.5 86.29 L 613.55 86.66 L 613.6 87.03 L 613.66 87.39 L 613.71 87.75 L 613.76 88.1 L 613.81 88.44 L 613.86 88.76 L 613.92 89.08 L 613.97 89.38 L 614.02 89.68 L 614.07 89.96 L 614.12 90.22 L 614.17 90.48 L 614.23 90.72 L 614.28 90.95 L 614.33 91.17 L 614.38 91.38 L 614.43 91.58 L 614.48 91.77 L 614.54 91.95 L 614.59 92.13 L 614.64 92.31 L 614.69 92.48 L 614.74 92.65 L 614.79 92.82 L 614.84 92.99 L 614.89 93.16 L 614.95 93.34 L 615 93.53 L 615.05 93.72 L 615.1 93.92 L 615.15 94.13 L 615.2 94.35 L 615.25 94.58 L 615.3 94.82 L 615.35 95.07 L 615.41 95.34 L 615.46 95.62 L 615.51 95.92 L 615.56 96.22 L 615.61 96.55 L 615.66 96.88 L 615.71 97.23 L 615.76 97.59 L 615.81 97.96 L 615.86 98.35 L 615.91 98.75 L 615.96 99.15 L 616.02 99.56 L 616.07 99.98 L 616.12 100.41 L 616.17 100.84 L 616.22 101.27 L 616.27 101.71 L 616.32 102.14 L 616.37 102.57 L 616.42 103 L 616.47 103.42 L 616.52 103.83 L 616.57 104.24 L 616.62 104.63 L 616.67 105.01 L 616.72 105.38 L 616.77 105.74 L 616.82 106.08 L 616.87 106.41 L 616.92 106.72 L 616.97 107.01 L 617.02 107.29 L 617.07 107.56 L 617.12 107.8 L 617.17 108.04 L 617.22 108.26 L 617.27 108.47 L 617.32 108.67 L 617.37 108.86 L 617.42 109.04 L 617.47 109.22 L 617.52 109.39 L 617.57 109.56 L 617.62 109.73 L 617.67 109.9 L 617.72 110.07 L 617.77 110.25 L 617.82 110.43 L 617.87 110.63 L 617.92 110.83 L 617.97 111.04 L 618.02 111.26 L 618.07 111.49 L 618.12 111.74 L 618.17 112 L 618.22 112.28 L 618.27 112.57 L 618.32 112.87 L 618.36 113.19 L 618.41 113.52 L 618.46 113.87 L 618.51 114.23 L 618.56 114.6 L 618.61 114.99 L 618.66 115.38 L 618.71 115.79 L 618.76 116.2 L 618.81 116.62 L 618.86 117.05 L 618.91 117.48 L 618.96 117.91 L 619 118.34 L 619.05 118.77 L 619.1 119.2 L 619.15 119.62 L 619.2 120.03 L 619.25 120.44 L 619.3 120.83 L 619.35 121.21 L 619.4 121.58 L 619.44 121.93 L 619.49 122.27 L 619.54 122.59 L 619.59 122.9 L 619.64 123.19 L 619.69 123.46 L 619.74 123.72 L 619.79 123.96 L 619.83 124.19 L 619.88 124.41 L 619.93 124.61 L 619.98 124.81 L 620.03 125 L 620.08 125.18 L 620.12 125.35 L 620.17 125.52 L 620.22 125.7 L 620.27 125.87 L 620.32 126.05 L 620.37 126.23 L 620.41 126.42 L 620.46 126.61 L 620.51 126.82 L 620.56 127.03 L 620.61 127.26 L 620.66 127.5 L 620.7 127.76 L 620.75 128.03 L 620.8 128.32 L 620.85 128.62 L 620.9 128.93 L 620.94 129.26 L 620.99 129.61 L 621.04 129.97 L 621.09 130.35 L 621.14 130.73 L 621.18 131.13 L 621.23 131.54 L 621.28 131.96 L 621.33 132.38 L 621.38 132.82 L 621.42 133.25 L 621.47 133.69 L 621.52 134.12 L 621.57 134.55 L 621.61 134.98 L 621.66 135.4 L 621.71 135.82 L 621.76 136.22 L 621.8 136.61 L 621.85 136.99 L 621.9 137.35 L 621.95 137.69 L 621.99 138.02 L 622.04 138.33 L 622.09 138.62 L 622.14 138.9 L 622.18 139.16 L 622.23 139.4 L 622.28 139.62 L 622.33 139.83 L 622.37 140.03 L 622.42 140.22 L 622.47 140.4 L 622.52 140.57 L 622.56 140.74 L 622.61 140.9 L 622.66 141.06 L 622.7 141.23 L 622.75 141.4 L 622.8 141.58 L 622.84 141.76 L 622.89 141.95 L 622.94 142.16 L 622.99 142.38 L 623.03 142.61 L 623.08 142.86 L 623.13 143.13 L 623.17 143.41 L 623.22 143.71 L 623.27 144.03 L 623.31 144.36 L 623.36 144.71 L 623.41 145.08 L 623.45 145.46 L 623.5 145.86 L 623.55 146.28 L 623.59 146.7 L 623.64 147.14 L 623.69 147.58 L 623.73 148.03 L 623.78 148.48 L 623.83 148.93 L 623.87 149.39 L 623.92 149.83 L 623.97 150.28 L 624.01 150.71 L 624.06 151.13 L 624.11 151.54 L 624.15 151.93 L 624.2 152.3 L 624.25 152.65 L 624.29 152.99 L 624.34 153.3 L 624.38 153.59 L 624.43 153.86 L 624.48 154.11 L 624.52 154.33 L 624.57 154.54 L 624.62 154.73 L 624.66 154.91 L 624.71 155.07 L 624.75 155.23 L 624.8 155.37 L 624.85 155.52 L 624.89 155.66 L 624.94 155.8 L 624.98 155.95 L 625.03 156.11 L 625.08 156.27 L 625.12 156.45 L 625.17 156.64 L 625.21 156.86 L 625.26 157.09 L 625.3 157.34 L 625.35 157.61 L 625.4 157.91 L 625.44 158.23 L 625.49 158.57 L 625.53 158.93 L 625.58 159.32 L 625.62 159.73 L 625.67 160.15 L 625.72 160.6 L 625.76 161.06 L 625.81 161.52 L 625.85 162 L 625.9 162.48 L 625.94 162.96 L 625.99 163.42 L 626.03 163.88 L 626.08 164.32 L 626.13 164.73 L 626.17 165.12 L 626.22 165.46 L 626.26 165.77 L 626.31 166.03 L 626.35 166.23 L 626.4 166.38 L 626.44 166.47" stroke="#009e73" stroke-width="3.47" fill="none"  stroke-linejoin="round" stroke-linecap="round"/></g><line x1="71.67" y1="45" x2="71.67" y2="291" stroke="#71717a" stroke-width="1.11"/><line x1="690.67" y1="45" x2="690.67" y2="291" stroke="#71717a" stroke-width="1.11"/><line x1="71.67" y1="45" x2="690.67" y2="45" stroke="#71717a" stroke-width="1.11"/><line x1="71.67" y1="291" x2="690.67" y2="291" stroke="#71717a" stroke-width="1.11"/><line data-xy-tick="minor" x1="173.41" y1="291" x2="173.41" y2="293.78" stroke="#71717a" stroke-width="0.83"/><line data-xy-tick="minor" x1="200.05" y1="291" x2="200.05" y2="293.78" stroke="#71717a" stroke-width="0.83"/><line data-xy-tick="minor" x1="220.71" y1="291" x2="220.71" y2="293.78" stroke="#71717a" stroke-width="0.83"/><line data-xy-tick="minor" x1="237.59" y1="291" x2="237.59" y2="293.78" stroke="#71717a" stroke-width="0.83"/><line data-xy-tick="minor" x1="251.87" y1="291" x2="251.87" y2="293.78" stroke="#71717a" stroke-width="0.83"/><line data-xy-tick="minor" x1="264.23" y1="291" x2="264.23" y2="293.78" stroke="#71717a" stroke-width="0.83"/><line data-xy-tick="minor" x1="275.14" y1="291" x2="275.14" y2="293.78" stroke="#71717a" stroke-width="0.83"/><line data-xy-tick="minor" x1="349.08" y1="291" x2="349.08" y2="293.78" stroke="#71717a" stroke-width="0.83"/><line data-xy-tick="minor" x1="386.63" y1="291" x2="386.63" y2="293.78" stroke="#71717a" stroke-width="0.83"/><line data-xy-tick="minor" x1="413.27" y1="291" x2="413.27" y2="293.78" stroke="#71717a" stroke-width="0.83"/><line data-xy-tick="minor" x1="450.81" y1="291" x2="450.81" y2="293.78" stroke="#71717a" stroke-width="0.83"/><line data-xy-tick="minor" x1="465.09" y1="291" x2="465.09" y2="293.78" stroke="#71717a" stroke-width="0.83"/><line data-xy-tick="minor" x1="477.45" y1="291" x2="477.45" y2="293.78" stroke="#71717a" stroke-width="0.83"/><line data-xy-tick="minor" x1="488.36" y1="291" x2="488.36" y2="293.78" stroke="#71717a" stroke-width="0.83"/><line data-xy-tick="minor" x1="562.3" y1="291" x2="562.3" y2="293.78" stroke="#71717a" stroke-width="0.83"/><line data-xy-tick="minor" x1="599.85" y1="291" x2="599.85" y2="293.78" stroke="#71717a" stroke-width="0.83"/><line data-xy-tick="minor" x1="647.15" y1="291" x2="647.15" y2="293.78" stroke="#71717a" stroke-width="0.83"/><line data-xy-tick="minor" x1="664.03" y1="291" x2="664.03" y2="293.78" stroke="#71717a" stroke-width="0.83"/><line data-xy-tick="minor" x1="678.31" y1="291" x2="678.31" y2="293.78" stroke="#71717a" stroke-width="0.83"/><line x1="135.86" y1="291" x2="135.86" y2="295.86" stroke="#3f3f46" stroke-width="1.11"/><line x1="284.89" y1="291" x2="284.89" y2="295.86" stroke="#3f3f46" stroke-width="1.11"/><line x1="433.93" y1="291" x2="433.93" y2="295.86" stroke="#3f3f46" stroke-width="1.11"/><line x1="498.12" y1="291" x2="498.12" y2="295.86" stroke="#3f3f46" stroke-width="1.11"/><line x1="626.49" y1="291" x2="626.49" y2="295.86" stroke="#3f3f46" stroke-width="1.11"/><line x1="690.67" y1="291" x2="690.67" y2="295.86" stroke="#3f3f46" stroke-width="1.11"/><line x1="66.81" y1="278.05" x2="71.67" y2="278.05" stroke="#3f3f46" stroke-width="1.11"/><line x1="66.81" y1="226.26" x2="71.67" y2="226.26" stroke="#3f3f46" stroke-width="1.11"/><line x1="66.81" y1="174.47" x2="71.67" y2="174.47" stroke="#3f3f46" stroke-width="1.11"/><line x1="66.81" y1="122.68" x2="71.67" y2="122.68" stroke="#3f3f46" stroke-width="1.11"/><line x1="66.81" y1="70.89" x2="71.67" y2="70.89" stroke="#3f3f46" stroke-width="1.11"/><g fill="#27272a"><text x="135.86" y="314.06" fill="#3f3f46" font-size="16.67" text-anchor="start" transform="rotate(30 135.86 314.06)">20</text><text x="284.89" y="314.06" fill="#3f3f46" font-size="16.67" text-anchor="start" transform="rotate(30 284.89 314.06)">100</text><text x="433.93" y="314.06" fill="#3f3f46" font-size="16.67" text-anchor="start" transform="rotate(30 433.93 314.06)">500</text><text x="498.12" y="314.06" fill="#3f3f46" font-size="16.67" text-anchor="start" transform="rotate(30 498.12 314.06)">1k</text><text x="626.49" y="314.06" fill="#3f3f46" font-size="16.67" text-anchor="start" transform="rotate(30 626.49 314.06)">4k</text><text x="690.67" y="314.06" fill="#3f3f46" font-size="16.67" text-anchor="start" transform="rotate(30 690.67 314.06)">8k</text><text x="61.95" y="283.89" fill="#3f3f46" font-size="16.67" text-anchor="end">-80</text><text x="61.95" y="232.1" fill="#3f3f46" font-size="16.67" text-anchor="end">-60</text><text x="61.95" y="180.31" fill="#3f3f46" font-size="16.67" text-anchor="end">-40</text><text x="61.95" y="128.52" fill="#3f3f46" font-size="16.67" text-anchor="end">-20</text><text x="61.95" y="76.73" fill="#3f3f46" font-size="16.67" text-anchor="end">0</text></g><text x="381.17" y="31.11" text-anchor="middle" font-size="22.22" font-weight="400" fill="#27272a">TIA IRS Filter (8 kHz)</text><text x="381.17" y="370.94" text-anchor="middle" font-size="19.44" font-weight="400" fill="#27272a">Frequency (Hz)</text><text x="22.23" y="168" text-anchor="middle" font-size="19.44" font-weight="400" fill="#27272a" transform="rotate(-90 22.23 168)">Magnitude (dB)</text></svg></svg>